<ttFont>
          <CharString index="0">
            rmoveto
            -10 hlineto
            -76.1399993896 -30.8699951172 -40.6900024414 -54.8099975586 -105.960006714 hhcurveto
            -143.419998169 299.630004883 170.039993286 hlineto
            -50 callsubr
            9.77000427246 -0.119995117188 rlineto
            158.259994507 vlineto
            -9.77000427246 -0.130004882812 rlineto
            -14.7299957275 vlineto
            -26.9199981689 -21.5800018311 -21.8399963379 -26.7899932861 -0.5 vhcurveto
            -169 309.160003662 203.869995117 hlineto
            31.2400054932 -1.89999389648 24.75 -25.8999938965 -31.7200012207 vvcurveto
            -17.8200073242 vlineto
            10.1000061035 -0.149993896484 rlineto
            80.3000030518 vlineto
            16.6900024414 vlineto
            29.2799987793 vlineto
            -18.5399932861 -7.82000732422 -57.5700073242 -9.96000671387 -43.1000061035 -0.410003662109 rrcurveto
            -292.229995728 hlineto
            -22 callsubr
            33.1000061035 27.1999969482 -25.0899963379 -32.1900024414 3.41000366211 hvcurveto
            -559.929992676 vlineto
            -34.8300018311 -0.660003662109 -28.3999938965 -28.0500030518 -35 hhcurveto
            -12.6499938965 38 callsubr
            -10 rlineto
            return
          </CharString>
          <CharString index="1">
            -10.8399963379 hlineto
            -28.3999938965 -64.7299957275 -34.2100067139 -46.8500061035 -96.0700073242 -1.28999328613 rrcurveto
            -156.369995117 254.410003662 173.169998169 hlineto
            26.1199951172 -1.55999755859 12.0800018311 -18.3600006104 -22.4600067139 vvcurveto
            -12.6999969482 23 callsubr
            -0.110000610352 rlineto
            140.460006714 vlineto
            -10.8800048828 -0.110000610352 rlineto
            -12.6999969482 vlineto
            -23.1100006104 -12.8000030518 -18.7700042725 -27.7299957275 -0.580001831055 vhcurveto
            -170.839996338 254.410003662 207.350006104 hlineto
            30.4400024414 -0.600006103516 19.6999969482 -22.7599945068 -28.0399932861 vvcurveto
            -15.3699951172 23 callsubr
            -0.130004882812 rlineto
            113.160003662 vlineto
            -17.4100036621 -6.77000427246 -54.0800018311 -8.63000488281 -40.2299957275 -0.279998779297 rrcurveto
            -292.130004883 hlineto
            0.179992675781 -10 rlineto
            13.7299957275 hlineto
            32.5 25.2599945068 -22.5599975586 -29.8099975586 hvcurveto
            -474.580001831 vlineto
            -29.5099945068 -1.21000671387 -24.2599945068 -23.5800018311 -32.2599945068 hhcurveto
            -13.7299957275 hlineto
            -0.179992675781 -10 rlineto
            return
          </CharString>
          <CharString index="2">
            rmoveto
            53.6199951172 26.4299926758 53.6199951172 27.4299926758 53.6199951172 31.4299926758 -10.6300048828 19.5399932861 -14.6399993896 17.5399932861 -15.6300048828 15.5399932861 -42.3200073242 -40.6300048828 -42.3200073242 -44.6300048828 -42.3200073242 -45.6300048828 rrcurveto
            return
          </CharString>
          <CharString index="3">
            rmoveto
            21.5800018311 17.5 17.5 21.5800018311 21.5800018311 -17.5 17.5 -21.5800018311 -21.5800018311 -17.5 -17.5 -21.5800018311 -21.5800018311 17.5 -17.5 21.5800018311 hvcurveto
            188.369995117 hmoveto
            21.5800018311 17.5 17.5 21.5800018311 21.5800018311 -17.5 17.5 -21.5800018311 -21.5800018311 -17.5 -17.5 -21.5800018311 -21.5800018311 17.5 -17.5 21.5800018311 hvcurveto
            return
          </CharString>
          <CharString index="4">
            rmoveto
            -9.47999572754 hlineto
            -26.1600036621 -2.05999755859 -36.7200012207 -76.8399963379 0.289993286133 hhcurveto
            -207.039993286 -443.25 rlineto
            -40.75 -20.5099945068 -31.2799987793 -17.0099945068 -26.6100006104 hhcurveto
            -7.92999267578 -10 190.539993286 9.91000366211 -7.94999694824 hlineto
            -23.3399963379 -26.2899932861 22.7599945068 40.0200042725 15.2799987793 hvcurveto
            55.0500030518 130.320007324 rlineto
            252.970001221 hlineto
            54.6300048828 -133.070007324 rlineto
            -38.3099975586 13.1000061035 -25.6399993896 -21.7100067139 -22.8000030518 hhcurveto
            -7.94999694824 -9.91000366211 205.419998169 10 -7.55999755859 hlineto
            -26.7100067139 -30.0899963379 17.1499938965 41.1300048828 -20.3899993896 hvcurveto
            -372.300003052 164.710006714 rmoveto
            115.630004883 273.660003662 112.350006104 -273.660003662 rlineto
            endchar
          </CharString>
          <CharString index="5">
            rmoveto
            -31.3600006104 25.1900024414 -7.75999450684 27.8500061035 -0.190002441406 25.7100067139 rrcurveto
            53.1600036621 -0.380004882812 53.7799987793 42.2200012207 66.7899932861 hhcurveto
            78.4700012207 37.0800018311 -33.0099945068 -55.4100036621 hvcurveto
            11.4499969482 hlineto
            -1.5 108.779998779 rlineto
            -33.4299926758 hlineto
            5.17999267578 -22.3600006104 -30.7599945068 4.08000183105 -45.8000030518 hhcurveto
            -92.5700073242 -73.9600067139 -64.75 -81.25 1.19999694824 hvcurveto
            0.509994506836 -34.7100067139 10.0399932861 -41.5599975586 37.2299957275 -31.8000030518 200.039993286 -154.36000061 rcurveline
            25.7700042725 -22.5599975586 10.6600036621 -25.4499969482 -31.1399993896 vvcurveto
            -64.9900054932 -50.5800018311 -43.0899963379 -82.6699981689 -2.35000610352 vhcurveto
            -88.2299957275 -2.50999450684 -60.6600036621 53.6999969482 8.83999633789 90.0899963379 rrcurveto
            -11.5299987793 hlineto
            -13.6600036621 -38.6499938965 -2.57000732422 -58.9100036621 6.30000305176 -26.6100006104 rrcurveto
            -32.6499938965 36.4299926758 76.8099975586 -14.4499969482 59.2599945068 hhcurveto
            98.6799926758 79.1100006104 71.7700042725 89.2299957275 -0.789993286133 hvcurveto
            -0.339996337891 38.8800048828 -14.1100006104 42.6600036621 -30.8200073242 25.8899993896 rrcurveto
            return
          </CharString>
          <CharString index="6">
            rmoveto
            -10 16.3000030518 vlineto
            28.4199981689 23.1499938965 -20.1000061035 -28.0399932861 1.25 hvcurveto
            -394.479995728 vlineto
            -137.940002441 -0.229995727539 -89.0599975586 -91.9600067139 -133.589996338 hhcurveto
            -127.399993896 -84.9299926758 97.1199951172 145.679992676 hvcurveto
            381.710006714 vlineto
            27.9799957275 1.2200012207 23.1199951172 20.0399932861 28.3800048828 hhcurveto
            16.3000030518 10 -203.11000061 -10 16.2899932861 hlineto
            28.8899993896 23.4400024414 -20.7599945068 -28.7599945068 0.539993286133 hvcurveto
            -394.899993896 vlineto
            -155.759994507 110.929992676 -103.839996338 166.399993896 161.729995728 107.820007324 104.539993286 156.800003052 vhcurveto
            395.449996948 vlineto
            27.5599975586 1.74000549316 22.9499969482 19.6699981689 28.1100006104 hhcurveto
            16.3000030518 10 hlineto
            endchar
          </CharString>
          <CharString index="7">
            rmoveto
            -10 14.8399963379 vlineto
            26.0399932861 21.1799926758 -18.1900024414 -24.4499969482 0.839996337891 hvcurveto
            -336.029998779 vlineto
            -122.880004883 -0.300003051758 -77.4600067139 -75.3099975586 -126.130004883 hhcurveto
            -114.850006104 -70.4799957275 79.5399932861 129.770004272 hvcurveto
            324.25 vlineto
            24.7899932861 0.610000610352 21.3300018311 18.5200042725 26.2700042725 hhcurveto
            14.8099975586 10 -189.800003052 -10 14.8399963379 hlineto
            26.2799987793 21.3000030518 -18.5200042725 -24.7899932861 0.509994506836 hvcurveto
            -336.919998169 vlineto
            -138.75 95.6900024414 -85.0399932861 154.429992676 154.36000061 94.9199981689 85.6100006104 139.679992676 vhcurveto
            336.589996338 vlineto
            24.1999969482 1.17999267578 21.0399932861 17.9400024414 25.8600006104 hhcurveto
            14.8399963379 10 hlineto
            endchar
          </CharString>
          <CharString index="8">
            rmoveto
            -9.00999450684 hlineto
            -21.9900054932 -37.0299987793 -81.0099945068 0 vhcurveto
            -226.779998779 -538.11000061 rlineto
            -44.4600067139 -20.2200012207 -36.9700012207 -18.4299926758 -30.4100036621 hhcurveto
            -9 -10 201.279998779 9.91000366211 -8.78999328613 hlineto
            -25.6900024414 -26.6499938965 22.5299987793 39.6399993896 14.1100006104 hvcurveto
            66.9900054932 170.919998169 rlineto
            269.350006104 hlineto
            63.9600067139 -170.320007324 rlineto
            -40.0200042725 14.6000061035 -26.7799987793 -22.75 -25.8200073242 hhcurveto
            -8.78999328613 -9.91000366211 225.179992676 10 -8.36000061035 hlineto
            -30.6300048828 -36.9900054932 18.4499969482 44.5099945068 -20.2200012207 hvcurveto
            -403.740005493 200.039993286 rmoveto
            125.789993286 320.949996948 120.529998779 -320.949996948 rlineto
            endchar
          </CharString>
          <CharString index="9">
            rmoveto
            0.179992675781 -10 rlineto
            13.5 hlineto
            31.8099975586 23.9799957275 -22.3999938965 -29.6399993896 1.02000427246 hvcurveto
            -475.13999939 vlineto
            -29.3999938965 -1.30000305176 -23.8800048828 -23.4600067139 -31.6199951172 hhcurveto
            -13.5 hlineto
            -0.179992675781 -10 rlineto
            204.509994507 hlineto
            -0.179992675781 10 rlineto
            -13.5299987793 hlineto
            -32.1699981689 -24.0200042725 24.1799926758 30.0299987793 -0.619995117188 hvcurveto
            504.690002441 vlineto
            9.50999450684 -0.529998779297 49.2799987793 2.49000549316 56.1999969482 -2.83999633789 80.4600067139 -4.07000732422 50.4299926758 -44.0099945068 2.11000061035 -74.9199981689 0.619995117188 -21.9199981689 -2.83000183105 -21.0700073242 -4.7799987793 -14.0200042725 -28.6799926758 -84.0599975586 -63.0099945068 -0.539993286133 -55.3099975586 -1.39999389648 rrcurveto
            -0.830001831055 -32.6999969482 -24.6799926758 0.419998168945 0.0299987792969 hhcurveto
            -9.25 vlineto
            39.5700073242 34.6900024414 -33.4100036621 -33.9299926758 27.0800018311 hvcurveto
            7.83000183105 -9.80999755859 78.8500061035 -113.589996338 11.3099975586 -13.6000061035 rrcurveto
            -37.6900024414 31.3699951172 43.6600036621 -50.3099975586 110.630004883 hhcurveto
            31.5 10.0299987793 hlineto
            -55.4600067139 0.470001220703 -28 29.8699951172 -40.6999969482 45.6300048828 rrcurveto
            46.3500061035 -41.3500061035 -46.3099975586 62.6799926758 -47 callsubr
            hhcurveto
            -21.4299926758 30.3699951172 -33.7899932861 38.1000061035 -21.8200073242 9.89999389648 rrcurveto
            89.75 9 65.7400054932 70.8600006104 84.8099975586 vvcurveto
            101.020004272 -77.2400054932 60.9199981689 -126.070007324 vhcurveto
            return
          </CharString>
          <CharString index="10">
            rmoveto
            -22 callsubr
            35 28.3999938965 -28.0500030518 -34.8300018311 0.660003662109 hvcurveto
            -554.809997559 vlineto
            -34.6100006104 -0.880004882812 -28.3000030518 -27.7899932861 -34.8399963379 hhcurveto
            -12.6499938965 38 callsubr
            -10 rlineto
            218.460006714 -56 callsubr
            596.009994507 vlineto
            12.9799957275 -0.470001220703 60.5299987793 2.47999572754 50.9799957275 -2.78999328613 74.4499969482 -4.08000183105 47.1399993896 -57.9299926758 2.46000671387 -90.4400024414 0.600006103516 -21.9199981689 -2.55000305176 -23.9499969482 -4.41000366211 -14.0099945068 -28.3800048828 -90.0599975586 -75.8300018311 -12.3600006104 -51.8699951172 -1.41000366211 rrcurveto
            -30.1000061035 -0.820007324219 -22.7400054932 0.490005493164 0 vvcurveto
            -9.25 vlineto
            36.5299987793 29.1699981689 -34.6399993896 -32.8399963379 26.1399993896 hvcurveto
            7.67999267578 -9.64999389648 112.690002441 -163.960006714 11.3600006104 -13.5700073242 rrcurveto
            -37.5399932861 31.4400024414 49.9700012207 -50.1300048828 93.0599975586 hhcurveto
            54.8600006104 10.0299987793 hlineto
            -58.7599945068 0.470001220703 -37.0099945068 31.2100067139 -40.2299957275 43.9400024414 rrcurveto
            -38.7100067139 42.2799987793 -86.2100067139 123.100006104 0 vvcurveto
            -19.3800048828 27.3699951172 -30.7400054932 33.1000061035 -21.4499969482 9.89999389648 rrcurveto
            96.1699981689 73.7100067139 93.8600006104 96.8099975586 116.520004272 -74.2700042725 71.4199981689 -121.179992676 hvcurveto
            return
          </CharString>
          <CharString index="11">
            -73 callsubr
            554.949996948 vlineto
            34.5399932861 -86 callsubr
            return
          </CharString>
          <CharString index="12">
            rmoveto
            -212.660003662 -146.770004272 -145.600006104 -218.399993896 -218.399993896 146.770004272 -145.600006104 212.660003662 212.660003662 146.770004272 145.600006104 218.399993896 218.399993896 -146.770004272 145.600006104 -212.660003662 hvcurveto
            -698.080001831 vmoveto
            -169.660003662 -113.11000061 133.630004883 200.440002441 200.449996948 113.11000061 133.630004883 169.660003662 169.660003662 113.11000061 -133.630004883 -200.449996948 -200.440002441 -113.11000061 -133.630004883 -169.660003662 hvcurveto
            endchar
          </CharString>
          <CharString index="13">
            rmoveto
            -10.0200042725 12.6000061035 vlineto
            26.9499969482 24.1900024414 -32.8600006104 -28.1699981689 -15.5599975586 hvcurveto
            -0.529998779297 -0.929992675781 -159.369995117 -279.940002441 -149.839996338 279.850006104 rlineto
            28.3899993896 -14.7100067139 20.4600067139 33.6999969482 29.2700042725 hhcurveto
            12.6000061035 9.9700012207 -245.919998169 -9.9700012207 13.6300048828 hlineto
            41.8200073242 39.3600006104 -27.7200012207 -30.7100067139 19.3699951172 hvcurveto
            190.399993896 -318.309997559 rlineto
            -241.020004272 vlineto
            -34.5599975586 -0.960006713867 -28.2700042725 -27.7400054932 -34.8099975586 hhcurveto
            -12.6499938965 38 callsubr
            -10 rlineto
            218.75 -56 callsubr
            239.429992676 vlineto
            197.729995728 319.630004883 rlineto
            30.5899963379 21.3600006104 37.2700042725 27.4799957275 41.6799926758 hhcurveto
            14 20 callsubr
            hlineto
            endchar
          </CharString>
          <CharString index="14">
            rmoveto
            -9.91000366211 8.78999328613 vlineto
            27.2100067139 21.4400024414 -21.2799987793 -38.3800048828 -9.92999267578 hvcurveto
            -133.910003662 -468.270004272 -197.210006714 553.160003662 -9.30999755859 0.320007324219 -186.199996948 -573.699996948 -151.270004272 486.699996948 rlineto
            39.3099975586 -11.7700042725 25.25 22.1300048828 25.5700073242 hhcurveto
            8.78999328613 9.91000366211 -222.229995728 -10 8 hlineto
            30.6399993896 40.4299926758 -17.5399932861 -43.4499969482 16.5800018311 hvcurveto
            226.940002441 -641.020004272 rlineto
            9.44000244141 hlineto
            1.64999389648 49.1499938965 19.3200073242 62.0099945068 0 vvcurveto
            151.5 460.669998169 204.490005493 -571.830001831 rlineto
            9.44000244141 hlineto
            1.5299987793 47.6199951172 20.3300018311 63.5299987793 0 vvcurveto
            165.589996338 528.880004883 rlineto
            44.1600036621 15.3600006104 41.8600006104 17.8099975586 30.5200042725 hhcurveto
            8.78999328613 10 hlineto
            endchar
          </CharString>
          <CharString index="15">
            rmoveto
            -9.91000366211 7.85000610352 vlineto
            21.3399963379 22.8300018311 -17.5800018311 -43 -14.0899963379 hvcurveto
            -112.38999939 -370.929992676 -178.539993286 456.75 -9.66999816895 0.320007324219 -169.070007324 -486.350006104 -133.289993286 406.630004883 rlineto
            39.1600036621 -10.4400024414 23.6999969482 15 20.5 hhcurveto
            7.83000183105 9.91000366211 -205.669998169 -10 8.28999328613 hlineto
            39.0800018311 26.7100067139 -22.4700012207 -32.2100067139 13.4499969482 hvcurveto
            210.050003052 -547.330001831 rlineto
            9.7799987793 hlineto
            1.72999572754 49.1499938965 19.8999938965 62.0099945068 0 vvcurveto
            129.979995728 365.149993896 186.029998779 -476.309997559 rlineto
            9.7799987793 hlineto
            1.7200012207 47.6199951172 21.0800018311 63.5299987793 0 vvcurveto
            145.38999939 431.36000061 rlineto
            34.7599945068 12.8000030518 27.3200073242 24.7299957275 41.4400024414 hhcurveto
            7.83999633789 10 hlineto
            endchar
          </CharString>
          <CharString index="16">
            -186.570007324 -150.880004883 -128.160003662 4 callsubr
            4 callsubr
            150.880004883 -128.160003662 186.570007324 186.539993286 150.880004883 128.160003662 185.839996338 185.839996338 -150.880004883 128.160003662 -186.539993286 hvcurveto
            -598.080001831 vmoveto
            -147.11000061 -116.25 114.990005493 169.080001831 169.089996338 116.25 115 147.11000061 147.080001831 116.279998779 -115 -169.089996338 -169.080001831 -116.279998779 -114.990005493 -147.080001831 hvcurveto
            endchar
          </CharString>
          <CharString index="17">
            rmoveto
            -10 11.4499969482 vlineto
            27.2799987793 17.1900024414 -23.9499969482 -24.8300018311 -10.3399963379 hvcurveto
            -155.199996948 -258.009994507 -145.339996338 259.080001831 rlineto
            23.0899963379 -8.32000732422 15.5500030518 24.6199951172 26.9299926758 hhcurveto
            11.4499969482 10 -231.899993896 -10 12.3500061035 hlineto
            38.1399993896 32.9400024414 -19.6699981689 -30.6100006104 20.4400024414 hvcurveto
            185.179992676 -290.330001831 rlineto
            -185.190002441 vlineto
            -30.0299987793 -0.630004882812 -25.7599945068 -24.1799926758 -31.7899932861 hhcurveto
            -11.4700012207 hlineto
            -0.149993896484 -10 rlineto
            204.539993286 hlineto
            -0.119995117188 10 rlineto
            21 callsubr
            -31.7599945068 -25.7899932861 24.1799926758 30.0299987793 -0.580001831055 hvcurveto
            183.789993286 vlineto
            191.759994507 291.169998169 rlineto
            26.6499938965 19.7200012207 33.9900054932 24.1999969482 38.1100006104 hhcurveto
            12.6900024414 10 hlineto
            endchar
          </CharString>
          <CharString index="18">
            rmoveto
            46 callsubr
            59 callsubr
            29.6100006104 24.1900024414 -22.0899963379 -27.8699951172 1.80000305176 hvcurveto
            -414.679992676 vlineto
            -518.929992676 489.089996338 -10.7400054932 0.5 rlineto
            0 9.58000183105 -56.6600036621 -68.2700042725 vvcurveto
            -427.839996338 vlineto
            -28.9400024414 -0.589996337891 -24.6699981689 -23.3099975586 -30.4199981689 hhcurveto
            -16.6499938965 -16 callsubr
            189.029998779 hlineto
            -0.119995117188 10 rlineto
            49 callsubr
            -30.4199981689 -24.6900024414 23.3099975586 28.9400024414 -0.559997558594 hvcurveto
            417.259994507 vlineto
            520.089996338 -493.490005493 rlineto
            9.52000427246 hlineto
            0 -9.49000549316 63.1499938965 64.4299926758 vvcurveto
            426.419998169 vlineto
            27.9100036621 1.72999572754 24.2100067139 22.1300048828 29.6399993896 hhcurveto
            59 callsubr
            0.139999389648 10 rlineto
            return
          </CharString>
          <CharString index="19">
            rmoveto
            47 callsubr
            18.4499969482 hlineto
            33.7400054932 27.3600006104 -27.0399932861 -33.5700073242 0.630004882812 hvcurveto
            -495.940002441 vlineto
            -544.580001831 581.509994507 rlineto
            -9.86000061035 hlineto
            0 9.21000671387 -56.6600036621 -68.2700042725 vvcurveto
            -519.529998779 vlineto
            -33.5500030518 -0.649993896484 -27.3600006104 -27.0099945068 -33.7200012207 hhcurveto
            58 callsubr
            -0.149993896484 -10 rlineto
            205.990005493 hlineto
            -0.149993896484 10 rlineto
            58 callsubr
            -33.4700012207 -27.1999969482 26.6199951172 33.2100067139 -1.03999328613 hvcurveto
            497.910003662 vlineto
            545.369995117 -581.720001221 rlineto
            9.08000183105 hlineto
            0 -9.11999511719 63.1499938965 64.4299926758 vvcurveto
            516.669998169 vlineto
            33.1900024414 1.05999755859 27.1900024414 26.5899963379 33.4600067139 hhcurveto
            18.4600067139 39 callsubr
            return
          </CharString>
          <CharString index="20">
            rmoveto
            -42.3200073242 46.6300048828 -42.3200073242 43.6300048828 -42.3200073242 40.6300048828 -15.6300048828 -14.5399932861 -14.6399993896 -17.5399932861 -10.6300048828 -60 callsubr
            return
          </CharString>
          <CharString index="21">
            0.979995727539 28.2700042725 27.7200012207 34.7899932861 -45 callsubr
            -218.759994507 57 callsubr
            -10 -39 callsubr
            34.8600006104 28.3099975586 -27.8300018311 -34.6399993896 0.869995117188 hvcurveto
            -554.740005493 vlineto
            -34.8300018311 -0.660003662109 -28.3999938965 -28.0500030518 -35 hhcurveto
            -12.6499938965 38 callsubr
            -10 rlineto
            return
          </CharString>
          <CharString index="22">
            rmoveto
            -28.3899993896 -64.6999969482 -34.1999969482 -46.8399963379 -95.9900054932 -1.32000732422 rrcurveto
            -156.470001221 505.350006104 hlineto
            29.9700012207 0.669998168945 26.4600067139 24.1100006104 32.5800018311 hhcurveto
            11.7700042725 57 callsubr
            10 rlineto
            -207.179992676 57 callsubr
            -10 rlineto
            11.7700042725 hlineto
            32.6699981689 26.4499969482 -24.1799926758 -30.0299987793 0.630004882812 hvcurveto
            -472.729995728 vlineto
            -29.5099945068 -1.17999267578 -41 callsubr
            return
          </CharString>
          <CharString index="23">
            rmoveto
            52.2799987793 2 43.0599975586 55 -25.9900054932 62 -13.5299987793 33 -38.9499969482 -2 7 callsubr
            -23 -8.96000671387 -20 16.9100036621 -14 10.4199981689 -13 13.6799926758 -16 7.96000671387 -42 -48.6399993896 -15 rrcurveto
            endchar
          </CharString>
          <CharString index="24">
            -30 callsubr
            20.1499938965 20.1499938965 -17 callsubr
            -20.1499938965 20.1499938965 -18 callsubr
            -20.1499938965 -20.1499938965 -18 callsubr
            20.1499938965 -20.1499938965 -30 callsubr
            hvcurveto
            return
          </CharString>
          <CharString index="25">
            rmoveto
            -40 callsubr
            473.979995728 vlineto
            29.2799987793 1.38999938965 24.1399993896 23.3200073242 29.6300048828 hhcurveto
            22 callsubr
            0.139999389648 10 rlineto
            65 callsubr
            46 callsubr
            22 callsubr
            30.1699981689 24.4799957275 -24.1799926758 -30.0299987793 0.559997558594 hvcurveto
            -471.699996948 vlineto
            -29.9900054932 -0.580001831055 -24.4600067139 -24.1399993896 -30.1399993896 hhcurveto
            -10.8999938965 -16 callsubr
            6 callsubr
            endchar
          </CharString>
          <CharString index="26">
            rmoveto
            25.6000061035 -0.119995117188 16.4600067139 14.0599975586 29.25 hhcurveto
            13.6499938965 10 -183.410003662 -10.0099945068 14.2400054932 hlineto
            29.2200012207 0.0500030517578 17.6499938965 -14.1499938965 -0.320007324219 -25.1799926758 -1.66000366211 -132.88999939 rcurveline
            -60.9799957275 -62.6399993896 -73.8800048828 -25.6799926758 -83.25 hhcurveto
            -153.429992676 -102.279998779 108.63999939 175.36000061 176.130004883 101.75 107.949996948 152.75 139.850006104 78.6999969482 -54.9799957275 -116.830001831 29.0599975586 hvcurveto
            8.75999450684 hlineto
            -22 141.240005493 rlineto
            41.1600036621 -67.4299926758 -73.8800048828 19.3699951172 -92.1399993896 hhcurveto
            -197.070007324 -130.63999939 -119.320007324 -194.679992676 -193.789993286 130.369995117 -119.210006714 197.630004883 -1 hvcurveto
            140.830001831 97.4299926758 69.9600067139 58.8500061035 46.5700073242 hvcurveto
            return
          </CharString>
          <CharString index="27">
            rmoveto
            -48.7200012207 -5.67999267578 -34 callsubr
            -29.8600006104 -34.8699951172 -43 -45.1900024414 43.8000030518 -32.25 hhcurveto
            -25.7200012207 -17.3399963379 -13.0299987793 -27.6999969482 -11.1399993896 hvcurveto
            -10 hlineto
            52.5299987793 7.44000244141 24.3999938965 32.1999969482 32.3600006104 45.25 40.8800048828 -42.8000030518 34.3099975586 hhcurveto
            28.2400054932 17.7299957275 10.75 22.8399963379 9.42999267578 hvcurveto
            return
          </CharString>
          <CharString index="28">
            rmoveto
            10 -195.869995117 -10 15.7700042725 vlineto
            32.2799987793 19.1600036621 -16.4100036621 -29.2100067139 hvcurveto
            -177.190002441 vlineto
            -53.3000030518 -57.6699981689 -81.0700073242 -33.4299926758 -86.9100036621 hhcurveto
            -169.5 0.889999389648 -114.919998169 133.630004883 199.550003052 66 callsubr
            114.919998169 133.630004883 169.5 132.050003052 91.5299987793 -64.3699951172 -114.440002441 30.3800048828 vhcurveto
            8.32000732422 hlineto
            -20.1799926758 141.240005493 rlineto
            37.8200073242 -58.75 -73.6600036621 29.7100067139 -109.990005493 hhcurveto
            -212.36000061 -146.770004272 -145.600006104 -218.399993896 -217.63999939 146.770004272 -145.36000061 212.649993896 -1 hvcurveto
            150.169998169 93.4400024414 68.2100067139 60.6000061035 45.6000061035 hvcurveto
            165.369995117 vlineto
            28.9199981689 -0.470001220703 18.1900024414 16.3099975586 32.3300018311 hhcurveto
            return
          </CharString>
          <CharString index="29">
            rmoveto
            -31.5099945068 29.1900024414 -8.75 36.9400024414 26.0700073242 vvcurveto
            60.9400024414 49.3099975586 54.0599975586 73.6799926758 62.3099975586 50.4400024414 -39 -63.9700012207 -0.240005493164 vhcurveto
            9.63000488281 110.830001831 hlineto
            11.8699951172 -39.6199951172 vlineto
            5.78999328613 -26.5599975586 -32.9499969482 4.4700012207 -26.25 hhcurveto
            -114 -61.75 -84.7100067139 -84.2899932861 -38.7100067139 13.75 -48.2899932861 40.4499969482 -36.9199981689 hvcurveto
            191.550003052 -177.899993896 rlineto
            24.9900054932 -23.1900024414 14.25 -30.9199981689 -39.0800018311 vvcurveto
            -79.9199981689 -61 -50.0299987793 -73 -4.05999755859 vhcurveto
            -89 -4.94000244141 -65.2400054932 65.9400024414 10.0500030518 103.050003052 rrcurveto
            -8.78999328613 hlineto
            -15.2299957275 -44.8399963379 -3.7799987793 -63.6999969482 7.44999694824 -30.8699951172 return
          </CharString>
          <CharString index="30">
            rmoveto
            41.9600067139 40.1000061035 38.9600067139 40.1000061035 35.9600067139 40.1000061035 -19.3000030518 8.19999694824 -21.3000030518 3.19999694824 -20.3000030518 1.19999694824 -24.3200073242 -43.6300048828 -22.3200073242 -43.6300048828 -20.3200073242 -43.6300048828 rrcurveto
            133.229995728 -2 rmoveto
            42.9600067139 39.1000061035 37.9600067139 41.1000061035 35.9600067139 40.1000061035 -18.3000030518 7.19999694824 -22.3000030518 5.19999694824 -20.3000030518 0.199996948242 -27.3200073242 -43.6300048828 -21.3200073242 -43.6300048828 -18.3200073242 -43.6300048828 rrcurveto
            return
          </CharString>
          <CharString index="31">
            rmoveto
            23.8000030518 19.2899932861 19.2899932861 23.8000030518 23.8000030518 -19.2899932861 19.2899932861 -23.8000030518 -23.8000030518 -19.2899932861 -19.2899932861 -23.8000030518 -23.8000030518 19.2899932861 -19.2899932861 23.8000030518 hvcurveto
            return
          </CharString>
          <CharString index="32">
            191.380004883 600 rmoveto
            -136.380004883 hlineto
            0.190002441406 -10 rlineto
            13.9100036621 hlineto
            32.9100036621 24.6699981689 -22.5599975586 -29.7899932861 0.899993896484 hvcurveto
            -474.61000061 vlineto
            -29.5 -1.24000549316 -24.5500030518 -23.5800018311 -32.6699981689 hhcurveto
            -13.9100036621 hlineto
            -0.179992675781 -10 rlineto
            208.88999939 hlineto
            -0.179992675781 10 rlineto
            -13.9100036621 hlineto
            -32.8999938965 -24.7400054932 23.9799957275 29.8500061035 -0.800003051758 hvcurveto
            221.190002441 175.789993286 vlineto
            26.25 -1.55999755859 12.0599975586 -18.3600006104 -22.4600067139 vvcurveto
            -12.6999969482 vlineto
            60 callsubr
            -0.110000610352 rlineto
            140.460006714 vlineto
            -11.0299987793 -0.110000610352 rlineto
            -12.6999969482 vlineto
            -23.1100006104 -12.7799987793 -18.7700042725 -27.8800048828 -0.580001831055 vhcurveto
            -173.449996948 254.410003662 210.559997559 hlineto
            30.4299926758 -0.600006103516 19.7899932861 -22.7599945068 -28.0399932861 vvcurveto
            -15.3699951172 vlineto
            60 callsubr
            -0.130004882812 rlineto
            113.160003662 vlineto
            -17.6300048828 -6.77000427246 -54.7700042725 -8.63000488281 -40.7400054932 -0.279998779297 rrcurveto
            return
          </CharString>
          <CharString index="33">
            rmoveto
            -76.1399993896 -30.8699951172 -40.6900024414 -54.8099975586 -105.960006714 hhcurveto
            -143.419998169 596.479995728 hlineto
            34.8300018311 0.660003662109 28.3999938965 28.0500030518 35 -45 callsubr
            -218.779998779 57 callsubr
            -10 -39 callsubr
            35 28.3999938965 -28.0500030518 -34.8300018311 0.660003662109 hvcurveto
            -554.210006714 vlineto
            -34.8300018311 -0.639999389648 -29 callsubr
            return
          </CharString>
          <CharString index="34">
            -12.6499938965 hlineto
            -35 -28.3999938965 28.0500030518 34.8300018311 -0.649993896484 hvcurveto
            return
          </CharString>
          <CharString index="35">
            rmoveto
            -28.0700073242 -65.2599945068 -34.3000030518 -46.1000061035 -96 -1.50999450684 rrcurveto
            -274.710006714 hlineto
            380.059997559 575.330001831 rlineto
            8.66999816895 vlineto
            -6.17999267578 -12.5899963379 -57.5599975586 -6.7200012207 -42.9299926758 hhcurveto
            -229.830001831 hlineto
            -39.7200012207 0.800003051758 -54.3300018311 7.7799987793 -17.3200073242 6.86000061035 rrcurveto
            -25.2400054932 vlineto
            -18.0800018311 vlineto
            -69.2200012207 vlineto
            10.7200012207 0.130004882812 rlineto
            15.3699951172 vlineto
            27.7599945068 19.1799926758 22.5800018311 29.7599945068 1.0299987793 vhcurveto
            297.949996948 hlineto
            -372.699996948 -561.529998779 -0.199996948242 -9.32000732422 rlineto
            479.339996338 hlineto
            53.9499969482 142.869995117 rlineto
            endchar
          </CharString>
          <CharString index="36">
            rmoveto
            -10 hlineto
            -19 -69.8399963379 -43.1600036621 -54.8200073242 -74.5399932861 -0.0500030517578 rrcurveto
            -317.770004272 hlineto
            427.210006714 675.589996338 rlineto
            8.66999816895 vlineto
            -6.17999267578 -11.8000030518 -53.9499969482 -6.7200012207 -40.2200012207 hhcurveto
            -277.38999939 hlineto
            -43.3600006104 -0.100006103516 -59.6199951172 10.2100067139 -18.9499969482 7.99000549316 rrcurveto
            -29.2799987793 vlineto
            -16.3500061035 vlineto
            -80.3000030518 69 callsubr
            -12 callsubr
            rlineto
            17.8200073242 vlineto
            32.5399932861 26.0500030518 26.4100036621 32.3699951172 0.669998168945 vhcurveto
            337.479995728 hlineto
            -420.059997559 -661.529998779 -0.179992675781 -9.32000732422 rlineto
            521.190002441 hlineto
            2.5 hlineto
            endchar
          </CharString>
          <CharString index="37">
            rmoveto
            -10.75 -163.850006104 -117.039993286 -72.3500061035 -149.089996338 1.35000610352 rrcurveto
            -159 1.44000244141 -99.0299987793 108.649993896 172.919998169 vvcurveto
            176.130004883 98.8699951172 107.949996948 158.36000061 124 93.3300018311 -49.2899932861 -122.520004272 30.6399993896 vhcurveto
            8.78999328613 hlineto
            -22.1000061035 141.240005493 rlineto
            37.5299987793 -61.7100067139 -89.1799926758 23 -83.3200073242 hhcurveto
            -202.449996948 -127.529998779 -119.320007324 -194.679992676 -193.759994507 127.38999939 -119.240005493 202.589996338 -1 hvcurveto
            118.199996948 105.25 49 79.9400024414 51.9600067139 hvcurveto
            10.6000061035 136.949996948 rlineto
            endchar
          </CharString>
          <CharString index="38">
            -43 callsubr
            10 rlineto
            -73 callsubr
            return
          </CharString>
          <CharString index="39">
            rmoveto
            -43.2200012207 0.229995727539 -58.4799957275 10.0700073242 -18.7299957275 7.88999938965 rrcurveto
            -125.720001221 56 callsubr
            -12 callsubr
            rlineto
            17.8200073242 vlineto
            32.0700073242 25.3000030518 26.1100006104 31.7200012207 1.38000488281 vhcurveto
            189.660003662 -599.779998779 hlineto
            -34.0800018311 -1.49000549316 -28.0599975586 -27.1799926758 -34.4499969482 hhcurveto
            -12.6499938965 38 callsubr
            -10 rlineto
            218.919998169 -7 callsubr
            -34.7299957275 -28.2299957275 27.6199951172 34.4600067139 -1.07000732422 hvcurveto
            598.960006714 189.539993286 vlineto
            31.7200012207 -1.38000488281 25.3000030518 -26.1100006104 -32.0700073242 vvcurveto
            -17.8200073242 56 callsubr
            -0.149993896484 rlineto
            125.720001221 vlineto
            -18.7299957275 -7.88999938965 -58.4799957275 -10.0700073242 -43.2200012207 -0.229995727539 rrcurveto
            return
          </CharString>
          <CharString index="40">
            rmoveto
            -39.3200073242 -54.6300048828 8.80999755859 6.88000488281 -17.3500061035 hvcurveto
            -112.61000061 vlineto
            10.6799926758 0.130004882812 rlineto
            15.3699951172 vlineto
            28.0800018311 19.6399993896 22.7899932861 30.3600006104 0.529998779297 vhcurveto
            181.089996338 -506.820007324 hlineto
            -30.0299987793 -0.600006103516 -26.0299987793 -24.1799926758 -32.0599975586 hhcurveto
            55 callsubr
            -0.149993896484 -10 rlineto
            206.080001831 hlineto
            -0.149993896484 10 rlineto
            55 callsubr
            -31.6199951172 -25.7200012207 23.5200042725 29.4600067139 -1.28999328613 hvcurveto
            508.059997559 180.960006714 vlineto
            30.3600006104 -0.539993286133 19.6399993896 -22.7899932861 0.0299987792969 -28.0800018311 rrcurveto
            -15.3699951172 vlineto
            10.6499938965 -0.130004882812 rlineto
            112.61000061 vlineto
            -6.88000488281 -17.3500061035 -54.6300048828 -8.80999755859 -39.7200012207 hhcurveto
            return
          </CharString>
          <CharString index="41">
            rmoveto
            -22.7400054932 -204.789993286 -120.13999939 -70.6999969482 -141.990005493 -0.419998168945 rrcurveto
            -168.130004883 4.07000732422 -114 131 201 vvcurveto
            199 112 133 175.809997559 vhcurveto
            120.190002441 -0.0700073242188 98 -62 30.3800048828 -116.740005493 rrcurveto
            8.32000732422 hlineto
            -20.1799926758 141.240005493 rlineto
            38.5299987793 -58.5299987793 -80 29 -98 hhcurveto
            -220 -143 -146 -217 -221 148 -143 209.130004883 -1 hvcurveto
            138.86000061 89.4499969482 62.8000030518 86.1399993896 52.6999969482 hvcurveto
            12.1900024414 156.949996948 rlineto
            endchar
          </CharString>
          <CharString index="42">
            518.589996338 709 rmoveto
            -31.7400054932 -14.9600067139 -52.5500030518 -41.3000030518 -56.8899993896 4.33000183105 -49.3300018311 3.75 -27.4499969482 35.2400054932 -48.8300018311 13.1600036621 rrcurveto
            3.25 -10.7700042725 -11.7700042725 1.66999816895 -12.6699981689 hhcurveto
            -82.5599975586 -2.36999511719 -66.1199951172 -66.8000030518 -18.9700012207 -107.600006104 rrcurveto
            -109.600006104 -19.3300018311 44.3600006104 -67.1799926758 80.2799987793 hhcurveto
            80.2799987793 68.0500030518 67.1799926758 109.600006104 19.3300018311 hvcurveto
            8.94000244141 50.7299957275 -4.69999694824 41.6399993896 -15.5899963379 30.1000061035 20.6600036621 -10.6600036621 21.4100036621 -9.47999572754 23.7700042725 -1.88000488281 50.6699981689 -4 38.8200073242 25.4499969482 33.2299957275 17.1999969482 -356.36000061 -676.460006714 rcurveline
            25.6999969482 -11 372.350006104 711 rlineto
            -272.029998779 -162.63999939 rmoveto
            -53 callsubr
            261.880004883 -198.119995117 rmoveto
            -80.2799987793 -68.0500030518 -67.1799926758 -109.600006104 -19.3300018311 hvcurveto
            -109.600006104 -19.3300018311 44.3600006104 -66.8600006104 80.2799987793 hhcurveto
            80.2799987793 68.0500030518 66.8600006104 109.600006104 19.3300018311 hvcurveto
            109.600006104 19.3300018311 -44.3600006104 67.1799926758 -80.2799987793 hhcurveto
            return
          </CharString>
          <CharString index="43">
            rmoveto
            -53.3699951172 -40.4299926758 -31.1100006104 -43.8500061035 -43.8500061035 40.4299926758 -31.1100006104 53.3699951172 53.3699951172 40.4299926758 31.1100006104 43.8500061035 47.1600036621 -40.4299926758 27.8000030518 -53.3699951172 hvcurveto
            -17.1600036621 vmoveto
            27.6499938965 21.3600006104 -20.6000061035 -37.2100067139 -37.2100067139 -21.3600006104 -20.6000061035 -27.6499938965 -27.6499938965 -21.3600006104 20.6000061035 37.2100067139 37.2100067139 21.3600006104 20.6000061035 27.6499938965 hvcurveto
            return
          </CharString>
          <CharString index="44">
            rmoveto
            -10 hlineto
            -114.179992676 118.850006104 6 8 113.63999939 -66.1000061035 104.660003662 66 6 -8 rlineto
            return
          </CharString>
          <CharString index="45">
            5 -10 35.6300048828 15 46.6399993896 -6 1.5 -42 rlinecurve
            -48 1.74000549316 -50.75 -16 -41.0200042725 hhcurveto
            -0.729995727539 -10 67.0200042725 -21 75.7400054932 31 -2 63 rlinecurve
            -2.16999816895 69 -67.6900024414 1 -34.9900054932 -12 return
          </CharString>
          <CharString index="46">
            rmoveto
            10 hlineto
            114.179992676 -118.850006104 -6 -8 -113.63999939 66.1000061035 -104.660003662 -66 -6 8 rlineto
            return
          </CharString>
          <CharString index="47">
            -20.5399932861 53.6199951172 -31.4299926758 53.6199951172 -28.4299926758 53.6199951172 -25.4299926758 rrcurveto
            return
          </CharString>
          <CharString index="48">
            160.080001831 410.25 -102 callsubr
            return
          </CharString>
          <CharString index="49">
            rmoveto
            0.169998168945 71 callsubr
            12.2400054932 hlineto
            31.3899993896 24.7299957275 -22.3800048828 -31.5599975586 1.0299987793 hvcurveto
            -471.880004883 vlineto
            -29.7799987793 -0.880004882812 -23.6999969482 -24.5 -31.5200042725 hhcurveto
            -13.3099975586 hlineto
            -0.169998168945 -10 rlineto
            333.559997559 hlineto
            197.229995728 124.279998779 113.869995117 185.779998779 186.160003662 -124.279998779 114.100006104 -197.229995728 hvcurveto
            -198.869995117 -30.0399932861 rmoveto
            199.369995117 hlineto
            153.520004272 95.1900024414 -102.690002441 -167.550003052 -166.949996948 -95.1600036621 -102.320007324 -153.550003052 hvcurveto
            -199.369995117 hlineto
            endchar
          </CharString>
          <CharString index="50">
            rmoveto
            -47 callsubr
            -9.91000366211 -39 callsubr
            33.0800018311 30.6199951172 -25.0599975586 -32.1600036621 hvcurveto
            -560.13999939 vlineto
            -34.7700042725 -0.729995727539 -28.3699951172 -27.9799957275 -34.9600067139 hhcurveto
            -12.6499938965 38 callsubr
            -10 rlineto
            338.539993286 hlineto
            213.589996338 145.550003052 139.899993896 209.759994507 210.179992676 -145.550003052 140.089996338 -213.589996338 68 callsubr
            -30.0399932861 rmoveto
            6 callsubr
            170.399993896 113.740005493 -128.089996338 -192.13999939 -191.559997559 -112.740005493 -127.710006714 -171.399993896 hvcurveto
            65 callsubr
            endchar
          </CharString>
          <CharString index="51">
            hlineto
            -69 callsubr
            return
          </CharString>
          <CharString index="52">
            50 201.919998169 627.820007324 rmoveto
            34.5500030518 -86 callsubr
            218.789993286 -7 callsubr
            -35 -28.3999938965 28.0500030518 34.8300018311 -0.649993896484 hvcurveto
            97.7799987793 299.429992676 rmoveto
            235.61000061 271.88999939 25.8200073242 28.9199981689 39.0099945068 17.7700042725 42.8999938965 0.100006103516 rlinecurve
            4.38000488281 9.02000427246 -211.229995728 -8.83999633789 9.66000366211 hlineto
            27.4700012207 13.6100006104 -24.9299926758 -22.3099975586 -17 hvcurveto
            -235.86000061 -295.740005493 240.690002441 -291.399993896 45.9299926758 -53.5899963379 76.6100006104 -2.9700012207 28.1399993896 -0.0899963378906 rlinecurve
            42.2799987793 9.94000244141 hlineto
            -40.6499938965 1.0299987793 -26.4499969482 12.4299926758 -27.3600006104 27.3600006104 rrcurveto
            return
          </CharString>
          <CharString index="53">
            rmoveto
            -26.8200073242 -10 -36.5099945068 -26.8200073242 -46.5099945068 hhcurveto
            -46.5099945068 -36.5099945068 26.8200073242 26.8200073242 -10 hvcurveto
            -10 hlineto
            -56.2599945068 47.0899963379 -47.3800048828 55.9199981689 55.9199981689 47.0899963379 47.3800048828 56.2599945068 vhcurveto
            return
          </CharString>
          <CharString index="54">
            -97 -17.1000061035 -42.1600036621 -59.4499969482 -51.6900024414 hhcurveto
            -51.6900024414 -21.1999969482 59.4499969482 97 17.1000061035 hvcurveto
            97 17.1000061035 42.1600036621 59.4499969482 51.6900024414 hhcurveto
            51.6900024414 21.1999969482 -59.4499969482 -97 -17.1000061035 hvcurveto
            return
          </CharString>
          <CharString index="55">
            -39 callsubr
            34.8600006104 28.3099975586 -27.8300018311 -34.6399993896 0.869995117188 hvcurveto
            -554.740005493 vlineto
            -34.8300018311 -0.660003662109 -28.3999938965 -28.0500030518 -35 hhcurveto
            -12.6499938965 38 callsubr
            -10 rlineto
            218.789993286 -56 callsubr
            return
          </CharString>
          <CharString index="56">
            -0.190002441406 10 rlineto
            -13.3399963379 hlineto
            -36.75 -29.9400024414 23.7299957275 29.6399993896 -1.17999267578 hvcurveto
            474.240005493 vlineto
            29.1999969482 1.77000427246 29.6900024414 23.2299957275 36.3600006104 hhcurveto
            13.4700012207 10 -226.539993286 hlineto
            0.190002441406 -10 rlineto
            13.3399963379 hlineto
            37.2200012207 30.0399932861 -24.1799926758 -30.0299987793 0.759994506836 hvcurveto
            -471.679992676 vlineto
            -30 -0.759994506836 -30.0200042725 -24.1499938965 -37.1900024414 hhcurveto
            -13.3399963379 hlineto
            -0.190002441406 -10 rlineto
            return
          </CharString>
          <CharString index="57">
            26.3099975586 -1.03999328613 21.0200042725 -21.6300048828 -26.5800018311 vvcurveto
            -14.7299957275 vlineto
            return
          </CharString>
          <CharString index="58">
            271 707.410003662 613.699996948 rmoveto
            -9.5 hlineto
            -255.229995728 -507.589996338 -264.039993286 507.899993896 rlineto
            -9.82000732422 hlineto
            -77.3800048828 -547.289993286 rlineto
            -35.7799987793 -4.80999755859 -30.0899963379 -20.9299926758 -33.5899963379 hhcurveto
            -14.9600067139 -10 185.490005493 9.44999694824 -14.6399993896 hlineto
            -20.2599945068 0.0399932861328 -18.6900024414 17.9299926758 2.30999755859 20.7299957275 44.8899993896 402.490005493 rcurveline
            240.86000061 -464.649993896 rlineto
            9.78999328613 hlineto
            6.88000488281 41.3899993896 28.6799926758 60.7200012207 0 vvcurveto
            188.369995117 371.63999939 52.5800018311 -411.600006104 2.75999450684 -21.6000061035 -19.1399993896 -17.0599975586 -20.2599945068 -0.0399932861328 rlinecurve
            -14.6399993896 -9.44000244141 207.770004272 9.99000549316 -14.9600067139 hlineto
            -33.0099945068 -29.6300048828 20.1900024414 34.6199951172 -5.58999633789 hvcurveto
            endchar
          </CharString>
          <CharString index="59">
            rmoveto
            6.66999816895 hlineto
            56.1799926758 -1.94000244141 28.1999969482 19.4900054932 50.5599975586 hhcurveto
            41.4900054932 28.4299926758 -25.3000030518 -39.9600067139 0.860000610352 hvcurveto
            -59.1100006104 1.27000427246 -53.4799957275 -34.5700073242 -63.1799926758 hhcurveto
            -1.2200012207 5 callsubr
            rlineto
            79.6499938965 50.2799987793 -22.8800048828 -62.4199981689 -97.4400024414 -81.7599945068 -49.6699981689 -105.820007324 2.66999816895 hvcurveto
            -1.33000183105 5 callsubr
            rlineto
            134.75 -26.6699981689 106.820007324 61 118.770004272 vvcurveto
            50.6699981689 -49.6000061035 35.4400024414 -50.1900024414 6.77000427246 vhcurveto
            42.6000061035 8.0299987793 43.8600006104 38.9600067139 42.0800018311 vvcurveto
            53.9499969482 -52.9799957275 37.9799957275 -70.4700012207 -0.990005493164 vhcurveto
            -46.8300018311 -0.649993896484 -30.1300048828 -14.8099975586 -18.1100006104 -22.0700073242 rrcurveto
            return
          </CharString>
          <CharString index="60">
            0.160003662109 return
          </CharString>
          <CharString index="61">
            12.6499938965 hlineto
            return
          </CharString>
          <CharString index="62">
            hhcurveto
            12.6499938965 57 callsubr
            10 rlineto
            return
          </CharString>
          <CharString index="63">
            rmoveto
            -69.2799987793 -2.19000244141 -57.0700073242 -73.3800048828 34.4499969482 -82.6100006104 17.9299926758 -42.8699951172 51.6199951172 2.17999267578 13.5099945068 30.6900024414 11.8800048828 26.9799957275 -22.4100036621 18.5599975586 -13.8099975586 16.5299987793 -18.1300048828 21.7700042725 -10.5500030518 54.7599945068 64.4600067139 20.8099975586 rrcurveto
            return
          </CharString>
          <CharString index="64">
            -0.160003662109 return
          </CharString>
          <CharString index="65">
            rmoveto
            -1.33000183105 58.9299926758 44.1300048828 33.8899993896 52.9799957275 1.17999267578 rrcurveto
            54.5700073242 1.21000671387 39.3899993896 -37.0599975586 -63.8600006104 vvcurveto
            -102.649993896 -139.63999939 -100.179992676 -77.8099975586 -71.7899932861 vhcurveto
            5 callsubr
            273.669998169 vlineto
            31.8099975586 98.0899963379 rlineto
            5 callsubr
            hlineto
            -42.25 -23.4499969482 -15.0099945068 -14.2700042725 -39.6199951172 hhcurveto
            -137.429992676 hlineto
            65.8699951172 47.6300048828 122.940002441 80.7400054932 114.029998779 vvcurveto
            73.2200012207 -66.0500030518 48.8200073242 -82.5700073242 -42.5500030518 -46.0599975586 -18.1900024414 -25.3399963379 -25.3899993896 vhcurveto
            11.5700073242 -75.4700012207 rlineto
            endchar
          </CharString>
          <CharString index="66">
            -24.2599945068 -23.5800018311 -32.2599945068 hhcurveto
            -13.7299957275 hlineto
            -0.179992675781 -10 rlineto
            406.240005493 hlineto
            55.1199951172 143.449996948 rlineto
            return
          </CharString>
          <CharString index="67">
            -8 callsubr
            -29.9199981689 -24.3300018311 23.7899932861 29.6799926758 -0.949996948242 hvcurveto
            return
          </CharString>
          <CharString index="68">
            rlineto
            -46 callsubr
            return
          </CharString>
          <CharString index="69">
            1.32000732422 -116 142.470001221 -3 30.2200012207 82 -6 6 rcurveline
            -49.1300048828 -51 -70.8399963379 36 -2 57 return
          </CharString>
          <CharString index="70">
            -71 505.589996338 143.449996948 -85 callsubr
            return
          </CharString>
          <CharString index="71">
            rmoveto
            26.6900024414 25.8999938965 16.8800048828 21.1900024414 44.6600036621 -7.88999938965 53.9799957275 -9.5299987793 45.4299926758 -39.2200012207 64.5800018311 -11.25 60.7299957275 -10.5800018311 45.5599975586 54.1399993896 16.5500030518 16.4299926758 -26.3200073242 24.8399963379 rcurveline
            -23.1000061035 -17.7700042725 -35.1300048828 -29.4900054932 -38.2799987793 7.41999816895 -46.8500061035 9.08999633789 -52.3099975586 42.0800018311 -64.8300018311 8.83999633789 -54.4199981689 7.41999816895 -41.5899963379 -42.3800048828 -18.8899993896 -25.0399932861 rrcurveto
            return
          </CharString>
          <CharString index="72">
            rmoveto
            14 47 rlineto
            5 callsubr
            hlineto
            -9.25999450684 -8 -3.86999511719 -4.07000732422 -24.5599975586 hhcurveto
            -29.0099945068 241.490005493 -6.24000549316 hlineto
            -220.190002441 -268.490005493 rlineto
            5 callsubr
            182.100006104 -89.6100006104 vlineto
            -19.9400024414 -0.75 -16.3999938965 -14.6300048828 -19.6300048828 hhcurveto
            -7.27000427246 5 callsubr
            132.63999939 6.66999816895 -7.27000427246 hlineto
            -19.8500061035 -16.7799987793 15.8399963379 19.8600006104 -0.169998168945 hvcurveto
            88.4799957275 vlineto
            -172.470001221 33.6699981689 rmoveto
            128.130004883 159.600006104 rlineto
            -159.600006104 vlineto
            endchar
          </CharString>
          <CharString index="73">
            -24.8500061035 return
          </CharString>
          <CharString index="74">
            rmoveto
            218.059997559 232.940002441 23.7299957275 23.4900054932 34.9400024414 12.6600036621 38.3200073242 0.0800018310547 rlinecurve
            4.0299987793 9.80000305176 -203.240005493 -9.80000305176 8.88999938965 hlineto
            23.1900024414 13.3999938965 -21.1399993896 -17.7299957275 -14.7100067139 hvcurveto
            -215.009994507 -253.149993896 219.410003662 -241.399993896 47.0500030518 -53.5899963379 69.7299957275 -2.96000671387 30.1600036621 -0.100006103516 rlinecurve
            37.5800018311 9.94000244141 hlineto
            -43.5700073242 1.0299987793 -20.25 12.4299926758 -23.7599945068 27.3600006104 rrcurveto
            return
          </CharString>
          <CharString index="75">
            rmoveto
            29.2599945068 1.5 25.7299957275 23.3099975586 31.5899963379 hhcurveto
            11.6399993896 hlineto
            -12 callsubr
            9.97999572754 rlineto
            -205.259994507 hlineto
            -12 callsubr
            -9.97999572754 rlineto
            11.6300048828 hlineto
            32.1900024414 26.1100006104 -24.1799926758 -30.0299987793 0.600006103516 hvcurveto
            -471.740005493 vlineto
            -29.9700012207 -0.639999389648 -26.0800018311 -24.1199951172 -32.1399993896 hhcurveto
            -11.6300048828 hlineto
            -0.149993896484 -10 rlineto
            205.259994507 hlineto
            -0.149993896484 10 rlineto
            -11.6399993896 hlineto
            -31.9100036621 -25.9299926758 23.7700042725 29.6699981689 -1.02000427246 hvcurveto
            return
          </CharString>
          <CharString index="76">
            -74 callsubr
            endchar
          </CharString>
          <CharString index="77">
            24.8500061035 return
          </CharString>
          <CharString index="78">
            -28.3999938965 -28.0500030518 -35 hhcurveto
            -12.6499938965 38 callsubr
            -10 rlineto
            414.559997559 hlineto
            58.2899932861 15 callsubr
            rlineto
            return
          </CharString>
          <CharString index="79">
            rmoveto
            65.9900054932 2.08999633789 54.3500061035 69.8899993896 -32.8099975586 78.6799926758 -17.0800018311 40.8300018311 -49.1600036621 -2.08000183105 -12.8699951172 -29.2299957275 -11.3099975586 -25.6900024414 21.3399963379 -17.6699981689 return
          </CharString>
          <CharString index="80">
            rmoveto
            6.66999816895 13.9400024414 vlineto
            20.1000061035 16.7200012207 16.1100006104 20 hvcurveto
            281.270004272 vlineto
            21.4700012207 -10.5899963379 11.1999969482 -20.0899963379 vhcurveto
            -25.1600036621 6.66999816895 hlineto
            34.6699981689 4.67999267578 33.2100067139 7.08000183105 25.9900054932 30.8999938965 rrcurveto
            6.66999816895 -363.699996948 hlineto
            -19.8000030518 16.8500061035 -15.8699951172 19.9499969482 vhcurveto
            13.9400024414 5 callsubr
            hlineto
            return
          </CharString>
          <CharString index="81">
            700.059997559 rmoveto
            -47 callsubr
            -10 -39 callsubr
            35 28.3999938965 -28.0500030518 -34.8300018311 0.660003662109 hvcurveto
            -624.270004272 vlineto
            0.00999450683594 -85.9199981689 -51.4600067139 -85 -65.5 -23 rrcurveto
            -9 vlineto
            102.009994507 80.1499938965 88 112.100006104 hvcurveto
            627.330001831 vlineto
            34.7299957275 0.770004272461 28.3500061035 27.9299926758 34.9199981689 -45 callsubr
            endchar
          </CharString>
          <CharString index="82">
            600 rmoveto
            -47 callsubr
            -10.2700042725 rlineto
            12.8500061035 hlineto
            33.9700012207 27.8399963379 -22.0599975586 -28.1499938965 3.00999450684 hvcurveto
            -539.539993286 vlineto
            -0.00999450683594 -74 -55.4199981689 -74 -63.8800048828 -20 rrcurveto
            -10 vlineto
            98.5099945068 84.6799926758 81 97 hvcurveto
            535.809997559 vlineto
            30.0299987793 0.710006713867 28.8500061035 24.1799926758 35.5599975586 hhcurveto
            12.8500061035 77 callsubr
          </CharString>
          <CharString index="83">
            -25.8000030518 -24.1399993896 -31.8399963379 24 callsubr
            -31.5800018311 -25.6799926758 23.7799987793 29.6799926758 -0.990005493164 hvcurveto
            217.619995117 369.070007324 -217.669998169 vlineto
            -29.6600036621 -1.02000427246 -25.6699981689 -23.75 -31.5599975586 14 callsubr
            return
          </CharString>
          <CharString index="84">
            rmoveto
            62.6399993896 35.3399963379 15.6699981689 127.119995117 -1.67999267578 51.5399932861 -70 -14 rcurveline
            5.41000366211 -72.6699981689 -2.4700012207 -34.4199981689 -18.5899963379 -87.6699981689 rrcurveto
            return
          </CharString>
          <CharString index="85">
            -47 callsubr
            -9.94000244141 -39 callsubr
            return
          </CharString>
          <CharString index="86">
            rmoveto
            52.2799987793 1.64999389648 43.0599975586 55.3699951172 -25.9900054932 62.3300018311 -13.5299987793 32.3500061035 -38.9499969482 -1.64999389648 7 callsubr
            -23.1600036621 -8.96000671387 -20.3600006104 16.9100036621 -14 10.4199981689 -12.4700012207 13.6799926758 -16.4299926758 7.96000671387 -41.3200073242 -48.6399993896 -15.6999969482 rrcurveto
            return
          </CharString>
          <CharString index="87">
            rmoveto
            63.2599945068 2 52.1100006104 67 -31.4499969482 75.4299926758 -16.3699951172 39.1399993896 -47.1300048828 -1.99000549316 -12.3399963379 -28.0200042725 -10.8399963379 -24.6300048828 20.4600067139 -16.9499969482 12.6100006104 -15.0899963379 16.5599975586 -19.8800048828 9.63000488281 -50 -58.8500061035 -19 rrcurveto
            endchar
          </CharString>
          <CharString index="88">
            rmoveto
            72.75 2 59.9199981689 77 -36.1699981689 87.0200042725 -18.8300018311 45.0099945068 -54.1999969482 -2.28999328613 -14.1900024414 -32.2200012207 -12.4700012207 -28.3300018311 23.5299987793 -19.4900054932 14.5 -17.3600006104 19.0399932861 -23.3399963379 11.0800018311 -57 -67.6799926758 -22 rrcurveto
            return
          </CharString>
          <CharString index="89">
            -34 callsubr
            -34 callsubr
            return
          </CharString>
          <CharString index="90">
            -30 callsubr
            -30 callsubr
            return
          </CharString>
          <CharString index="91">
            -2 callsubr
            -10 rlineto
            return
          </CharString>
          <CharString index="92">
            vlineto
            85.0599975586 47.2599945068 -61.2299957275 -91.8500061035 2.5 hvcurveto
            0.600006103516 -22.1100006104 -2.55999755859 -24.1300048828 -4.44000244141 -14.0800018311 rrcurveto
            -45.1300048828 -143.229995728 -164.509994507 35.4900054932 0 vvcurveto
            0.119995117188 -9.44999694824 rlineto
            125.470001221 -66.1300048828 return
          </CharString>
          <CharString index="93">
            714 rmoveto
            24.1399993896 -16.8500061035 -477.979995728 -711.149993896 -24.5099945068 16.0800018311 rlineto
            return
          </CharString>
          <CharString index="94">
            hlineto
            -46.9199981689 -10.1000061035 -35.5800018311 -34.5500030518 0.509994506836 -44.3500061035 -38 callsubr
            -1.32000732422 37.9900054932 20.3899993896 27 55.3999938965 13.0099945068 rrcurveto
            endchar
          </CharString>
          <CharString index="95">
            0.149993896484 return
          </CharString>
          <CharString index="96">
            vlineto
            29.2599945068 1.47999572754 25.4799957275 23.3000030518 31.25 hhcurveto
            11.5200042725 hlineto
            0.119995117188 10 rlineto
            -203.779998779 hlineto
            47 callsubr
            70 callsubr
            31.8699951172 25.8200073242 -24.1799926758 -30.0299987793 0.610000610352 hvcurveto
            return
          </CharString>
          <CharString index="97">
            vlineto
            29.1900024414 1.58000183105 25.4499969482 23.2299957275 31.1999969482 hhcurveto
            11.4900054932 39 callsubr
            -203.779998779 hlineto
            47 callsubr
            70 callsubr
            31.8399963379 25.8500061035 -24.1799926758 -30.0299987793 0.580001831055 hvcurveto
            return
          </CharString>
          <CharString index="98">
            -83 callsubr
            endchar
          </CharString>
          <CharString index="99">
            -10.8999938965 hlineto
            return
          </CharString>
          <CharString index="100">
            38 callsubr
            10 rlineto
            -12.6499938965 hlineto
            return
          </CharString>
          <CharString index="101">
            40.3899993896 -10.25 44.6100006104 -39.9799957275 36.9100036621 return
          </CharString>
          <CharString index="102">
            -15.7400054932 17.2700042725 -20.7400054932 10.0500030518 -52.1499938965 -61.3899993896 -19.8200073242 rrcurveto
            return
          </CharString>
          <CharString index="103">
            rmoveto
            -9 5 118.800003052 197.039993286 -117.800003052 192.960006714 8 5 174.800003052 -197.960006714 rlineto
            return
          </CharString>
          <CharString index="104">
            rmoveto
            8 -5 -117.800003052 -192.960006714 118.800003052 -197.039993286 -9 -5 -174.800003052 202.039993286 rlineto
            return
          </CharString>
          <CharString index="105">
            hlineto
            -0.139999389648 return
          </CharString>
          <CharString index="106">
            401.720001221 45 -401.720001221 hlineto
            return
          </CharString>
          <CharString index="107">
            rmoveto
            250 35 -250 hlineto
            return
          </CharString>
          <CharString index="108">
            -214.559997559 14.8099975586 -41.8999938965 -45.0599975586 14.9199981689 -154.630004883 17.6199951172 -14 -37.6600036621 14 -37.3399963379 154.630004883 17.3800048828 return
          </CharString>
          <CharString index="109">
            10.8800048828 return
          </CharString>
          <CharString index="110">
            10.8999938965 return
          </CharString>
          <CharString index="111">
            -185.839996338 return
          </CharString>
          <CharString index="112">
            -6.66999816895 return
          </CharString>
          <CharString index="113">
            196.550003052 hlineto
            return
          </CharString>
          <CharString index="114">
            -10.1900024414 return
          </CharString>
          <CharString index="115">
            211.550003052 hlineto
            26.8000030518 -0.529998779297 21.5700073242 -21.8399963379 -26.9199981689 62 callsubr
            return
          </CharString>
          <CharString index="116">
            -196.550003052 return
          </CharString>
          <CharString index="117">
            rmoveto
            -401.720001221 -191 rlineto
            -45 vlineto
            401.720001221 -191 rlineto
            48 vlineto
            -342.419998169 165.710006714 342.419998169 165.289993286 rlineto
            return
          </CharString>
          <CharString index="118">
            -0.149993896484 10 rlineto
            21 callsubr
            -31.5 -25.6300048828 23.6600036621 29.5800018311 -1.13999938965 hvcurveto
            return
          </CharString>
          <CharString index="119">
            vlineto
            -30 -0.580001831055 -24.4600067139 -24 -30.1399993896 hhcurveto
            -10.8999938965 -16 callsubr
            6 callsubr
            return
          </CharString>
          <CharString index="120">
            178.36000061 -45 -178.36000061 -178.36000061 -45 178.36000061 -178.36000061 45 178.36000061 178.36000061 return
          </CharString>
          <CharString index="121">
            hhcurveto
            21 callsubr
            -0.149993896484 -10 rlineto
            return
          </CharString>
          <CharString index="122">
            161.539993286 return
          </CharString>
          <CharString index="123">
            -227 34 291.5 rmoveto
            6 -22.5 rlineto
            300 hlineto
            6 22.5 -6 22.5 rlineto
            -300 hlineto
            endchar
          </CharString>
          <CharString index="124">
            hmoveto
            -69 callsubr
            return
          </CharString>
          <CharString index="125">
            -14 37.6600036621 -155.75 -17.5599975586 -44.5599975586 -14.9900054932 15.1900024414 41.9199981689 return
          </CharString>
          <CharString index="126">
            rmoveto
            -48 vlineto
            342.419998169 -165.289993286 -342.419998169 -165.710006714 rlineto
            -48 vlineto
            401.720001221 191 rlineto
            45 vlineto
            return
          </CharString>
          <CharString index="127">
            10.0200042725 return
          </CharString>
          <CharString index="128">
            -11.4900054932 hlineto
            return
          </CharString>
          <CharString index="129">
            3 callsubr
            hlineto
            return
          </CharString>
          <CharString index="130">
            vlineto
            2 callsubr
            return
          </CharString>
          <CharString index="131">
            14 callsubr
            203.779998779 hlineto
            -0.149993896484 10 rlineto
            21 callsubr
            return
          </CharString>
          <CharString index="132">
            hlineto
            29.8699951172 -0.600006103516 19.1499938965 -22.7599945068 -28.0399932861 vvcurveto
            -15.3699951172 vlineto
            return
          </CharString>
          <CharString index="133">
            vlineto
            -18.5599975586 -7.82000732422 -57.5700073242 -9.96000671387 -43.1000061035 -0.410003662109 rrcurveto
            return
          </CharString>
          <CharString index="134">
            11 1 21.1600036621 hvcurveto
            2 28.2899932861 12.25 0 13.0899963379 hhcurveto
            1.7799987793 hlineto
            return
          </CharString>
          <CharString index="135">
            hlineto
            -30.3399963379 0.0599975585938 -17.1300048828 2.44000244141 -19.7400054932 2.83000183105 rrcurveto
            return
          </CharString>
          <CharString index="136">
            -11.6000061035 return
          </CharString>
          <CharString index="137">
            -18.4600067139 return
          </CharString>
          <CharString index="138">
            rmoveto
            19.4700012207 15.7899932861 15.7899932861 19.4700012207 19.4700012207 -15.7899932861 return
          </CharString>
          <CharString index="139">
            -15.4900054932 42.4799957275 44.8600006104 -15.1799926758 155.75 -17.4400024414 return
          </CharString>
          <CharString index="140">
            hlineto
            29.4799957275 23.6600036621 -24.6699981689 -29.5200042725 0.550003051758 hvcurveto
            return
          </CharString>
          <CharString index="141">
            vlineto
            28.8000030518 1.36999511719 23.3300018311 23.7700042725 28.9400024414 hhcurveto
            return
          </CharString>
          <CharString index="142">
            -63.3800048828 -35.1799926758 -22.5099945068 -21.3999938965 -59.4299926758 hhcurveto
            return
          </CharString>
          <CharString index="143">
            48 callsubr
            48 callsubr
            15.7899932861 -15.7899932861 19.4700012207 hvcurveto
            return
          </CharString>
          <CharString index="144">
            hlineto
            -38.2400054932 -216.880004883 rlineto
            32 hlineto
            38.2400054932 216.880004883 rlineto
            return
          </CharString>
          <CharString index="145">
            hlineto
            -43 callsubr
            return
          </CharString>
          <CharString index="146">
            hlineto
            -12 callsubr
            10 rlineto
            return
          </CharString>
          <CharString index="147">
            hhcurveto
            -212.660003662 -141.770004272 -145.600006104 -218.399993896 return
          </CharString>
          <CharString index="148">
            -146.589996338 -180.830001831 -180.830001831 -146.589996338 return
          </CharString>
          <CharString index="149">
            45.3699951172 15.0800018311 -15.1199951172 -42.3200073242 return
          </CharString>
          <CharString index="150">
            -26.0500030518 -33.1499938965 -33.1499938965 -26.0500030518 return
          </CharString>
          <CharString index="151">
            41.5700073242 51.2799987793 51.2799987793 41.5700073242 return
          </CharString>
          <CharString index="152">
            60.3500061035 61 callsubr
            return
          </CharString>
          <CharString index="153">
            0.139999389648 -10 rlineto
            return
          </CharString>
          <CharString index="154">
            -12 callsubr
            -10 rlineto
            return
          </CharString>
          <CharString index="155">
            -19.4700012207 return
          </CharString>
          <CharString index="156">
            -16.6499938965 hlineto
            return
          </CharString>
          <CharString index="157">
            214.559997559 -36.3600006104 14 -38.6399993896 -14 return
          </CharString>
          <CharString index="158">
            71.4700012207 return
          </CharString>
          <CharString index="159">
            -126.119995117 return
          </CharString>
          <CharString index="160">
            -71.4700012207 return
          </CharString>
          <CharString index="161">
            -126.119995117 76 callsubr
            return
          </CharString>
          <CharString index="162">
            29 callsubr
            hlineto
            return
          </CharString>
          <CharString index="163">
            vlineto
            10.0599975586 return
          </CharString>
          <CharString index="164">
            hlineto
            -47 callsubr
            return
          </CharString>
          <CharString index="165">
            30 callsubr
            hlineto
            return
          </CharString>
          <CharString index="166">
            16.6300048828 hlineto
            return
          </CharString>
          <CharString index="167">
            11.0299987793 return
          </CharString>
          <CharString index="168">
            700 rmoveto
            -47 callsubr
            -9.94000244141 rlineto
            return
          </CharString>
          <CharString index="169">
            vvcurveto
            -14.7299957275 vlineto
            10 -0.119995117188 rlineto
            return
          </CharString>
          <CharString index="170">
            35.8099975586 203.119995117 rlineto
            -32 hlineto
            return
          </CharString>
          <CharString index="171">
            126.119995117 return
          </CharString>
          <CharString index="172">
            9 callsubr
            hlineto
            return
          </CharString>
          <CharString index="173">
            vvcurveto
            200.449996948 return
          </CharString>
          <CharString index="174">
            15.9100036621 hlineto
            return
          </CharString>
          <CharString index="175">
            hvcurveto
            9 callsubr
            return
          </CharString>
          <CharString index="176">
            vlineto
            20 callsubr
            return
          </CharString>
          <CharString index="177">
            11.4900054932 hlineto
            return
          </CharString>
          <CharString index="178">
            -9.91000366211 rlineto
            return
          </CharString>
          <CharString index="179">
            81.1600036621 152.419998169 vvcurveto
            return
          </CharString>
          <CharString index="180">
            -36.1199951172 vvcurveto
            -76.1100006104 return
          </CharString>
          <CharString index="181">
            -362 700 -20 hstem
            100 45 vstem
            100 return
          </CharString>
          <CharString index="182">
            -30.5200042725 1.05000305176 return
          </CharString>
          <CharString index="183">
            52 callsubr
            52 callsubr
            return
          </CharString>
          <CharString index="184">
            57 callsubr
            10 rlineto
            endchar
          </CharString>
        <CharString name=".notdef">
          -357 endchar
        </CharString>
        <CharString name="A">
          105 -14 14 700 14 hstem
          359.410003662 714 -99 callsubr
        </CharString>
        <CharString name="AE">
          295 857.679992676 138.800003052 rmoveto
          -10 hlineto
          -26.0800018311 -62.3200073242 -47.8300018311 -45.0299987793 -78.7599945068 -0.860000610352 rrcurveto
          -164.429992676 289.630004883 170.039993286 hlineto
          -50 callsubr
          10 -0.119995117188 rlineto
          158.259994507 vlineto
          -10 -0.130004882812 rlineto
          -14.7299957275 vlineto
          -26.9199981689 -21.5800018311 -21.8399963379 -26.8000030518 -0.5 vhcurveto
          -169 319.160003662 8 callsubr
          112.929992676 26 callsubr
          -243.710006714 -10 4 hlineto
          18.75 10.8600006104 -17.2799987793 -17.2799987793 -7.88999938965 hvcurveto
          -373.990005493 -584.089996338 rlineto
          -31.6699981689 -19.8200073242 -39.2899932861 -29.6699981689 -33.1799926758 hhcurveto
          -7 -10 198.520004272 10 -9.44999694824 hlineto
          -30 -1.78999328613 -13.3300018311 30.3300018311 16.6900024414 28.6100006104 149.36000061 253.070007324 rcurveline
          163.759994507 -261.86000061 hlineto
          -26.8000030518 -0.509994506836 -21.8399963379 -21.5800018311 -26.9199981689 hhcurveto
          -9.72999572754 hlineto
          -0.119995117188 -10 rlineto
          394.119995117 hlineto
          1.44999694824 hlineto
          -482.5 350.220001221 rmoveto
          146.059997559 247.470001221 rlineto
          -247.470001221 vlineto
          endchar
        </CharString>
        <CharString name="Aacute">
          105 356.600006104 763.970001221 -105 callsubr
          9.82000732422 -56.9700012207 -99 callsubr
        </CharString>
        <CharString name="Abreve">
          105 449.880004883 867.729995728 -54 callsubr
          -100.460006714 -153.729995728 -99 callsubr
        </CharString>
        <CharString name="Acircumflex">
          105 351.460006714 889.740005493 -61 callsubr
          114.089996338 -56.9799957275 -99 callsubr
        </CharString>
        <CharString name="Adieresis">
          105 262.460006714 764.100006104 -104 callsubr
          -91.4199981689 -50.1000061035 -99 callsubr
        </CharString>
        <CharString name="Agrave">
          105 363.660003662 771 -87 callsubr
          2.75 -50 -99 callsubr
        </CharString>
        <CharString name="Amacron">
          105 234.479995728 795.36000061 0 callsubr
          124.929992676 -116.36000061 -99 callsubr
        </CharString>
        <CharString name="Aogonek">
          130 748.029998779 9.19000244141 rmoveto
          -8.80000305176 hlineto
          -29.7799987793 -35.2700042725 18.0099945068 40.8200073242 -18.3699951172 hvcurveto
          -283.059997559 645.979995728 rlineto
          -9.00999450684 hlineto
          -21.9900054932 -37.0299987793 -81.0099945068 0 vhcurveto
          -240.009994507 -538.080001831 rlineto
          -44.5500030518 -20.3000030518 -37.0099945068 -18.1600036621 -30.3999938965 hhcurveto
          -9 -10 201.240005493 9.89999389648 -8.78999328613 hlineto
          -25.7700042725 -26.7299957275 22.3600006104 39.8699951172 14.4100036621 hvcurveto
          70.8699951172 170.649993896 rlineto
          286.910003662 hlineto
          68.3899993896 -172.100006104 15.4799957275 -41.4900054932 -5.61999511719 -21.8200073242 -28.5700073242 -15.5899963379 rlinecurve
          -24.7700042725 -14 -24.9499969482 -27 0.399993896484 -35 1.32000732422 -116 145.470001221 -1 30.2200012207 82 -6 6 rcurveline
          -49.1300048828 -51 -74.8399963379 36 57 vvcurveto
          31 20.4199981689 33 42.3500061035 7 vhcurveto
          7.33000183105 42.7200012207 9.63999938965 -7.22999572754 83.3500061035 hhcurveto
          -520.339996338 272.899993896 rmoveto
          134.160003662 323.070007324 128.369995117 -323.070007324 rlineto
          endchar
        </CharString>
        <CharString name="Aring">
          105 364.559997559 701.669998169 rmoveto
          44.0399932861 3.16999816895 32.3399963379 27.1600036621 37.3500061035 vvcurveto
          42.7799987793 -36.6699981689 25.2200012207 -48.4100036621 -48.4100036621 -36.6699981689 -28.2200012207 -39.7799987793 -37.7100067139 32.9600067139 -27.3200073242 44.6799926758 -2.74000549316 vhcurveto
          -7.69999694824 -30.7899932861 -27.3300018311 -59.7899932861 0 vvcurveto
          -226.779998779 -538.11000061 rlineto
          -44.4600067139 -20.2200012207 -36.9700012207 -18.4299926758 -30.4100036621 hhcurveto
          -9 -10 201.279998779 9.91000366211 -8.78999328613 hlineto
          -25.6900024414 -26.6499938965 22.5299987793 39.6399993896 14.1100006104 hvcurveto
          66.9900054932 170.919998169 rlineto
          269.350006104 hlineto
          63.9600067139 -170.320007324 rlineto
          -40.0200042725 14.6000061035 -26.7799987793 -22.75 -25.8200073242 hhcurveto
          -8.78999328613 -9.91000366211 225.179992676 10 -8.36000061035 hlineto
          -30.6300048828 -36.9900054932 18.4499969482 44.5099945068 -20.2200012207 hvcurveto
          -315.339996338 696.399993896 rmoveto
          33.75 19.3699951172 18.6799926758 25.0800018311 25.0800018311 19.3699951172 -18.6799926758 -33.75 -33.75 -19.3699951172 -18.6799926758 -25.0800018311 -25.0800018311 -19.3699951172 18.6799926758 33.75 vhcurveto
          -88.3899993896 -496.350006104 rmoveto
          125.789993286 320.949996948 120.529998779 -320.949996948 rlineto
          endchar
        </CharString>
        <CharString name="Atilde">
          105 492.300003052 842.520004272 -80 callsubr
          -122.88999939 -128.520004272 -99 callsubr
        </CharString>
        <CharString name="B">
          -21 45 callsubr
          12.4900054932 hlineto
          34.8999938965 29.3000030518 -27.6000061035 -34.4799957275 hvcurveto
          -555.789993286 vlineto
          -34.5299987793 -1 -28.2599945068 -27.6999969482 -34.7799987793 hhcurveto
          -12.6499938965 38 callsubr
          -10 rlineto
          243.649993896 hlineto
          149.009994507 84 75 112.940002441 hvcurveto
          0.0899963378906 99.0599975586 -65 78 -106.449996948 15.8500061035 56.4499969482 16.1499938965 54 51 0.380004882812 84.8000030518 rrcurveto
          100.199996948 -0.380004882812 -77 67 -140.199996948 hhcurveto
          -56.4799957275 -663.529998779 rmoveto
          631.419998169 52.8600006104 vlineto
          94.8200073242 0.110000610352 51 -52 0.380004882812 -90.3999938965 -0.380004882812 -128.600006104 -104 -18 -60.9799957275 0.220001220703 0.229995727539 -9.41000366211 rcurveline
          96.7599945068 0.190002441406 129 -25 -0.0899963378906 -149.880004883 0.0899963378906 -101.119995117 -59 -58 -102.630004883 0.470001220703 rrcurveto
          endchar
        </CharString>
        <CharString name="C">
          153 702.009994507 291.850006104 -66 callsubr
        </CharString>
        <CharString name="Cacute">
          153 417.119995117 763.970001221 -105 callsubr
          291.880004883 -479.119995117 -66 callsubr
        </CharString>
        <CharString name="Ccaron">
          153 422.13999939 764.149993896 -63 callsubr
          173.729995728 -591.059997559 -66 callsubr
        </CharString>
        <CharString name="Ccedilla">
          153 702.009994507 291.850006104 rmoveto
          -22.7400054932 -204.789993286 -120.13999939 -70.6999969482 -141.990005493 -0.419998168945 rrcurveto
          -168.130004883 4.07000732422 -114 131 201 vvcurveto
          199 112 133 175.809997559 vhcurveto
          120.190002441 -0.0700073242188 98 -62 30.3800048828 -116.740005493 rrcurveto
          8.32000732422 hlineto
          -20.1799926758 141.240005493 rlineto
          38.5299987793 -58.5299987793 -80 29 -98 hhcurveto
          -220 -143 -146 -217 -216.509994507 142.050003052 -141.649993896 202.410003662 -6.61000061035 hvcurveto
          -44.25 -57.2400054932 -62 callsubr
          37.5200042725 43.2299957275 rcurveline
          130.61000061 4.22999572754 85.0399932861 61.3800048828 50.8399963379 83.1000061035 12.1900024414 156.949996948 rcurveline
          endchar
        </CharString>
        <CharString name="Cdotaccent">
          153 415.800003052 764.600006104 -76 callsubr
          286.210006714 -472.75 -66 callsubr
        </CharString>
        <CharString name="D">
          200 60.3500061035 699.970001221 -57 callsubr
        </CharString>
        <CharString name="Dcaron">
          200 404.199996948 764.149993896 -63 callsubr
          -449.979995728 -182.929992676 -57 callsubr
        </CharString>
        <CharString name="Dcroat">
          200 277.059997559 795.36000061 0 callsubr
          -216.710006714 -130.38999939 -57 callsubr
        </CharString>
        <CharString name="Delta">
          45 321 714 rmoveto
          -316 -704.419998169 rlineto
          -9.58000183105 642 10 vlineto
          -316 704 rlineto
          227.220001221 -684.419998169 rmoveto
          -509.679992676 hlineto
          258.529998779 582.210006714 rlineto
          endchar
        </CharString>
        <CharString name="E">
          -30 532.839996338 15 callsubr
          -107 callsubr
          414.559997559 hlineto
          endchar
        </CharString>
        <CharString name="Eacute">
          -30 298.240005493 763.970001221 -105 callsubr
          241.600006104 -609.429992676 -107 callsubr
          414.559997559 hlineto
          endchar
        </CharString>
        <CharString name="Ecaron">
          -30 303.270004272 764.149993896 -63 callsubr
          123.449996948 -721.369995117 -107 callsubr
          414.559997559 hlineto
          endchar
        </CharString>
        <CharString name="Ecircumflex">
          -30 293.11000061 889.740005493 -61 callsubr
          345.869995117 -609.440002441 -107 callsubr
          414.559997559 hlineto
          endchar
        </CharString>
        <CharString name="Edieresis">
          -30 204.11000061 764.100006104 -104 callsubr
          140.36000061 -602.550003052 -107 callsubr
          414.559997559 hlineto
          endchar
        </CharString>
        <CharString name="Edotaccent">
          -30 296.919998169 764.600006104 -76 callsubr
          235.919998169 -603.050003052 -107 callsubr
          414.559997559 hlineto
          endchar
        </CharString>
        <CharString name="Egrave">
          -30 305.309997559 771 -87 callsubr
          234.529998779 -602.460006714 -107 callsubr
          414.559997559 hlineto
          endchar
        </CharString>
        <CharString name="Emacron">
          -30 176.130004883 795.36000061 0 callsubr
          356.710006714 -668.820007324 -107 callsubr
          414.559997559 hlineto
          endchar
        </CharString>
        <CharString name="Eng">
          212 590.229995728 700 rmoveto
          0.130004882812 -12.9100036621 rlineto
          67 callsubr
          29.0800018311 23.5899963379 -23.3200073242 -28.9400024414 0.539993286133 hvcurveto
          -500.419998169 vlineto
          -544.580001831 580.570007324 rlineto
          -9.86000061035 hlineto
          0 9.21000671387 -56.6600036621 -68.2700042725 vvcurveto
          -525.429992676 vlineto
          -28.7899932861 -0.710006713867 -23.5299987793 -23.1399993896 -28.9700012207 hhcurveto
          -15.9100036621 hlineto
          -0.130004882812 -12.7200012207 rlineto
          183.850006104 hlineto
          -0.130004882812 12.7200012207 rlineto
          -15.9100036621 hlineto
          -29.0800018311 -23.5899963379 23.3200073242 28.9400024414 -0.550003051758 hvcurveto
          502.699996948 vlineto
          499.960006714 -534.330001831 rlineto
          -63.3200073242 vlineto
          -97 -45.6900024414 -47 -41.9199981689 -19 vhcurveto
          5.30999755859 -8 rlineto
          66.7599945068 14 60.9199981689 47 108 vvcurveto
          667.089996338 vlineto
          28.8399963379 0.630004882812 23.5399932861 23.1900024414 29.0099945068 hhcurveto
          67 callsubr
          0.130004882812 12.9100036621 rlineto
          endchar
        </CharString>
        <CharString name="Eogonek">
          -30 532.850006104 15 callsubr
          -107 callsubr
          375.61000061 -13 callsubr
        </CharString>
        <CharString name="Eth">
          200 65.2599945068 699.970001221 rmoveto
          -47 callsubr
          -9.91000366211 -39 callsubr
          33.0800018311 30.6199951172 -25.0599975586 -32.1600036621 hvcurveto
          -267.850006104 -81.7700042725 -30 81.7700042725 -262.289993286 vlineto
          -34.7700042725 -0.729995727539 -28.3699951172 -27.9799957275 -34.9600067139 hhcurveto
          -12.6499938965 38 callsubr
          -10 rlineto
          338.539993286 hlineto
          213.589996338 140.550003052 139.899993896 209.759994507 210.179992676 -140.550003052 140.089996338 -213.589996338 68 callsubr
          -364.960006714 rmoveto
          163.11000061 30 -163.11000061 304.919998169 6 callsubr
          170.399993896 113.740005493 -128.089996338 -192.13999939 -191.559997559 -113.740005493 -127.710006714 -170.399993896 hvcurveto
          65 callsubr
          endchar
        </CharString>
        <CharString name="Euro">
          126 673.479995728 153.979995728 rmoveto
          -98.2400054932 -18.8999938965 -68.4100036621 -38.8099975586 -123.350006104 hhcurveto
          -143.350006104 -116.440002441 112.869995117 153.809997559 -26.6100006104 hvcurveto
          379.160003662 hlineto
          10.5800018311 30 rlineto
          -393.720001221 hlineto
          -1.14999389648 12.2599945068 -0.589996337891 12.4700012207 12.6600036621 vvcurveto
          11.0200042725 0.449996948242 2 callsubr
          0.880004882812 10.7200012207 vhcurveto
          418.350006104 hlineto
          10.5800018311 30 rlineto
          -425.289993286 hlineto
          155.679992676 25.0700073242 117.320007324 114.779998779 144.779998779 hhcurveto
          72.8500061035 127.539993286 -17 -108.410003662 -23.6600036621 hvcurveto
          10 hlineto
          32.5200042725 96.0299987793 rlineto
          41.6799926758 -34.5200042725 -83.7799987793 17.6199951172 -100.949996948 hhcurveto
          -183.660003662 -148.5 -127.809997559 -172.580001831 -29.6000061035 hvcurveto
          -100.479995728 hlineto
          -10.5800018311 -30 rlineto
          107.169998169 hlineto
          -0.979995727539 -11.0599975586 -0.5 -11.2100067139 -11.3500061035 vvcurveto
          -12.3000030518 0.589996337891 -12.1399993896 1.16000366211 -11.9499969482 vhcurveto
          -96.8500061035 hlineto
          -10.5800018311 -30 rlineto
          111.580001831 hlineto
          -170.61000061 30.7799987793 147.850006104 -126 182.600006104 hhcurveto
          84.5099945068 92.1900024414 18.3800048828 43.6900024414 42.7899932861 hvcurveto
          1.16999816895 104.919998169 rlineto
          endchar
        </CharString>
        <CharString name="F">
          -66 471.800003052 718.190002441 rmoveto
          -18.5399932861 -7.82000732422 -57.5700073242 -9.96000671387 -43.1000061035 -0.410003662109 rrcurveto
          -292.229995728 hlineto
          -22 callsubr
          33.1000061035 30.6000061035 -25.0899963379 -32.1900024414 hvcurveto
          -559.929992676 vlineto
          -34.8300018311 -0.660003662109 -28.3999938965 -28.0500030518 -35 hhcurveto
          -12.6499938965 38 callsubr
          -10 rlineto
          218.779998779 -56 callsubr
          257.350006104 170.020004272 vlineto
          -50 callsubr
          9.77000427246 -0.119995117188 rlineto
          158.259994507 vlineto
          -9.77000427246 -0.130004882812 rlineto
          -14.7299957275 vlineto
          -26.9199981689 -21.5800018311 -21.8399963379 -26.7899932861 -0.5 vhcurveto
          -169 309.160003662 8 callsubr
          66.3600006104 vlineto
          17.2799987793 vlineto
          endchar
        </CharString>
        <CharString name="G">
          191 773.740005493 325.38999939 -79 callsubr
          endchar
        </CharString>
        <CharString name="Gbreve">
          191 512.63999939 867.729995728 -54 callsubr
          251.11000061 -542.339996338 -79 callsubr
          endchar
        </CharString>
        <CharString name="Gcommaaccent">
          191 773.740005493 325.38999939 -79 callsubr
          -373.149993896 -533.410003662 -84 callsubr
        </CharString>
        <CharString name="Gdotaccent">
          191 418.029998779 764.600006104 -76 callsubr
          355.710006714 -439.210006714 -79 callsubr
          endchar
        </CharString>
        <CharString name="H">
          206 753.080001831 17 callsubr
          554.330001831 vlineto
          34.8300018311 0.639999389648 28.3999938965 28.0500030518 35 hhcurveto
          12.6499938965 57 callsubr
          9.9700012207 rlineto
          -218.759994507 57 callsubr
          -9.9700012207 -39 callsubr
          34.5800018311 28.1300048828 -27.3800048828 -34.25 1.30999755859 hvcurveto
          -267.399993896 -409.220001221 266.759994507 vlineto
          34.5399932861 0.979995727539 28.2700042725 27.7200012207 34.7899932861 hhcurveto
          12.6499938965 57 callsubr
          9.9700012207 rlineto
          -218.759994507 57 callsubr
          -9.9700012207 -52 callsubr
          258.190002441 409.220001221 -258.960006714 vlineto
          -34.4799957275 -1.05000305176 -28.2400054932 -27.6399993896 -34.7400054932 hhcurveto
          -12.6499938965 38 callsubr
          -10 rlineto
          endchar
        </CharString>
        <CharString name="Hbar">
          171 735.779998779 17 callsubr
          425.25 66.1000061035 30 -66.1300048828 99.0899963379 vlineto
          34.8300018311 0.669998168945 28.3999938965 28.0500030518 35 -45 callsubr
          -218.759994507 57 callsubr
          -10 -39 callsubr
          34.5800018311 28.1300048828 -27.3800048828 -34.25 1.30999755859 hvcurveto
          -100.350006104 -409.220001221 99.7100067139 vlineto
          34.5399932861 0.979995727539 28.2700042725 27.7200012207 34.7899932861 -45 callsubr
          -218.759994507 57 callsubr
          -10 -39 callsubr
          34.8600006104 28.3099975586 -27.8300018311 -34.6499938965 0.869995117188 hvcurveto
          -99.5 -63.3000030518 -30 63.3000030518 -425.25 vlineto
          -34.8300018311 -0.660003662109 -28.3999938965 -28.0500030518 -35 hhcurveto
          -12.6499938965 38 callsubr
          -10 rlineto
          218.789993286 -56 callsubr
          258.190002441 409.220001221 -258.960006714 vlineto
          -34.4799957275 -1.05000305176 -28.2400054932 -27.6399993896 -34.7400054932 hhcurveto
          -12.6499938965 38 callsubr
          -10 rlineto
          -332.380004883 361.059997559 rmoveto
          137.050003052 409.220001221 -137.050003052 vlineto
          endchar
        </CharString>
        <CharString name="I">
          -269 278.630004883 10 rmoveto
          -96 callsubr
          218.789993286 hlineto
          endchar
        </CharString>
        <CharString name="IJ">
          55 278.630004883 10 rmoveto
          -96 callsubr
          218.789993286 hlineto
          119.300003052 -26 callsubr
        </CharString>
        <CharString name="Iacute">
          -269 169.240005493 763.970001221 -105 callsubr
          116.38999939 -760.970001221 rmoveto
          -96 callsubr
          218.789993286 hlineto
          endchar
        </CharString>
        <CharString name="Icircumflex">
          -269 164.100006104 889.740005493 -61 callsubr
          220.660003662 -760.979995728 rmoveto
          -96 callsubr
          218.789993286 hlineto
          endchar
        </CharString>
        <CharString name="Idieresis">
          -269 75.1000061035 764.100006104 -104 callsubr
          15.1499938965 -754.100006104 rmoveto
          -96 callsubr
          218.789993286 hlineto
          endchar
        </CharString>
        <CharString name="Idotaccent">
          -269 167.910003662 764.600006104 -76 callsubr
          110.710006714 -754.600006104 rmoveto
          -96 callsubr
          218.789993286 hlineto
          endchar
        </CharString>
        <CharString name="Igrave">
          -269 176.309997559 771 rmoveto
          -42.3200073242 46.6300048828 -42.3200073242 43.6300048828 -42.3200073242 40.6300048828 -15.6300048828 -14.5399932861 -14.6300048828 -17.5399932861 -10.6300048828 -60 callsubr
          109.320007324 -754 rmoveto
          -96 callsubr
          218.789993286 hlineto
          endchar
        </CharString>
        <CharString name="Imacron">
          -269 47.1300048828 795.36000061 0 callsubr
          231.5 -820.36000061 rmoveto
          -96 callsubr
          218.789993286 hlineto
          endchar
        </CharString>
        <CharString name="Iogonek">
          -269 278.789993286 hmoveto
          -0.160003662109 10 rlineto
          -96 callsubr
          89.4900054932 -13 callsubr
        </CharString>
        <CharString name="J">
          -283 60.0800018311 -26 callsubr
        </CharString>
        <CharString name="K">
          -55 callsubr
          endchar
        </CharString>
        <CharString name="Kcommaaccent">
          -55 callsubr
          -220.850006104 -258.910003662 -84 callsubr
        </CharString>
        <CharString name="L">
          -45 522.86000061 15 callsubr
          -31 callsubr
        </CharString>
        <CharString name="Lacute">
          -45 169.490005493 763.970001221 -105 callsubr
          360.369995117 -609.429992676 -31 callsubr
        </CharString>
        <CharString name="Lcaron">
          -45 363.720001221 561.539993286 -21 callsubr
          161.089996338 -406.61000061 -31 callsubr
        </CharString>
        <CharString name="Lcommaaccent">
          -45 522.86000061 15 callsubr
          -74 callsubr
          -259.419998169 -355.539993286 -84 callsubr
        </CharString>
        <CharString name="Ldot">
          -45 522.86000061 15 callsubr
          -74 callsubr
          -198.440002441 241.460006714 rmoveto
          -9 callsubr
        </CharString>
        <CharString name="Lslash">
          -45 522.86000061 15 callsubr
          rmoveto
          -76.1399993896 -30.8699951172 -40.6900024414 -54.8099975586 -105.960006714 hhcurveto
          -143.419998169 315.039993286 hlineto
          139.369995117 80.6199951172 -15.0200042725 25.9700012207 -124.350006104 -71.9299926758 rlineto
          246.789993286 vlineto
          34.8300018311 0.660003662109 28.3999938965 28.0500030518 35 -45 callsubr
          -218.779998779 57 callsubr
          -10 -39 callsubr
          35 28.3999938965 -28.0500030518 -34.8300018311 0.660003662109 hvcurveto
          -284.410003662 vlineto
          -119.130004883 -68.9199981689 15.0200042725 -25.9700012207 104.130004883 60.2299957275 rlineto
          -235.149993896 vlineto
          -34.8300018311 -0.660003662109 -29 callsubr
          endchar
        </CharString>
        <CharString name="M">
          324 749.740005493 713.699996948 rmoveto
          -9.13999938965 hlineto
          -272.820007324 -603.100006104 -279.080001831 603.399993896 rlineto
          -9.2799987793 hlineto
          -75.2200012207 -641.350006104 rlineto
          -39.5299987793 -5.13999938965 -32 -23.1199951172 -35.75 hhcurveto
          -15.9100036621 -10 193.669998169 9.44000244141 -15.5800018311 hlineto
          -21.5399932861 0.0500030517578 -19.3800048828 21.1000061035 1.94000244141 21.5500030518 43.8899993896 488.699996948 rcurveline
          255.740005493 -554.839996338 rlineto
          9.41999816895 hlineto
          6.44999694824 41.3899993896 27.8600006104 60.7200012207 0 vvcurveto
          210.160003662 467.240005493 45.3300018311 -503.199996948 1.94000244141 -21.5500030518 -19.3899993896 -21.1000061035 -21.5399932861 -0.0500030517578 rlinecurve
          -15.5800018311 -9.44000244141 217.380004883 10 -15.9100036621 hlineto
          -35.75 -32 23.1199951172 39.5299987793 -5.13000488281 hvcurveto
          endchar
        </CharString>
        <CharString name="N">
          234 590.229995728 700.020004272 -88 callsubr
          endchar
        </CharString>
        <CharString name="Nacute">
          234 425.830001831 763.970001221 -105 callsubr
          171.399993896 -70.9499969482 -88 callsubr
          endchar
        </CharString>
        <CharString name="Ncaron">
          234 430.850006104 764.149993896 -63 callsubr
          53.25 -182.88999939 -88 callsubr
          endchar
        </CharString>
        <CharString name="Ncommaaccent">
          234 590.229995728 700.020004272 -88 callsubr
          -404.300003052 -908.020004272 -84 callsubr
        </CharString>
        <CharString name="Ntilde">
          234 561.529998779 842.520004272 -80 callsubr
          38.6999969482 -142.5 -88 callsubr
          endchar
        </CharString>
        <CharString name="O">
          231 429.429992676 714 -95 callsubr
        </CharString>
        <CharString name="OE">
          355 932.38999939 15 callsubr
          rmoveto
          -10 hlineto
          -76.1399993896 -30.8699951172 -40.6900024414 -54.8099975586 -105.960006714 hhcurveto
          -147.440002441 299.630004883 174.059997559 hlineto
          -50 callsubr
          9.77000427246 -0.119995117188 rlineto
          158.259994507 vlineto
          -9.77000427246 -0.130004882812 rlineto
          -14.7299957275 vlineto
          -26.9199981689 -21.5800018311 -21.8399963379 -26.7899932861 -0.5 vhcurveto
          -173.029998779 309.160003662 205.88999939 hlineto
          31.2400054932 -1.89999389648 24.75 -25.8999938965 -31.7200012207 vvcurveto
          -17.8200073242 vlineto
          12.1000061035 -0.149993896484 rlineto
          108.080001831 vlineto
          18.1900024414 26 callsubr
          -158.330001831 28 callsubr
          4.91999816895 -34.3399963379 -48.4900054932 3.74000549316 -29.3300018311 40 callsubr
          -218.399993896 141.770004272 -145.600006104 212.660003662 36.2400054932 70.1699981689 27 callsubr
          276.679992676 hlineto
          -337.699996948 64.1999969482 rmoveto
          -32.6999969482 -69.1900024414 -15.5700073242 -52.7799987793 -169.660003662 -113.11000061 133.630004883 200.440002441 200.449996948 113.11000061 133.630004883 169.660003662 52.5899963379 69.3800048828 -11.3699951172 -37.1600036621 vhcurveto
          endchar
        </CharString>
        <CharString name="Oacute">
          231 428.929992676 763.970001221 -105 callsubr
          7.5 -56.9700012207 -95 callsubr
        </CharString>
        <CharString name="Ocircumflex">
          231 423.789993286 889.740005493 -61 callsubr
          111.770004272 -56.9799957275 -95 callsubr
        </CharString>
        <CharString name="Odieresis">
          231 334.800003052 764.100006104 -104 callsubr
          -93.7400054932 -50.1000061035 -95 callsubr
        </CharString>
        <CharString name="Ograve">
          231 426 771 -87 callsubr
          0.429992675781 -50 -95 callsubr
        </CharString>
        <CharString name="Ohungarumlaut">
          231 371.88999939 768.380004883 -77 callsubr
          -53.6799926758 -56.3800048828 -95 callsubr
        </CharString>
        <CharString name="Omacron">
          231 306.820007324 795.36000061 0 callsubr
          122.61000061 -116.36000061 -95 callsubr
        </CharString>
        <CharString name="Omega">
          201 742.88999939 139.800003052 rmoveto
          35 callsubr
          -129.949996948 hlineto
          161.679992676 53.3600006104 90.9499969482 179.179992676 98.6000061035 vvcurveto
          183.589996338 -150.210006714 144.25 -191.179992676 -199.949996948 -152.660003662 -144.25 -183.589996338 5.66000366211 vhcurveto
          3.03999328613 -98.6000061035 51.5899963379 -167.309997559 193.190002441 -65.25 rrcurveto
          -127.490005493 hlineto
          -59.4299926758 0.0200042724609 -22.5099945068 21.3999938965 -35.1799926758 63.3800048828 rrcurveto
          -10 hlineto
          47.7100067139 -139.800003052 rlineto
          237.149993896 65 hlineto
          -99.8800048828 57.7899932861 -108.199996948 110.669998169 152.699996948 vvcurveto
          166.789993286 121.210006714 131.050003052 154.270004272 156.880004883 120.050003052 -131.050003052 -166.789993286 -4.08999633789 vhcurveto
          -3.74000549316 -152.699996948 -115.419998169 -114.429992676 -93.8800048828 -54.0299987793 rrcurveto
          -65 239.759994507 vlineto
          47.7100067139 139.800003052 rlineto
          endchar
        </CharString>
        <CharString name="Oslash">
          221 724.699996948 699.580001831 rmoveto
          -25.3099975586 22.7599945068 -63.8999938965 -76.8399963379 rlineto
          43.9900054932 -58.4900054932 -75.3200073242 24.5099945068 -87.25 40 callsubr
          -113.25 38.1199951172 -93.6699981689 66.3600006104 -63.9499969482 hvcurveto
          -66.6300048828 -80.1300048828 25.0099945068 -22 66.8699951172 80.2799987793 rlineto
          -45.7400054932 58.9900054932 76.6399993896 -25.5500030518 89.0800018311 hhcurveto
          212.660003662 141.770004272 145.600006104 218.399993896 114.899993896 -39.2400054932 94.75 -68.1600036621 64 hvcurveto
          -462.36000061 -502.88999939 rmoveto
          -43.0700073242 57.5599975586 -24.3600006104 78.6399993896 93.0299987793 66 callsubr
          113.11000061 133.630004883 169.660003662 76.6799926758 65.1300048828 -27.3000030518 -48.4299926758 48.3500061035 vhcurveto
          22.6399993896 -25.7899932861 rmoveto
          44.6499938965 -57.8500061035 25.3200073242 -79.8800048828 -94.8399963379 vvcurveto
          -200.440002441 -113.11000061 -133.630004883 -169.660003662 -78.3899993896 -66.3200073242 28.5299987793 50.4600067139 -48.6699981689 vhcurveto
          endchar
        </CharString>
        <CharString name="Otilde">
          231 564.63999939 842.520004272 -80 callsubr
          -125.210006714 -128.520004272 -95 callsubr
        </CharString>
        <CharString name="P">
          -30 45 callsubr
          12.6499938965 hlineto
          33.2200012207 27.2700042725 -25.2700042725 -32.3600006104 3.25 hvcurveto
          -559.589996338 vlineto
          -34.8300018311 -0.690002441406 -28.3999938965 -28.0500030518 -35 hhcurveto
          -12.6499938965 38 callsubr
          -10 rlineto
          218.899993896 -56 callsubr
          597.13999939 115.279998779 -15 callsubr
          165.440002441 72 callsubr
          119.740005493 -78.3600006104 73.3899993896 -127.850006104 vhcurveto
          endchar
        </CharString>
        <CharString name="Q">
          230 1323.92999268 -84 rmoveto
          -123.419998169 -116 -214.300003052 4 -150.179992676 63 -135.470001221 58 -116.179992676 46 -79.8200073242 24 rrcurveto
          163.509994507 33.6999969482 109.130004883 133.830001831 187.460006714 vvcurveto
          218.399993896 -146.11000061 145.600006104 -211.660003662 -212.660003662 -146.770004272 -145.600006104 -218.399993896 -214.479995728 141.559997559 -144.509994507 206.509994507 -5 vhcurveto
          134.440002441 -24 163.5 -103 122.199996948 -53 285.690002441 -124 190.460006714 166 23.3999938965 63 rrcurveto
          -1192.75 438.990005493 rmoveto
          200.449996948 113.770004272 133.630004883 170.660003662 169.660003662 113.11000061 -133.630004883 -200.449996948 -200.440002441 -113.11000061 -133.630004883 -169.660003662 -169.660003662 -114.770004272 133.630004883 200.440002441 vhcurveto
          endchar
        </CharString>
        <CharString name="R">
          70 60 700 -97 callsubr
          endchar
        </CharString>
        <CharString name="Racute">
          70 323.509994507 763.970001221 -105 callsubr
          -256.509994507 -70.9700012207 -97 callsubr
          endchar
        </CharString>
        <CharString name="Rcaron">
          70 328.529998779 764.149993896 -63 callsubr
          -374.660003662 -182.910003662 -97 callsubr
          endchar
        </CharString>
        <CharString name="Rcommaaccent">
          70 60 700 -97 callsubr
          13.9600067139 -894 -84 callsubr
        </CharString>
        <CharString name="S">
          -132 171.270004272 476.809997559 -78 callsubr
          rrcurveto
          -40.6399993896 39.3000030518 81 -14 49 hhcurveto
          115 72.25 76.3899993896 110.61000061 -6 callsubr
          hvcurveto
          endchar
        </CharString>
        <CharString name="Sacute">
          -132 239.36000061 763.970001221 -105 callsubr
          -61.0899963379 -294.160003662 -78 callsubr
          rrcurveto
          -40.6399993896 39.3000030518 81 -14 49 hhcurveto
          115 72.25 76.3899993896 110.61000061 -6 callsubr
          hvcurveto
          endchar
        </CharString>
        <CharString name="Scaron">
          -132 244.380004883 764.149993896 -63 callsubr
          -179.240005493 -406.100006104 -78 callsubr
          rrcurveto
          -40.6399993896 39.3000030518 81 -14 49 hhcurveto
          115 72.25 76.3899993896 110.61000061 -6 callsubr
          hvcurveto
          endchar
        </CharString>
        <CharString name="Scedilla">
          -132 171.270004272 476.809997559 -78 callsubr
          37.6900024414 -38.9799957275 76.0500030518 -14.4700012207 49.3899993896 -1.11999511719 -46.4400024414 -60.0700073242 rcurveline
          -62 callsubr
          40.7700042725 46.9799957275 rcurveline
          102.089996338 9.19999694824 63.0800018311 73.4799957275 103.350006104 vvcurveto
          -6 callsubr
          vhcurveto
          endchar
        </CharString>
        <CharString name="Scommaaccent">
          -135 168.570007324 475.809997559 rmoveto
          -28.8800048828 28.8699951172 -10.6799926758 35.5 29.8200073242 vvcurveto
          60.1300048828 49.1399993896 53.4700012207 65.6100006104 25.5700073242 28.3699951172 -3.66999816895 -14.6900024414 20.7700042725 vhcurveto
          27.6100006104 -19.5299987793 18.7299957275 -30.4199981689 -19.2599945068 vvcurveto
          9.63000488281 95.8300018311 hlineto
          11.8699951172 -35.0099945068 vlineto
          7.63000488281 -30.1600036621 -33.5700073242 2.63000488281 -38.1000061035 hhcurveto
          -89.7400054932 -74.3200073242 -77.5899963379 -90.7299957275 -40.2599945068 15.1999969482 -43.5700073242 39.7599945068 -39.7599945068 hvcurveto
          191.550003052 -177.899993896 rlineto
          27.2799987793 -27.2799987793 3 callsubr
          -31.8899993896 73 callsubr
          -49.6900024414 -52.9799957275 -74.5399932861 -3.36000061035 vhcurveto
          -93.5399932861 -62.3600006104 57.4400024414 86.1600036621 hvcurveto
          -8.78999328613 hlineto
          -12.2700042725 -43.4199981689 -1.2799987793 -40.8899993896 3.99000549316 -35.0899963379 rrcurveto
          -37.8800048828 37.0700073242 72.8099975586 -16.7599945068 64.2400054932 hhcurveto
          109.270004272 1 72.8399963379 75.1000061035 111.630004883 vvcurveto
          42.0599975586 -14.8099975586 42.0299987793 -36.0899963379 36.0899963379 vhcurveto
          -164.800003052 -500.910003662 rmoveto
          52.2799987793 1 43.0599975586 56 -25.9900054932 62 -13.5299987793 32 -38.9499969482 -1 7 callsubr
          -23 -8.96000671387 -21 16.9100036621 -14 10.4199981689 -12 13.6799926758 -17 7.96000671387 -41 -48.6399993896 -16 rrcurveto
          endchar
        </CharString>
        <CharString name="T">
          11 140.440002441 701 -68 callsubr
          endchar
        </CharString>
        <CharString name="Tbar">
          11 140.440002441 701 rmoveto
          -43.2200012207 0.229995727539 -58.4799957275 10.0700073242 -18.7299957275 7.88999938965 rrcurveto
          -125.720001221 56 callsubr
          -12 callsubr
          rlineto
          17.8200073242 vlineto
          32.0700073242 25.3000030518 26.1100006104 31.7200012207 1.38000488281 vhcurveto
          189.660003662 -269.960006714 -160.460006714 -30 160.460006714 -299.820007324 hlineto
          -34.0800018311 -1.49000549316 -28.0599975586 -27.1799926758 -34.4499969482 hhcurveto
          -12.6499938965 38 callsubr
          -10 rlineto
          218.919998169 -7 callsubr
          -34.7299957275 -28.2299957275 27.6199951172 34.4600067139 -1.07000732422 hvcurveto
          298.990005493 162.020004272 30 -162.020004272 269.960006714 189.539993286 vlineto
          31.7200012207 -1.38000488281 25.3000030518 -26.1100006104 -32.0700073242 vvcurveto
          -17.8200073242 56 callsubr
          -0.149993896484 rlineto
          125.720001221 vlineto
          -18.7299957275 -7.88999938965 -58.4799957275 -10.0700073242 -43.2200012207 -0.229995727539 rrcurveto
          endchar
        </CharString>
        <CharString name="Tcaron">
          11 314.009994507 764.149993896 -63 callsubr
          -279.699996948 -181.910003662 -68 callsubr
          endchar
        </CharString>
        <CharString name="Tcedilla">
          11 140.440002441 701 rmoveto
          -43.2200012207 0.229995727539 -58.4799957275 10.0700073242 -18.7299957275 7.88999938965 rrcurveto
          -125.720001221 56 callsubr
          -12 callsubr
          rlineto
          17.8200073242 vlineto
          32.0700073242 25.3000030518 26.1100006104 31.7200012207 1.38000488281 vhcurveto
          189.660003662 -599.779998779 hlineto
          -34.0800018311 -1.49000549316 -28.0599975586 -27.1799926758 -34.4499969482 hhcurveto
          -12.6499938965 38 callsubr
          -10 rlineto
          98.6199951172 hlineto
          -47.3399963379 -62 -62 callsubr
          40.9900054932 48 rcurveline
          92.7200012207 -7 callsubr
          -34.7299957275 -28.2299957275 27.6199951172 34.4600067139 -1.07000732422 hvcurveto
          598.960006714 189.539993286 vlineto
          31.7200012207 -1.38000488281 25.3000030518 -26.1100006104 -32.0700073242 vvcurveto
          -17.8200073242 56 callsubr
          -0.149993896484 rlineto
          125.720001221 vlineto
          -18.7299957275 -7.88999938965 -58.4799957275 -10.0700073242 -43.2200012207 -0.229995727539 rrcurveto
          endchar
        </CharString>
        <CharString name="Thorn">
          -53 184.61000061 547.899993896 rmoveto
          79.9199981689 vlineto
          34.5399932861 -86 callsubr
          218.789993286 -7 callsubr
          -35 -28.3999938965 28.0500030518 34.8300018311 -0.649993896484 hvcurveto
          445.039993286 115.429992676 -15 callsubr
          160.440002441 72 callsubr
          118.279998779 -69.2799987793 74.8500061035 -131.919998169 vhcurveto
          endchar
        </CharString>
        <CharString name="U">
          178 550.179992676 700 -101 callsubr
        </CharString>
        <CharString name="Uacute">
          178 401.570007324 763.970001221 -105 callsubr
          155.61000061 -70.9700012207 -101 callsubr
        </CharString>
        <CharString name="Ucircumflex">
          178 396.429992676 889.740005493 -61 callsubr
          259.880004883 -70.9799957275 -101 callsubr
        </CharString>
        <CharString name="Udieresis">
          178 307.440002441 764.100006104 -104 callsubr
          54.3699951172 -64.1000061035 -101 callsubr
        </CharString>
        <CharString name="Ugrave">
          178 408.63999939 771 -87 callsubr
          148.539993286 -64 -101 callsubr
        </CharString>
        <CharString name="Uhungarumlaut">
          178 344.529998779 768.380004883 -77 callsubr
          94.4299926758 -70.3800048828 -101 callsubr
        </CharString>
        <CharString name="Umacron">
          178 279.460006714 795.36000061 0 callsubr
          270.720001221 -130.36000061 -101 callsubr
        </CharString>
        <CharString name="Uogonek">
          178 550.179992676 700 rmoveto
          -10 16.3000030518 vlineto
          28.4199981689 23.1499938965 -20.1000061035 -28.0399932861 1.25 hvcurveto
          -394.479995728 vlineto
          -137.940002441 -0.229995727539 -89.0599975586 -91.9600067139 -133.589996338 hhcurveto
          -127.399993896 -84.9299926758 97.1199951172 145.679992676 hvcurveto
          381.710006714 vlineto
          27.9799957275 1.2200012207 23.1199951172 20.0399932861 28.3800048828 hhcurveto
          16.3000030518 10 -203.11000061 -10 16.2899932861 hlineto
          28.8899993896 23.4400024414 -20.7599945068 -28.7599945068 0.539993286133 hvcurveto
          -394.899993896 vlineto
          -0.0599975585938 -154.830001831 109.61000061 -103.529998779 164.75 -1.22999572754 -39.6000061035 -13.4900054932 -28.4400024414 -31.8399963379 0.460006713867 -39.6799926758 -38 callsubr
          -1.2799987793 36.9700012207 19.2700042725 26.5599975586 52.1000061035 13.3800048828 rrcurveto
          136.089996338 17.8999938965 87.8800048828 98.9600067139 141.559997559 vvcurveto
          395.449996948 vlineto
          27.5599975586 1.74000549316 22.9499969482 19.6699981689 28.1100006104 hhcurveto
          16.3000030518 10 hlineto
          endchar
        </CharString>
        <CharString name="Uring">
          178 401.830001831 914.279998779 -64 callsubr
          148.350006104 -197.130004883 -101 callsubr
        </CharString>
        <CharString name="V">
          133 548.86000061 700.149993896 rmoveto
          -10 8.78999328613 vlineto
          25.8200073242 26.7799987793 -22.4499969482 -40.0200042725 -14.6000061035 hvcurveto
          -217.520004272 -523.820007324 -209.529998779 523.88999939 rlineto
          39.9700012207 -14.5500030518 26.5299987793 22.4299926758 25.8000030518 hhcurveto
          8.78999328613 10 -225.179992676 -10.1000061035 8 hlineto
          31.0099945068 37.0099945068 -18.1600036621 -44.5500030518 20.2100067139 hvcurveto
          281.029998779 -641.350006104 rlineto
          9.00999450684 hlineto
          21.9900054932 37.0299987793 81.0099945068 0 vhcurveto
          240.460006714 539.100006104 rlineto
          44 20.2899932861 36.8300018311 17.9499969482 30.4700012207 hhcurveto
          8.78999328613 10.1000061035 hlineto
          endchar
        </CharString>
        <CharString name="W">
          375 794.800003052 700 -93 callsubr
        </CharString>
        <CharString name="Wacute">
          375 506.800003052 763.970001221 -105 callsubr
          295 -70.9700012207 -93 callsubr
        </CharString>
        <CharString name="Wcircumflex">
          375 501.660003662 889.740005493 -61 callsubr
          399.270004272 -70.9799957275 -93 callsubr
        </CharString>
        <CharString name="Wdieresis">
          375 412.669998169 764.100006104 -104 callsubr
          193.759994507 -64.1000061035 -93 callsubr
        </CharString>
        <CharString name="Wgrave">
          375 513.869995117 771 rmoveto
          -42.3200073242 46.6300048828 -42.3200073242 43.6300048828 -42.3200073242 40.6300048828 -15.6300048828 -14.5399932861 -14.6399993896 -17.5399932861 -10.6399993896 -60 callsubr
          287.929992676 -64 -93 callsubr
        </CharString>
        <CharString name="X">
          55 658.949996948 10 rmoveto
          -41.8800048828 -37.4199981689 27.3000030518 30.7599945068 -21.3099975586 hvcurveto
          -194.259994507 305.13999939 175.240005493 258.020004272 rlineto
          30.8699951172 21.2799987793 37.5200042725 27.8999938965 42 hhcurveto
          14 20 callsubr
          -225.479995728 -10.0200042725 12.6000061035 hlineto
          27.2700042725 23.5200042725 -33.6699981689 -28.3899993896 -16.7299957275 hvcurveto
          -136.320007324 -215.309997559 -137.789993286 216.440002441 rlineto
          28.1499938965 -15.4499969482 24.1699981689 32.8200073242 26.9199981689 hhcurveto
          12.6000061035 9.9700012207 -242.619995117 -9.9700012207 14 hlineto
          42 37.5200042725 -27.9600067139 -30.8699951172 21.2799987793 hvcurveto
          175.550003052 -276.929992676 -191.490005493 -285.330001831 rlineto
          -30.8699951172 -21.2899932861 -38.5200042725 -28.0700073242 -42 hhcurveto
          -13.8500061035 -9.86000061035 226.800003052 9.86000061035 -12.6000061035 hlineto
          -27.0700073242 -25.2799987793 33.3399963379 28.25 16.9700012207 hvcurveto
          153.779998779 242.520004272 154.11000061 -243.169998169 rlineto
          -28.2400054932 16 -24.3000030518 -32.6999969482 -27.0700073242 hhcurveto
          -12.6000061035 -10 243.839996338 10 hlineto
          endchar
        </CharString>
        <CharString name="Y">
          54 449.869995117 700.020004272 -94 callsubr
        </CharString>
        <CharString name="Yacute">
          54 340.039993286 763.970001221 -105 callsubr
          116.820007324 -70.9499969482 -94 callsubr
        </CharString>
        <CharString name="Ycircumflex">
          54 334.899993896 889.740005493 -61 callsubr
          221.089996338 -70.9600067139 -94 callsubr
        </CharString>
        <CharString name="Ydieresis">
          54 245.910003662 764.100006104 -104 callsubr
          15.5800018311 -64.0800018311 -94 callsubr
        </CharString>
        <CharString name="Ygrave">
          54 347.11000061 771 -87 callsubr
          109.759994507 -63.9799957275 -94 callsubr
        </CharString>
        <CharString name="Z">
          44 616.839996338 154.440002441 -71 callsubr
        </CharString>
        <CharString name="Zacute">
          44 323.929992676 763.970001221 -105 callsubr
          299.910003662 -616.529998779 -71 callsubr
        </CharString>
        <CharString name="Zcaron">
          44 328.949996948 764.149993896 -63 callsubr
          181.759994507 -728.470001221 -71 callsubr
        </CharString>
        <CharString name="Zdotaccent">
          44 322.61000061 764.600006104 -76 callsubr
          294.240005493 -610.149993896 -71 callsubr
        </CharString>
        <CharString name="a">
          56 600 14 hstem
          336.339996338 614 -103 callsubr
        </CharString>
        <CharString name="aacute">
          56 332.059997559 663.970001221 -105 callsubr
          11.2799987793 -56.9700012207 -103 callsubr
        </CharString>
        <CharString name="abreve">
          56 425.339996338 767.729995728 -54 callsubr
          -99 -153.729995728 -103 callsubr
        </CharString>
        <CharString name="acircumflex">
          56 326.919998169 789.740005493 -61 callsubr
          115.550003052 -56.9799957275 -103 callsubr
        </CharString>
        <CharString name="acute">
          -168 207.669998169 745.970001221 -105 callsubr
          endchar
        </CharString>
        <CharString name="adieresis">
          56 237.929992676 664.100006104 -104 callsubr
          -89.9600067139 -50.1000061035 -103 callsubr
        </CharString>
        <CharString name="ae">
          227 799.720001221 123.649993896 rmoveto
          -10.6199951172 hlineto
          -22.4799957275 -53.7200012207 -39.2599945068 -38.8200073242 -67.8500061035 -0.75 rrcurveto
          -161.759994507 240.679992676 166.589996338 hlineto
          22.6799926758 -0.899993896484 18.1600036621 -18.6399993896 -0.0399932861328 -22.9100036621 rrcurveto
          -9.69999694824 vlineto
          10 -0.110000610352 rlineto
          138.429992676 vlineto
          -10 -0.110000610352 rlineto
          -12.6999969482 vlineto
          -23.2100067139 -18.6000061035 -18.8300018311 -23.1000061035 -0.440002441406 vhcurveto
          -165.690002441 266.13999939 200.380004883 hlineto
          23.1000061035 -0.449996948242 19.2200012207 -18.8300018311 -23.2100067139 vvcurveto
          -12.6999969482 vlineto
          10 -0.110000610352 rlineto
          103.350006104 vlineto
          -6.74000549316 -16 -49.6499938965 -8.94000244141 -37.1600036621 hhcurveto
          -239.080001831 -8.61999511719 3.44999694824 hlineto
          16.1699981689 9.36000061035 -14.8999938965 -14.8999938965 -6.80000305176 hvcurveto
          -349.080001831 -500.580001831 rlineto
          -1.11000061035 hlineto
          -27.3099975586 -17.0099945068 -33.8699951172 -24.1999969482 -28.6100006104 hhcurveto
          -6.0299987793 -10 179.470001221 10 -8.13999938965 hlineto
          -23.5299987793 29 callsubr
          19.1699981689 21.9900054932 8.85000610352 hvcurveto
          140.050003052 219.88999939 rlineto
          152.589996338 -220.740005493 hlineto
          -23.1000061035 -0.440002441406 -18.8300018311 -17.2200012207 -23.2100067139 hhcurveto
          -8.38999938965 hlineto
          -0.110000610352 -10 rlineto
          370.009994507 hlineto
          -451.960006714 301.910003662 rmoveto
          132.929992676 208.710006714 rlineto
          -208.710006714 vlineto
          endchar
        </CharString>
        <CharString name="agrave">
          56 339.130004883 671 -87 callsubr
          4.21000671387 -50 -103 callsubr
        </CharString>
        <CharString name="amacron">
          56 209.949996948 695.36000061 0 callsubr
          126.38999939 -116.36000061 -103 callsubr
        </CharString>
        <CharString name="ampersand">
          39 642.479995728 374.570007324 rmoveto
          10 -199.869995117 -10 15.7700042725 vlineto
          31.2799987793 0.0399932861328 19.8099975586 30 callsubr
          13.3399963379 -27.1499938965 27.1900024414 -55.3099975586 -1.41999816895 -70.2899932861 -26.3099975586 -59.5299987793 -84.3200073242 69.8000030518 -55.2400054932 51.6999969482 -41.8800048828 37.4799957275 rrcurveto
          -103.039993286 92.2299957275 -55.6699981689 63.8300018311 83.8099975586 vvcurveto
          81.6600036621 55.7899932861 60.0500030518 76.3399963379 85.0200042725 57.1100006104 -58.7100067139 -95.7899932861 vhcurveto
          10 hlineto
          17.3500061035 113.199996948 -35.2799987793 42.9900054932 -67.5 27.3699951172 -66.6999969482 0.929992675781 rlinecurve
          -122.839996338 -78.2899932861 -73.7299957275 -97.9900054932 -51.4799957275 13.0700073242 -41.9600067139 24.7899932861 -40.1499938965 hvcurveto
          -69.4499969482 -35.1799926758 -51.5399932861 -58.5399932861 -91.1000061035 vvcurveto
          -149.089996338 110.570007324 -85.25 195.669998169 77.9700012207 62.5 26.0800018311 43.2899932861 44.2899932861 vhcurveto
          -67.1300048828 84.5599975586 91.8899993896 7.75999450684 38.8200073242 hhcurveto
          10 vlineto
          -63.5099945068 4.83999633789 -58.1399993896 49.9499969482 -53.7200012207 46.3600006104 34.1699981689 59.6600036621 60 callsubr
          76.6600036621 -15.7599945068 81.8899993896 -5.19000244141 26.9799957275 12.8999938965 18.2899932861 29.3300018311 -0.0399932861328 rrcurveto
          -291.160003662 -354.270004272 rmoveto
          -149.169998169 -84.0700073242 83.5200042725 120.490005493 61.2100067139 18.2100067139 56.8300018311 46.1799926758 42.6600036621 hvcurveto
          30.6100006104 -41.2799987793 42.9600067139 -41.0099945068 53.7899932861 -49.3800048828 52.5099945068 -48.2100067139 55.6499938965 -48.3000030518 83.7400054932 -69.2599945068 rrcurveto
          -40.1699981689 -35.0500030518 -50.8200073242 -27.1000061035 -64.5500030518 hhcurveto
          endchar
        </CharString>
        <CharString name="aogonek">
          26 663.61000061 10 rmoveto
          -7.21000671387 hlineto
          -23.6600036621 -26.4600067139 14.8099975586 35.1000061035 -19.2200012207 hvcurveto
          -250.720001221 554.080001831 rlineto
          -9.47999572754 hlineto
          -26.1600036621 -2.05999755859 -36.7200012207 -76.8399963379 0.289993286133 hhcurveto
          -207.029998779 -443.229995728 rlineto
          -40.7599945068 -20.5099945068 -31.2899932861 -17.0099945068 -26.6100006104 hhcurveto
          -7.92999267578 -10 190.539993286 9.91000366211 -7.94999694824 hlineto
          -23.3399963379 -26.2899932861 22.7599945068 40.0200042725 15.2799987793 hvcurveto
          55.0500030518 130.320007324 rlineto
          252.970001221 hlineto
          53.5899963379 -130.529998779 15.1600036621 -39.9299926758 -23.7400054932 -14.3800048828 -24.3899993896 -8.24000549316 rlinecurve
          -48.6799926758 -16.9100036621 -27.9100036621 -36 0.460006713867 -39 -38 callsubr
          -1.11000061035 32 12.7299957275 29 39.3300018311 10 rrcurveto
          10.4799957275 41.3999938965 78.4900054932 -10.4799957275 50.9799957275 hhcurveto
          -452.63999939 233 rmoveto
          115.630004883 273.649993896 112.350006104 -273.649993896 rlineto
          endchar
        </CharString>
        <CharString name="approxequal">
          66.6799926758 349.699996948 -36 callsubr
          26.6799926758 -194.199996948 -36 callsubr
          endchar
        </CharString>
        <CharString name="aring">
          56 332.320007324 814.279998779 -64 callsubr
          4.02000427246 -183.130004883 -103 callsubr
        </CharString>
        <CharString name="asciicircum">
          -84 232.429992676 370.63999939 rmoveto
          60 hlineto
          195.570007324 -188.75 rlineto
          -63 hlineto
          -162.570007324 153.990005493 -164.429992676 -153.990005493 rlineto
          -63 hlineto
          endchar
        </CharString>
        <CharString name="asciitilde">
          -114 408.050003052 352.649993896 rmoveto
          20 -60.9799957275 -39.9799957275 -34.2799987793 -42.3999938965 1.30999755859 -51.8000030518 1.60000610352 -83.4199981689 98.6699981689 -70.1699981689 -1.33000183105 -62.1900024414 -1.17999267578 -55.1100006104 -44.5800018311 17 -93.1900024414 rrcurveto
          45 hlineto
          -12 68.5500030518 29.6499938965 27.1699981689 37.6499938965 -1.77000427246 rrcurveto
          -2.78999328613 59.3999938965 76.75 -96.1499938965 69.2200012207 hhcurveto
          66.5700073242 63.8000030518 42.4600067139 96.4799957275 -23 hvcurveto
          endchar
        </CharString>
        <CharString name="asterisk">
          -221 347.830001831 623.210006714 rmoveto
          3.11999511719 35.7100067139 -23.5099945068 27.0599975586 -92.2299957275 -44.0500030518 -37.1900024414 -28.6600036621 15.8800048828 44.2400054932 12.6000061035 101.330001831 -33 14 -33 -14 13.3999938965 -101.330001831 15.7700042725 -44.25 -37.3600006104 28.8399963379 -92.4700012207 43.3000030518 -23.5099945068 -27.0599975586 3.11999511719 -35.7100067139 100.509994507 -18.5700073242 47.0099945068 1.33000183105 -38.9199981689 -26.5 -69.75 -74.5700073242 18.4700012207 -30.7200012207 34.9299926758 -8.07000732422 48.7200012207 89.8500061035 13.2799987793 45.1799926758 13.2100067139 -45.2700042725 rlineto
          49.3600006104 -89.3800048828 34.9299926758 8.07000732422 18.4700012207 30.7200012207 -70.3999938965 74.1000061035 -38.7799987793 26.5299987793 47.0800018311 -1.42999267578 rlineto
          endchar
        </CharString>
        <CharString name="at">
          370 549.850006104 234.210006714 rmoveto
          5.83999633789 -107.229995728 rlineto
          -23.6399993896 -25.9499969482 -13.2200012207 -14.6600036621 vhcurveto
          -6.96000671387 hlineto
          -1.30000305176 -7.38999938965 rlineto
          158.169998169 hlineto
          1.32000732422 7.46000671387 rlineto
          -5.11000061035 hlineto
          -19.1000061035 -17.8999938965 14.4900054932 32.5200042725 -4.05999755859 hvcurveto
          -41.3300018311 403.699996948 rlineto
          -6.7200012207 hlineto
          -8.38000488281 -19.5200042725 -46.3600006104 -57.3399963379 0 vvcurveto
          -127.059997559 -173.050003052 -51.3800048828 -69.9799957275 -72.6499938965 -119.199996948 -74.9600067139 1.00999450684 rlinecurve
          -85.3099975586 1.14999389648 -15.0299987793 140.679992676 64.8500061035 145.660003662 85.1399993896 191.220001221 175.300003052 102.320007324 200.61000061 -26.3200073242 162.190002441 -21.2799987793 93.4799957275 -137.419998169 -22.8300018311 -189.779998779 -36.5299987793 -303.720001221 -270.229995728 -196.330001831 -352.61000061 138 4 -10 rcurveline
          431.419998169 -183 256.63999939 269.130004883 32.3000030518 285.919998169 21.8600006104 193.449996948 -118.179992676 158.820007324 -201.520004272 26.2100067139 -240.029998779 31.2200012207 -200.990005493 -121.929992676 -85.0200042725 -201.880004883 -74.6699981689 -177.289993286 66.2400054932 -145.63999939 108.929992676 0.820007324219 70.2799987793 0.529998779297 53.5 62.0500030518 70.75 98.8099975586 rrcurveto
          152.229995728 216.630004883 rmoveto
          10.5700073242 -194.240005493 rlineto
          -146.899993896 hlineto
          endchar
        </CharString>
        <CharString name="atilde">
          56 467.770004272 742.520004272 -80 callsubr
          -121.429992676 -128.520004272 -103 callsubr
        </CharString>
        <CharString name="b">
          -37 55 599.949996948 rmoveto
          -47 callsubr
          -9.94999694824 rlineto
          11.8000030518 hlineto
          33.5800018311 25.3000030518 -21.2700042725 -32.4199981689 1.02000427246 hvcurveto
          -472.399993896 vlineto
          -29.6199951172 -0.919998168945 -25.3399963379 -24.3300018311 -33.6499938965 hhcurveto
          -11.8000030518 38 callsubr
          -10 rlineto
          247.539993286 hlineto
          98.5299987793 124.11000061 37.4799957275 130.419998169 80.3899993896 -71.1699981689 66.3200073242 -96.8800048828 11.8099975586 hvcurveto
          54.7899932861 13.1300048828 55.1499938965 49.0200042725 61.7400054932 vvcurveto
          132.929992676 -136.210006714 16.7100067139 -71.8500061035 vhcurveto
          -69.2899932861 -569.949996948 rmoveto
          540.029998779 68.0099945068 vlineto
          87.6100006104 51.4799957275 -35.8999938965 -83.75 -109.880004883 -102.830001831 -13.4700012207 -72.7799987793 hvcurveto
          0.220001220703 -10 rlineto
          107.720001221 124.369995117 -21.3999938965 -127.720001221 -95.3200073242 -65.5 -42.5800018311 -86.1499938965 hvcurveto
          endchar
        </CharString>
        <CharString name="backslash">
          -201 7 696.5 rmoveto
          360.940002441 -710.5 30.6600036621 19.0800018311 -360.509994507 708.919998169 rlineto
          endchar
        </CharString>
        <CharString name="bar">
          74 callsubr
          -180 rmoveto
          45 880 -45 hlineto
          endchar
        </CharString>
        <CharString name="braceleft">
          -270 85 314.470001221 rmoveto
          16.6900024414 -1.64999389648 26.0899963379 -3.88999938965 7.2799987793 -17.4199981689 10.6199951172 -25.3999938965 -21.9100036621 -84.6199951172 0.679992675781 -65.6699981689 rrcurveto
          -120.830001831 1.25999450684 49 -95 121.169998169 hhcurveto
          1.67999267578 8 -92.75 24 -14.2799987793 73.8899993896 -1.08000183105 109.940002441 rlinecurve
          -0.830001831055 84.6000061035 20.2899932861 100.119995117 -68.3600006104 15.8399963379 66.5899963379 19.4799957275 -18.5700073242 92.3899993896 0.869995117188 88.6900024414 1.08000183105 109.940002441 14.2799987793 73.8899993896 92.75 24 -1.67999267578 8 rcurveline
          -121.169998169 -49 -94.6000061035 -121.240005493 -1.25999450684 hvcurveto
          -0.679992675781 -65.6699981689 24.5899963379 -86.0399932861 -10.6199951172 -25.3999938965 -7.58000183105 -15.1199951172 -27.5800018311 -0.119995117188 -17.5800018311 -0.119995117188 rrcurveto
          endchar
        </CharString>
        <CharString name="braceright">
          -270 40 724.779998779 rmoveto
          92.75 -24 14.2799987793 -73.8899993896 1.08000183105 -109.940002441 0.869995117188 -88.6900024414 -18.5700073242 -92.3899993896 66.5899963379 -19.4799957275 -68.3600006104 -15.8399963379 20.2899932861 -100.119995117 -0.830001831055 -84.6000061035 -1.08000183105 -109.940002441 -14.2799987793 -73.8899993896 -92.75 -24 1.69000244141 -8 rcurveline
          121.169998169 49 95 120.830001831 1.25999450684 hvcurveto
          0.679992675781 65.6699981689 -21.9100036621 84.6199951172 10.6199951172 25.3999938965 7.2799987793 17.4199981689 26.0899963379 3.88999938965 16.6900024414 1.64999389648 rrcurveto
          10 vlineto
          -17.5800018311 0.119995117188 -27.5800018311 0.119995117188 -7.58000183105 15.1199951172 -10.6199951172 25.3999938965 24.5899963379 86.0399932861 -0.679992675781 65.6699981689 rrcurveto
          121.240005493 -1.25999450684 -49 94.6000061035 -121.169998169 hhcurveto
          endchar
        </CharString>
        <CharString name="bracketleft">
          -275 120 -90 rmoveto
          172.490005493 10 hlineto
          -107.490005493 20 rlineto
          752 vlineto
          104.179992676 20 rlineto
          10 -169.179992676 vlineto
          endchar
        </CharString>
        <CharString name="bracketright">
          -275 43.3099975586 722 rmoveto
          -10 vlineto
          104.179992676 -20 rlineto
          -752 vlineto
          -107.490005493 -20 rlineto
          -10 172.490005493 812 vlineto
          endchar
        </CharString>
        <CharString name="breve">
          -167 313.210006714 853.729995728 -54 callsubr
          endchar
        </CharString>
        <CharString name="brokenbar">
          74 callsubr
          350 rmoveto
          45 350 -45 hlineto
          -880 vmoveto
          45 350 -45 hlineto
          endchar
        </CharString>
        <CharString name="bullet">
          -272 181.479995728 237.210006714 rmoveto
          57.0399932861 18.9900054932 5.67999267578 5.30000305176 18.7100067139 56 3.66000366211 11.0500030518 -12 callsubr
          7.94000244141 -3.24000549316 9.83000183105 -19.1699981689 57.5800018311 -5.22999572754 5.2200012207 -57.6100006104 19.1699981689 -9.7200012207 3.25999450684 -7.63000488281 0 -9.75 -3.27000427246 -57.5800018311 -19.1699981689 -5.2200012207 -5.22999572754 -19.1699981689 -57.6100006104 -3.22999572754 -9.80000305176 0 -7.46000671387 3.24000549316 -9.83000183105 19.1699981689 -57.5800018311 5.22999572754 -5.2200012207 57.6100006104 -19.1699981689 rrcurveto
          9.7200012207 -3.25999450684 7.61999511719 0 9.7200012207 3.25999450684 rrcurveto
          endchar
        </CharString>
        <CharString name="c">
          98 656.869995117 251.850006104 -70 callsubr
        </CharString>
        <CharString name="cacute">
          98 380.059997559 663.970001221 -105 callsubr
          283.809997559 -419.119995117 -70 callsubr
        </CharString>
        <CharString name="caron">
          -7 289.940002441 728.880004883 -63 callsubr
          endchar
        </CharString>
        <CharString name="ccaron">
          98 385.080001831 664.149993896 -63 callsubr
          165.660003662 -531.059997559 -70 callsubr
        </CharString>
        <CharString name="ccedilla">
          98 656.869995117 251.850006104 rmoveto
          -10.75 -163.850006104 -117.039993286 -72.3500061035 -149.089996338 1.35000610352 rrcurveto
          -159 1.44000244141 -99.0299987793 108.649993896 172.919998169 vvcurveto
          176.130004883 98.8699951172 107.949996948 158.36000061 124 93.3300018311 -49.2899932861 -122.520004272 30.6399993896 vhcurveto
          8.78999328613 hlineto
          -22.1000061035 141.240005493 rlineto
          37.5299987793 -61.7100067139 -89.1799926758 23 -83.3200073242 hhcurveto
          -202.449996948 -127.529998779 -119.320007324 -194.679992676 -190.289993286 122.86000061 -118.410003662 196.289993286 -5.13999938965 hvcurveto
          -46.5399932861 -61.1699981689 -62 callsubr
          40.2400054932 47.3300018311 rcurveline
          111.320007324 4.39999389648 97.8300018311 48.0700073242 49.4799957275 76.1399993896 10.6000061035 136.949996948 rcurveline
          endchar
        </CharString>
        <CharString name="cdotaccent">
          98 378.740005493 664.600006104 -76 callsubr
          278.13999939 -412.75 -70 callsubr
        </CharString>
        <CharString name="cedilla">
          -7 247.779998779 -62 rmoveto
          -62 callsubr
          41.6600036621 48.7799987793 rcurveline
          -27.6499938965 hlineto
          endchar
        </CharString>
        <CharString name="cent">
          -5 555.440002441 304.410003662 rmoveto
          -9.32000732422 -141.509994507 -94.6399993896 -57.7799987793 -126.919998169 -0.229995727539 39.5200042725 480.679992676 rcurveline
          83.4900054932 -8.39999389648 61.6999969482 -40.9199981689 22.2899932861 -93.2799987793 rrcurveto
          7.19000244141 hlineto
          -17.4299926758 122 -41.3099975586 26.5899963379 -56.5500030518 18.1499938965 -56.9400024414 5.66000366211 rlinecurve
          6.92999267578 84.3200073242 75 callsubr
          -6.71000671387 -83.5500030518 rlineto
          -176.13999939 -110.100006104 -101.119995117 -170.119995117 -154.919998169 95.9900054932 -99.7700042725 146.839996338 -14.6799926758 hvcurveto
          -6.63999938965 -82.6300048828 29.0200042725 -3 6.88999938965 83.8500061035 106.589996338 -0.100006103516 82.7599945068 40.6999969482 43.2400054932 70.6799926758 rlinecurve
          7.94000244141 118.300003052 rlineto
          -267.320007324 -196.820007324 rmoveto
          -108.679992676 16.5599975586 -61.6300048828 85.9900054932 135.820007324 vvcurveto
          152.119995117 74.5700073242 89.1300048828 134.259994507 vhcurveto
          endchar
        </CharString>
        <CharString name="circumflex">
          -7 271.899993896 855.740005493 -61 callsubr
          endchar
        </CharString>
        <CharString name="colon">
          -437 90 378.509994507 rmoveto
          -83 callsubr
          -382.509994507 vmoveto
          -9 callsubr
        </CharString>
        <CharString name="comma">
          -422 47.3600006104 -89 -20 callsubr
        </CharString>
        <CharString name="commaaccentcomb">
          -607 31.9499969482 -144 rmoveto
          52.2799987793 2 43.0599975586 55 -25.9900054932 62 -13.5299987793 32.8300018311 -38.9499969482 -1.64999389648 7 callsubr
          -23.1799926758 -8.96000671387 -20 16.9100036621 -14 10.4199981689 -13 13.6799926758 -16 7.96000671387 -42 -48.6399993896 -15 rrcurveto
          endchar
        </CharString>
        <CharString name="copyright">
          241 424 714 rmoveto
          -201.029998779 -162.970001221 -162.970001221 -201.029998779 -201.029998779 162.970001221 -162.970001221 201.029998779 201.029998779 162.970001221 162.970001221 201.029998779 201.029998779 -162.970001221 162.970001221 -201.029998779 hvcurveto
          -36.5800018311 vmoveto
          180.830001831 146.589996338 41 callsubr
          41 callsubr
          146.589996338 180.830001831 180.830001831 146.589996338 146.589996338 180.830001831 hvcurveto
          192.080001831 -361.63999939 rmoveto
          -7.66999816895 -116.440002441 -77.8300018311 -45.9199981689 -100.619995117 -0.300003051758 rrcurveto
          -93.0200042725 1.99000549316 -69.7700042725 84.3800048828 110.520004272 vvcurveto
          112.509994507 69.7700042725 84.3800048828 93.0200042725 85.8699951172 63.2599945068 -44.5 -72.6000061035 17.3500061035 vhcurveto
          5.91000366211 hlineto
          -14.3399963379 100.369995117 rlineto
          26.6699981689 -41.4299926758 -60.0599975586 16.3500061035 -56.5599975586 hhcurveto
          -130.830001831 -98.1199951172 -95.6399993896 -127.520004272 -126.839996338 98.1199951172 -95.6399993896 130.830001831 -0.679992675781 hvcurveto
          80.25 70.4900054932 34.8200073242 56.8099975586 34.7599945068 hvcurveto
          6.5299987793 97.3300018311 rlineto
          endchar
        </CharString>
        <CharString name="currency">
          -66 491.699996948 153.649993896 rmoveto
          -60.2700042725 60.2700042725 68.1799926758 79.8500061035 -0.380004882812 118.320007324 -68.9400024414 79.4199981689 rlinecurve
          61.4100036621 61.4100036621 -21.2100067139 21.2100067139 -61.3899993896 -61.3899993896 -79.4299926758 69.2400054932 -118.539993286 0.479995727539 -79.9600067139 -68.2799987793 rlinecurve
          -59.9499969482 59.9499969482 -21.2100067139 -21.2100067139 59.7599945068 -59.7599945068 -70.8699951172 -79.9799957275 -0.380004882812 -120.509994507 70.1000061035 -80.4199981689 rlinecurve
          -58.6100006104 -58.6000061035 21.2100067139 -21.2100067139 58.6300048828 58.6300048828 80.4199981689 -69.8099975586 120.289993286 0.479995727539 79.8699951172 70.7700042725 rlinecurve
          60.0700073242 -60.0700073242 rlineto
          -330.580001831 90.2100067139 rmoveto
          53 callsubr
          51 callsubr
          0 115.869995117 51 callsubr
          51 callsubr
          51 callsubr
          51 callsubr
          115.869995117 0 51 callsubr
          53 callsubr
          51 callsubr
          53 callsubr
          0 -115.869995117 53 callsubr
          53 callsubr
          53 callsubr
          53 callsubr
          -115.869995117 0 53 callsubr
          51 callsubr
          rrcurveto
          endchar
        </CharString>
        <CharString name="d">
          153 55 599.970001221 -58 callsubr
        </CharString>
        <CharString name="dagger">
          -90 478 438.410003662 rmoveto
          18 callsubr
          17.3200073242 50 callsubr
          17.6799926758 1 callsubr
          42 callsubr
          -12.6600036621 -236.130004883 27.4700012207 -335.080001831 rlineto
          10 hlineto
          27.5299987793 335.080001831 -12.3399963379 236.130004883 32 callsubr
          rlineto
          endchar
        </CharString>
        <CharString name="daggerdbl">
          -89 464.63999939 132.320007324 rmoveto
          -154.630004883 -17.3800048828 -45.3699951172 -15.0800018311 15.1199951172 42.3200073242 17.0599975586 124.520004272 -17.9400024414 124.520004272 32 callsubr
          14 37.3399963379 18 callsubr
          17.3099975586 50 callsubr
          17.6900024414 1 callsubr
          rlineto
          42 callsubr
          -17.0599975586 -124.520004272 17.9400024414 -124.520004272 15.4900054932 -42.4799957275 -44.8600006104 15.1799926758 -155.75 17.4400024414 -14 -37.3399963379 14 -37.6600036621 155.75 17.5599975586 44.5599975586 14.9900054932 -15.1900024414 -41.9199981689 -17.3200073242 -214.949996948 36.3600006104 -14 38.6399993896 14 -17.6799926758 214.949996948 -14.8099975586 41.8999938965 45.0599975586 -14.9199981689 154.630004883 -17.6199951172 14 37.6600036621 rlineto
          endchar
        </CharString>
        <CharString name="dcaron">
          153 392.880004883 665.149993896 -63 callsubr
          -443.970001221 -183.929992676 -58 callsubr
        </CharString>
        <CharString name="dcroat">
          153 265.740005493 696.36000061 0 callsubr
          -210.710006714 -131.38999939 -58 callsubr
        </CharString>
        <CharString name="degree">
          -350 128.539993286 664.350006104 rmoveto
          -54.4199981689 -44.1199951172 -44.1199951172 -54.4199981689 -54.4199981689 44.1199951172 -44.1199951172 54.4199981689 54.4199981689 44.1199951172 44.1199951172 54.4199981689 54.4199981689 -44.1199951172 44.1199951172 -54.4199981689 hvcurveto
          -39.3300018311 vmoveto
          33.1499938965 26.0500030518 43 callsubr
          43 callsubr
          26.0500030518 33.1499938965 33.1499938965 26.0500030518 26.0500030518 33.1499938965 hvcurveto
          endchar
        </CharString>
        <CharString name="dieresis">
          -7 186.309997559 700.100006104 -104 callsubr
          endchar
        </CharString>
        <CharString name="divide">
          240.5 432.910003662 31 callsubr
          15.7899932861 48 callsubr
          48 callsubr
          -15.7899932861 -15.7899932861 36 callsubr
          -200.5 -145.649993896 rmoveto
          -1 callsubr
          200.5 -215.399993896 31 callsubr
          15.7799987793 48 callsubr
          48 callsubr
          -15.7899932861 -15.7799987793 36 callsubr
          endchar
        </CharString>
        <CharString name="dollar">
          -138 249.770004272 401.589996338 rmoveto
          21.5500030518 280.320007324 rlineto
          56.1999969482 -8.05999755859 36.2400054932 -36.3999938965 -56.4199981689 vvcurveto
          9.63000488281 110.830001831 hlineto
          11.8699951172 -38.8399963379 vlineto
          -17.0700073242 3.85000610352 -20.5399932861 3.27000427246 -23.25 1.75999450684 5.71000671387 74.3300018311 rcurveline
          75 callsubr
          -5.66000366211 -74.0299987793 rlineto
          -98.3300018311 -72.3999938965 -75.6799926758 -92.6399993896 -40.2599945068 12.8000030518 -46.1100006104 41.1600036621 -38.2299957275 hvcurveto
          88.1199951172 -81.8399963379 -24.5299987793 -320.979995728 -74.1399993896 11.1399993896 -44.6300048828 59 7.7799987793 91.6399993896 rlinecurve
          -8.78999328613 hlineto
          -15.2299957275 -44.8399963379 -3.7799987793 -63.6999969482 7.44999694824 -30.8699951172 28.5599975586 -29.1900024414 49.7899932861 -16.4499969482 50.7400054932 -6 -6.69999694824 -88 rcurveline
          29.9700012207 -3 6.78999328613 88 rlineto
          124.25 1 72.8399963379 69.1000061035 117.630004883 vvcurveto
          42.0599975586 -11.4100036621 43.4900054932 -38.4900054932 35.6300048828 vhcurveto
          -196.509994507 181.899993896 rmoveto
          -29.9299926758 27.6999969482 -10.6300048828 35.6799926758 29.8200073242 vvcurveto
          58.3399963379 50.0200042725 52.0599975586 62.8999938965 3.05000305176 vhcurveto
          -19.5299987793 -255.570007324 rlineto
          21.6000061035 -115 rmoveto
          75.0599975586 -69.7100067139 rlineto
          27.7299957275 -25.7599945068 11.4499969482 -32.4100036621 73 callsubr
          -59.6900024414 -53.9799957275 -74.5399932861 -2.36000061035 vhcurveto
          -2.80000305176 hlineto
          endchar
        </CharString>
        <CharString name="dotaccent">
          -7 300.789993286 700.600006104 -76 callsubr
          endchar
        </CharString>
        <CharString name="dotlessi">
          -301 251.449996948 10 -82 callsubr
        </CharString>
        <CharString name="e">
          -61 516.38999939 143.449996948 rmoveto
          -106 callsubr
          406.25 hlineto
          endchar
        </CharString>
        <CharString name="eacute">
          -61 296.910003662 663.970001221 -105 callsubr
          226.479995728 -527.520004272 rmoveto
          -106 callsubr
          406.25 hlineto
          endchar
        </CharString>
        <CharString name="ecaron">
          -61 301.929992676 664.149993896 -63 callsubr
          108.330001831 -639.460006714 rmoveto
          -106 callsubr
          406.25 hlineto
          endchar
        </CharString>
        <CharString name="ecircumflex">
          -61 291.770004272 789.740005493 -61 callsubr
          330.75 -527.529998779 rmoveto
          -106 callsubr
          406.25 hlineto
          endchar
        </CharString>
        <CharString name="edieresis">
          -61 202.779998779 664.100006104 -104 callsubr
          125.240005493 -520.649993896 rmoveto
          -106 callsubr
          406.25 hlineto
          endchar
        </CharString>
        <CharString name="edotaccent">
          -61 295.589996338 664.600006104 -76 callsubr
          220.800003052 -521.149993896 rmoveto
          -106 callsubr
          406.25 hlineto
          endchar
        </CharString>
        <CharString name="egrave">
          -61 303.979995728 671 -87 callsubr
          219.410003662 -520.550003052 rmoveto
          -106 callsubr
          406.25 hlineto
          endchar
        </CharString>
        <CharString name="eight">
          -55 333.229995728 372.779998779 rmoveto
          79.1799926758 29.0700073242 43.5599975586 63.3699951172 -0.289993286133 79.9799957275 0.320007324219 107.800003052 -77 63 -103 -2 -112 -2 -68 -71 -0.0500030517578 -94.3999938965 0.0299987792969 -75.8699951172 43.5299987793 -58.1100006104 64.9400024414 -46.3699951172 -92.3300018311 -43.1000061035 -48.3800048828 -57.9400024414 -3.74000549316 -84.1999969482 rrcurveto
          -117 -5 89 -78 132 hhcurveto
          131 85 77 112.020004272 hvcurveto
          -0.0299987792969 112.570007324 -85.6399993896 48.9499969482 -73.1300048828 36.2299957275 rrcurveto
          -59.2299957275 30.2200012207 rmoveto
          -66 38 -37 52 -0.0500030517578 66.6300048828 rrcurveto
          67.3699951172 38 57 68 64 40 -51 -79.9499969482 -0.320007324219 vhcurveto
          0.289993286133 -57.5700073242 -21.5 -57.5200042725 -63.0299987793 -47.0299987793 rrcurveto
          -19.4499969482 -374.940002441 rmoveto
          -89 -54 60 95 1 hvcurveto
          0.919998168945 82.9299926758 43.3699951172 55.7599945068 54.6600036621 37.1399993896 11.8699951172 -7.24000549316 12.3800048828 -6.92999267578 12.8000030518 -6.64999389648 63 -33 83 -29 0.0399932861328 -102.61000061 rrcurveto
          -73.3899993896 -43 -72 -97 vhcurveto
          endchar
        </CharString>
        <CharString name="ellipsis">
          -37 90 -4 rmoveto
          -83 callsubr
          200 hmoveto
          -83 callsubr
          190 hmoveto
          -9 callsubr
        </CharString>
        <CharString name="emacron">
          -61 174.800003052 695.36000061 0 callsubr
          341.589996338 -586.910003662 rmoveto
          -106 callsubr
          406.25 hlineto
          endchar
        </CharString>
        <CharString name="emdash">
          193 271 40 hstem
          0 800 vstem
          271 vmoveto
          800 40 -800 hlineto
          endchar
        </CharString>
        <CharString name="endash">
          -107 271 40 hstem
          0 500 vstem
          271 vmoveto
          500 40 -500 hlineto
          endchar
        </CharString>
        <CharString name="eng">
          232 560.339996338 600.020004272 rmoveto
          0.130004882812 -10 rlineto
          67 callsubr
          28.3000030518 24.8300018311 -22.0700073242 -27.8600006104 hvcurveto
          -416.529998779 vlineto
          -520.869995117 490.899993896 -10.7400054932 0.5 rlineto
          0 9.58000183105 -56.6600036621 -68.2700042725 vvcurveto
          -427.839996338 vlineto
          -28.9400024414 -0.589996337891 -24.6699981689 -23.3099975586 -30.4199981689 hhcurveto
          -16.6499938965 -16 callsubr
          189.029998779 hlineto
          -0.119995117188 10 rlineto
          49 callsubr
          -30.4199981689 -24.6900024414 23.3099975586 28.9400024414 -0.559997558594 hvcurveto
          417.259994507 vlineto
          477.919998169 -453.520004272 rlineto
          -40.9700012207 vlineto
          -80 -35.7599945068 -53 -41.8000030518 -19 vhcurveto
          5.30999755859 -8 rlineto
          63.1100006104 13 54.5700073242 49 96 vvcurveto
          557.869995117 vlineto
          27.5 2.08999633789 22.9400024414 21.6699981689 28.0399932861 hhcurveto
          67 callsubr
          0.130004882812 10 rlineto
          endchar
        </CharString>
        <CharString name="eogonek">
          -61 461.270004272 hmoveto
          55.1199951172 143.449996948 rlineto
          -106 callsubr
          359.36000061 hlineto
          -46.9100036621 -10.1100006104 -35.5599975586 -34.5500030518 0.509994506836 -44.3399963379 -38 callsubr
          -1.32000732422 37.9900054932 20.3800048828 26.9900054932 55.3800048828 13.0200042725 rrcurveto
          endchar
        </CharString>
        <CharString name="equal">
          40 363.88999939 rmoveto
          -1 callsubr
          -220 vmoveto
          -1 callsubr
          endchar
        </CharString>
        <CharString name="eth">
          153 55 599.970001221 rmoveto
          0.169998168945 71 callsubr
          12.2400054932 hlineto
          31.3899993896 24.7299957275 -22.3800048828 -31.5599975586 1.0299987793 hvcurveto
          -221.130004883 -62.7400054932 -30 62.7400054932 -220.75 vlineto
          -29.7799987793 -0.880004882812 -23.6999969482 -24.5 -31.5200042725 hhcurveto
          -13.3099975586 hlineto
          -0.169998168945 -10 rlineto
          333.559997559 hlineto
          197.229995728 124.279998779 113.869995117 185.779998779 186.160003662 -124.279998779 114.100006104 -197.229995728 hvcurveto
          -198.869995117 -314.960006714 rmoveto
          157.160003662 30 -157.160003662 254.910003662 199.369995117 hlineto
          153.520004272 95.1900024414 -102.690002441 -167.550003052 -166.949996948 -95.1600036621 -102.320007324 -153.550003052 hvcurveto
          -199.369995117 hlineto
          endchar
        </CharString>
        <CharString name="exclam">
          -377 139.869995117 402.960006714 rmoveto
          11.8999938965 298.63999939 rlineto
          -75 hlineto
          11.8699951172 -298.63999939 20.25 -232.960006714 rlineto
          10 hlineto
          -3.89999389648 -174 rmoveto
          -9 callsubr
        </CharString>
        <CharString name="exclamdown">
          -377 115 705.600006104 rmoveto
          -34 callsubr
          -20.1499938965 -20.1499938965 -18 callsubr
          20.1499938965 -20.1499938965 -17 callsubr
          20.1499938965 20.1499938965 -17 callsubr
          -20.1499938965 20.1499938965 -34 callsubr
          hvcurveto
          -24.8699951172 -406.960006714 rmoveto
          -11.9100036621 -298.63999939 rlineto
          75 hlineto
          -11.8699951172 298.63999939 -20.25 230.13999939 rlineto
          -10 hlineto
          endchar
        </CharString>
        <CharString name="f">
          -84 -75 callsubr
          endchar
        </CharString>
        <CharString name="fi">
          252 -75 callsubr
          454.550003052 -600 rmoveto
          -51 callsubr
          endchar
        </CharString>
        <CharString name="five">
          -109 422.320007324 729 rmoveto
          -10 hlineto
          -29.8999938965 -15.3399963379 -22.3600006104 -20.1000061035 -41.6999969482 hhcurveto
          -197.490005493 -15 -78.4499969482 -271.300003052 9 -4 163.899993896 55.3800048828 127.419998169 -63.3099975586 -9.47999572754 -134.570007324 rlinecurve
          -12.8999938965 -183.220001221 -198.559997559 -85.9799957275 -84.3600006104 2 -2 -10 rcurveline
          83.1900024414 -15 279.63999939 57 10 242.75 7.14999389648 173.589996338 -154.970001221 66.0599975586 -166.910003662 -42.4700012207 46.0399932861 158.070007324 rcurveline
          234.770004272 15 rlineto
          endchar
        </CharString>
        <CharString name="fl">
          452 -75 callsubr
          678.550003052 -456.550003052 -85 callsubr
          endchar
        </CharString>
        <CharString name="florin">
          -114 55 600 rmoveto
          -47 callsubr
          -10 -39 callsubr
          29.8000030518 22.5200042725 -22.25 -29.4799957275 1.10000610352 hvcurveto
          -538.289993286 vlineto
          -0.199996948242 -74 -44.3500061035 -74 -56.4600067139 -20 rrcurveto
          -10 vlineto
          87.9400024414 77.0800018311 81 97 hvcurveto
          285 157.63999939 vlineto
          25.3399963379 -1.55999755859 12.1999969482 -18.3600006104 -22.4600067139 vvcurveto
          -12.6999969482 vlineto
          10 -0.110000610352 rlineto
          140.460006714 vlineto
          -10 -0.110000610352 rlineto
          -12.6999969482 vlineto
          -23.1100006104 -12.9299926758 -18.7700042725 -26.8800048828 -0.580001831055 vhcurveto
          -155.380004883 254.410003662 188.929992676 25 callsubr
          10 -0.130004882812 rlineto
          113.160003662 vlineto
          -16.0700073242 -6.77000427246 -50 -8.63000488281 -37.2100067139 -0.279998779297 rrcurveto
          endchar
        </CharString>
        <CharString name="four">
          -24 502.800003052 248.759994507 rmoveto
          21 75 rlineto
          -10 hlineto
          -13.8999938965 -12 -5.80000305176 -6.10000610352 -36.8399963379 hhcurveto
          -43.5099945068 410.240005493 -9.36000061035 hlineto
          -366.279998779 -455.240005493 rlineto
          -10 310.649993896 -186.899993896 vlineto
          -29.9100036621 -1.11999511719 -24.6100006104 -21.9499969482 -29.4499969482 hhcurveto
          -10.8999938965 -16 callsubr
          197.460006714 -2 callsubr
          10 rlineto
          -8 callsubr
          -29.7100067139 -25.1300048828 23.6600036621 29.6999969482 -0.360000610352 hvcurveto
          185.399993896 vlineto
          -300.699996948 55 rmoveto
          235.699996948 292.550003052 rlineto
          -292.550003052 vlineto
          endchar
        </CharString>
        <CharString name="fraction">
          -65 498.350006104 -14 callsubr
          endchar
        </CharString>
        <CharString name="g">
          135 662.830001831 235.179992676 -81 callsubr
          endchar
        </CharString>
        <CharString name="gbreve">
          135 471.339996338 767.729995728 -54 callsubr
          181.490005493 -532.550003052 -81 callsubr
          endchar
        </CharString>
        <CharString name="gcommaaccent">
          135 662.830001831 235.179992676 -81 callsubr
          -321.300003052 -322.809997559 -84 callsubr
        </CharString>
        <CharString name="gdotaccent">
          135 376.740005493 664.600006104 -76 callsubr
          286.089996338 -429.410003662 -81 callsubr
          endchar
        </CharString>
        <CharString name="germandbls">
          317 -59 callsubr
          259.589996338 155.809997559 -102 callsubr
          endchar
        </CharString>
        <CharString name="grave">
          -168 239.539993286 752.970001221 -87 callsubr
          endchar
        </CharString>
        <CharString name="greater">
          40 523.25 19 callsubr
          endchar
        </CharString>
        <CharString name="greaterequal">
          40 589.25 19 callsubr
          -401.720001221 -355 rmoveto
          -1 callsubr
          endchar
        </CharString>
        <CharString name="guillemotleft">
          -154 214.800003052 489.710006714 -3 callsubr
          344.800003052 197.960006714 -3 callsubr
          endchar
        </CharString>
        <CharString name="guillemotright">
          -154 69 89.7100067139 -4 callsubr
          -4.80000305176 -202.039993286 -4 callsubr
          endchar
        </CharString>
        <CharString name="guilsinglleft">
          -324 214.800003052 489.710006714 -3 callsubr
          endchar
        </CharString>
        <CharString name="guilsinglright">
          -324 69 89.7100067139 -4 callsubr
          endchar
        </CharString>
        <CharString name="h">
          139 691.880004883 hmoveto
          11 callsubr
          474.38999939 -10 callsubr
          -224.75 -369.059997559 226.399993896 -11 callsubr
          -471.699996948 vlineto
          -29.9900054932 -0.619995117188 -24 callsubr
          endchar
        </CharString>
        <CharString name="hbar">
          141 694.320007324 424.919998169 rmoveto
          30 -72.3600006104 82.6799926758 -10 callsubr
          -80.8800048828 -369.059997559 82.5399932861 -11 callsubr
          -80.8800048828 -66.3699951172 -30 66.4100036621 -360.809997559 vlineto
          -29.9900054932 -0.660003662109 -24 callsubr
          203.779998779 hlineto
          11 callsubr
          361.710006714 vlineto
          -63.9700012207 -113.86000061 rmoveto
          -369.070007324 113.86000061 369.070007324 hlineto
          endchar
        </CharString>
        <CharString name="hungarumlaut">
          -7 211.669998169 750.970001221 -77 callsubr
          endchar
        </CharString>
        <CharString name="hyphen">
          16 callsubr
        </CharString>
        <CharString name="i">
          -271 281.589996338 hmoveto
          -51 callsubr
          endchar
        </CharString>
        <CharString name="iacute">
          -301 153.509994507 663.970001221 -105 callsubr
          104.940002441 -660.970001221 -82 callsubr
        </CharString>
        <CharString name="icircumflex">
          -301 148.369995117 789.740005493 -61 callsubr
          209.210006714 -660.979995728 -82 callsubr
        </CharString>
        <CharString name="idieresis">
          -301 59.3699951172 664.100006104 -104 callsubr
          3.69999694824 -654.100006104 -82 callsubr
        </CharString>
        <CharString name="igrave">
          -301 160.570007324 671 rmoveto
          -42.3200073242 46.6300048828 -42.3200073242 43.6300048828 -42.3200073242 40.6300048828 -15.6300048828 -14.5399932861 -14.6399993896 -17.5399932861 -10.3399963379 -20.5399932861 53.3300018311 -31.4299926758 53.6199951172 -28.4299926758 53.6199951172 -25.4299926758 rrcurveto
          97.8699951172 -654 -82 callsubr
        </CharString>
        <CharString name="ij">
          38 281.589996338 hmoveto
          -51 callsubr
          335.429992676 -25 callsubr
        </CharString>
        <CharString name="imacron">
          -301 31.3999938965 695.36000061 0 callsubr
          220.050003052 -720.36000061 -82 callsubr
        </CharString>
        <CharString name="infinity">
          -14 316.220001221 262.820007324 rmoveto
          -49.9900054932 30.6900024414 57.8800048828 -48.3000030518 66.5200042725 hhcurveto
          70.3000030518 52.5200042725 56.3899993896 75.6900024414 -0.919998168945 hvcurveto
          76.1600036621 -0.929992675781 -52.5200042725 56.6799926758 -68.4499969482 hhcurveto
          -59.1100006104 -58.25 -45.9799957275 -49.5700073242 -36.9600067139 hvcurveto
          50.6399993896 -38.4199981689 -57.8300018311 44.9100036621 -58.8399963379 hhcurveto
          -68.4499969482 -52.5200042725 -56.6799926758 -76.1600036621 -0.929992675781 hvcurveto
          -75.6900024414 -0.919998168945 52.5200042725 -56.3899993896 70.3000030518 hhcurveto
          64.6399993896 58.1100006104 45.7700042725 52.5099945068 31.5700073242 hvcurveto
          -154.320007324 -55.2799987793 rmoveto
          -41.4700012207 -35.4199981689 40.0500030518 49.0299987793 49.5 35.4199981689 40.3399963379 41.4700012207 51.25 44.7200012207 -46.7299957275 -42.1100006104 31.6199951172 hvcurveto
          -43.1699981689 -28.2100067139 -48.1199951172 -46.9100036621 -51.25 hhcurveto
          309.410003662 hmoveto
          -51.25 -45.7899932861 43.3399963379 46.7400054932 -30.5399932861 hvcurveto
          39.0299987793 29.3000030518 47.0299987793 49.8099975586 51.25 hhcurveto
          41.4700012207 35.4199981689 -40.3399963379 -49.5 -49.0299987793 -35.4199981689 -40.0500030518 -41.4700012207 hvcurveto
          endchar
        </CharString>
        <CharString name="integral">
          -167 314.089996338 791.910003662 rmoveto
          -87.4100036621 -9 -24.2400054932 -106 -5.61000061035 -78.1600036621 -6.03999328613 -84.6199951172 -26.2299957275 -524.130004883 -2.67999267578 -53 rrcurveto
          -69 -3.46000671387 -13.1999969482 -21 -18.6000061035 hhcurveto
          -22.9199981689 -1.97999572754 27 16 -16.8600006104 hvcurveto
          -13.6000061035 14 -24.5099945068 2 -17.3999938965 -19 -10.4100036621 -12 -2.41999816895 -19 9.13999938965 -15 17 -27 43.4400024414 -8 30.5299987793 3 87.4100036621 9 24.2400054932 106 5.61000061035 78.1600036621 6.03999328613 84.6199951172 26.2299957275 524.130004883 2.67999267578 53 rrcurveto
          69 3.46000671387 13.1999969482 21 18.6000061035 hhcurveto
          22.9199981689 1.97999572754 -27 -16 16.8600006104 hvcurveto
          13.6000061035 -14 24.5099945068 -2 17.3999938965 19 10.4100036621 12 2.41999816895 19 -9.13999938965 15 -17 27 -43.4400024414 8 -30.5299987793 -3 rrcurveto
          endchar
        </CharString>
        <CharString name="iogonek">
          -300 253.539993286 hmoveto
          -0.139999389648 10 rlineto
          -40 callsubr
          473.979995728 vlineto
          29.2799987793 1.39999389648 24.1399993896 23.3200073242 29.6300048828 hhcurveto
          22 callsubr
          0.139999389648 10 rlineto
          65 callsubr
          46 callsubr
          22 callsubr
          30.1699981689 24.4799957275 -24.1799926758 -30.0299987793 0.559997558594 hvcurveto
          -471.699996948 vlineto
          -29.9900054932 -0.580001831055 -24.4600067139 -24.1399993896 -30.1399993896 hhcurveto
          -10.8999938965 -16 callsubr
          80 hlineto
          -46.9199981689 -10 -35.5800018311 -35 0.509994506836 -44 -38 callsubr
          -1.32000732422 38 20.3899993896 27 55.3999938965 13 rrcurveto
          endchar
        </CharString>
        <CharString name="j">
          -298 54.4700012207 -25 callsubr
        </CharString>
        <CharString name="k">
          17 293.63999939 321.039993286 -33 callsubr
          -351.919998169 486.550003052 -32 callsubr
          endchar
        </CharString>
        <CharString name="kcommaaccent">
          17 189.649993896 537.449996948 -32 callsubr
          103.990005493 257.61000061 -33 callsubr
          -214.350006104 -258.910003662 -84 callsubr
        </CharString>
        <CharString name="l">
          -37 callsubr
          endchar
        </CharString>
        <CharString name="lacute">
          -71 157.210006714 663.970001221 -105 callsubr
          355.38999939 -527.520004272 -85 callsubr
          endchar
        </CharString>
        <CharString name="lcaron">
          -71 355.720001221 458.539993286 -21 callsubr
          151.820007324 -321.699996948 -85 callsubr
          endchar
        </CharString>
        <CharString name="lcommaaccent">
          -37 callsubr
          -222.369995117 -351.449996948 -84 callsubr
        </CharString>
        <CharString name="ldot">
          -37 callsubr
          -202.009994507 199.550003052 rmoveto
          -9 callsubr
        </CharString>
        <CharString name="less">
          441.720001221 523.25 10 callsubr
          endchar
        </CharString>
        <CharString name="lessequal">
          441.720001221 589.25 10 callsubr
          -401.720001221 -498 rmoveto
          -1 callsubr
          endchar
        </CharString>
        <CharString name="logicalnot">
          -6 40 397.229995728 rmoveto
          -45 476.720001221 -157.660003662 45 202.660003662 vlineto
          endchar
        </CharString>
        <CharString name="lozenge">
          -77 480.970001221 349.789993286 rmoveto
          -221.820007324 -363.789993286 -209.149993896 363.789993286 209.149993896 364.210006714 rlineto
          -166.149993896 -364.210006714 rmoveto
          166.149993896 -295.190002441 178.820007324 295.190002441 -178.820007324 295.210006714 rlineto
          endchar
        </CharString>
        <CharString name="lslash">
          -71 505.589996338 143.449996948 rmoveto
          -28.3899993896 -64.6999969482 -34.1999969482 -46.8399963379 -95.9900054932 -1.32000732422 rrcurveto
          -156.470001221 261.940002441 hlineto
          156.740005493 90.7200012207 -15.0200042725 23.9700012207 -141.720001221 -81.8200073242 rlineto
          210.529998779 vlineto
          29.9700012207 0.660003662109 26.4600067139 24.1100006104 32.5800018311 hhcurveto
          11.7700042725 57 callsubr
          10 rlineto
          -207.179992676 57 callsubr
          -10 rlineto
          11.7700042725 hlineto
          32.6699981689 26.4499969482 -24.1799926758 -30.0299987793 0.630004882812 hvcurveto
          -247.259994507 vlineto
          -76.8000030518 -44.3600006104 14.0200042725 -24.9700012207 62.8099975586 36.3500061035 rlineto
          -192.509994507 vlineto
          -29.5099945068 -1.21000671387 -41 callsubr
          endchar
        </CharString>
        <CharString name="m">
          -49 callsubr
        </CharString>
        <CharString name="macron">
          -7 170.229995728 702.940002441 0 callsubr
          endchar
        </CharString>
        <CharString name="minus">
          40 287.25 rmoveto
          -1 callsubr
          endchar
        </CharString>
        <CharString name="mu">
          -49 callsubr
        </CharString>
        <CharString name="multiply">
          -192 365.880004883 435.869995117 rmoveto
          -31.8200073242 31.8200073242 54 callsubr
          64 callsubr
          -31.8200073242 -31.8200073242 64 callsubr
          54 callsubr
          31.8200073242 -31.8200073242 64 callsubr
          64 callsubr
          64 callsubr
          52 callsubr
          31.8200073242 31.8200073242 52 callsubr
          64 callsubr
          rlineto
          endchar
        </CharString>
        <CharString name="n">
          172 555.199996948 600.020004272 -89 callsubr
          endchar
        </CharString>
        <CharString name="nacute">
          172 387.949996948 663.970001221 -105 callsubr
          174.25 -70.9499969482 -89 callsubr
          endchar
        </CharString>
        <CharString name="ncaron">
          172 392.970001221 664.149993896 -63 callsubr
          56.1000061035 -182.88999939 -89 callsubr
          endchar
        </CharString>
        <CharString name="ncommaaccent">
          172 555.199996948 600.020004272 -89 callsubr
          -379.949996948 -808.020004272 -84 callsubr
        </CharString>
        <CharString name="nine">
          -47 375.570007324 381.789993286 rmoveto
          -26.5700073242 -34.7899932861 -42 -16 -41 -1 -87 -2 -46 70 -2 97 -2 100 42 87 95.1000061035 -0.0399932861328 102.899993896 0.0399932861328 51 -102 0.460006713867 -162.279998779 -0.460006713867 -198.720001221 -76 -196 -188.270004272 -53 3.71000671387 -7 rcurveline
          230.559997559 20 105 242 199 vvcurveto
          185 -91 105 -138 -2 vhcurveto
          -123 -2 -91 -88 4 -141 6 -213 219 -22 100.050003052 126.789993286 rrcurveto
          endchar
        </CharString>
        <CharString name="notequal">
          441.720001221 363.88999939 rmoveto
          45 -118.179992676 vlineto
          44 91.1100006104 -39.9400024414 18.5599975586 -53.2899932861 -109.669998169 rlineto
          -234.309997559 -45 212.449996948 hlineto
          -63.1699981689 -130 rlineto
          -149.279998779 -45 127.410003662 hlineto
          -50.3699951172 -103.649993896 41.2100067139 -18.5800018311 59.0299987793 122.229995728 rlineto
          224.440002441 45 -202.699996948 hlineto
          62.7799987793 130 rlineto
          endchar
        </CharString>
        <CharString name="ntilde">
          172 523.649993896 742.520004272 -80 callsubr
          41.5399932861 -142.5 -89 callsubr
          endchar
        </CharString>
        <CharString name="numbersign">
          -71 516 466.880004883 rmoveto
          30 -107.339996338 vlineto
          63 callsubr
          -35.8099975586 -203.119995117 rlineto
          -168 hlineto
          63 callsubr
          -35.8200073242 -203.119995117 rlineto
          -112.660003662 -30 107.369995117 hlineto
          -38.7899932861 -220 rlineto
          -112.580001831 -30 107.289993286 37 callsubr
          168 37 callsubr
          112.710006714 30 -107.419998169 hlineto
          38.7899932861 220 rlineto
          -70.7899932861 -220 rmoveto
          -168 hlineto
          38.7899932861 220 rlineto
          168 hlineto
          endchar
        </CharString>
        <CharString name="o">
          167 387.449996948 614 rmoveto
          -91 callsubr
        </CharString>
        <CharString name="oacute">
          167 387.36000061 663.970001221 -105 callsubr
          7.08000183105 -56.9700012207 rmoveto
          -91 callsubr
        </CharString>
        <CharString name="ocircumflex">
          167 382.229995728 789.740005493 -61 callsubr
          111.350006104 -56.9799957275 rmoveto
          -91 callsubr
        </CharString>
        <CharString name="odieresis">
          167 293.229995728 664.100006104 -104 callsubr
          -94.1600036621 -50.1000061035 rmoveto
          -91 callsubr
        </CharString>
        <CharString name="oe">
          278 850.539993286 143.449996948 rmoveto
          -10 hlineto
          -26.2400054932 -64.7200012207 -33.1300048828 -46.8500061035 -88.5 -1.28999328613 rrcurveto
          -157.240005493 253.630004883 169.679992676 hlineto
          26.6600036621 -0.720001220703 12.8200073242 -18.7200012207 -23.0200042725 vvcurveto
          -12.6999969482 69 callsubr
          -0.110000610352 rlineto
          140.539993286 vlineto
          -10.0200042725 -0.110000610352 rlineto
          -12.6999969482 vlineto
          -23.0899963379 -12.8999938965 -18.75 -26.8099975586 -0.619995117188 vhcurveto
          -169.449996948 255.190002441 202.899993896 25 callsubr
          10.0800018311 -0.130004882812 rlineto
          113.160003662 vlineto
          -16.0700073242 -6.77000427246 -50.0800018311 -8.63000488281 -37.2100067139 -0.279998779297 rrcurveto
          -162.259994507 28 callsubr
          5.36999511719 -37.4400024414 -43.0200042725 3.28999328613 -19.6900024414 hhcurveto
          -188.75 -125.679992676 -119.320007324 -194.679992676 -194.679992676 125.679992676 -119.320007324 188.75 36.2400054932 58.1699981689 27 callsubr
          264.869995117 hlineto
          -325.88999939 65.1999969482 rmoveto
          -32.6999969482 -57.1900024414 -17.5700073242 -52.7799987793 -144.309997559 -99.4499969482 108.940002441 176.119995117 176.130004883 99.4499969482 108.949996948 144.309997559 52.5899963379 57.3800048828 -12.3699951172 -37.1600036621 vhcurveto
          endchar
        </CharString>
        <CharString name="ogonek">
          -7 425.050003052 -107 rmoveto
          -49.1300048828 -51 -70.8399963379 36 -2 57 -1.32000732422 38 20.3999938965 27 55.4299926758 13.4900054932 -10 3 rcurveline
          -60.2400054932 -50.9199981689 -39.4900054932 -53 0.610000610352 hvcurveto
          1.32000732422 -116 142.470001221 -3 30.2200012207 82 rrcurveto
          endchar
        </CharString>
        <CharString name="ograve">
          167 394.429992676 671 -87 callsubr
          -50 vmoveto
          -91 callsubr
        </CharString>
        <CharString name="ohungarumlaut">
          167 330.320007324 668.380004883 -77 callsubr
          -54.1000061035 -56.3800048828 rmoveto
          -91 callsubr
        </CharString>
        <CharString name="omacron">
          167 265.25 695.36000061 0 callsubr
          122.190002441 -116.36000061 rmoveto
          -91 callsubr
        </CharString>
        <CharString name="one">
          -263 67.4900054932 hmoveto
          0.139999389648 10 rlineto
          20.9100036621 hlineto
          30.1399993896 25.0700073242 24.1600036621 29.9900054932 hvcurveto
          526.899993896 vlineto
          32.1999969482 -15.8899993896 16.8000030518 -30.1300048828 vhcurveto
          -37.7299957275 10 hlineto
          52.0099945068 7.02000427246 46.8099975586 10.6300048828 38.9799957275 46.3500061035 rrcurveto
          10 -650.550003052 hlineto
          -29.6999969482 25.2700042725 -23.8000030518 29.9199981689 vhcurveto
          20.9100036621 hlineto
          0.139999389648 -9.97999572754 rlineto
          endchar
        </CharString>
        <CharString name="onehalf">
          198 577.350006104 -14 callsubr
          -34.0099945068 305.919998169 -27 callsubr
          276.36000061 -21 -42 callsubr
        </CharString>
        <CharString name="onequarter">
          106 578.350006104 -14 callsubr
          97.3300018311 312.570007324 rmoveto
          -19.9499969482 -16.8500061035 15.8699951172 19.8000030518 hvcurveto
          363.699996948 5 callsubr
          vlineto
          -25.9900054932 -30.8999938965 -33.2100067139 -7.08000183105 -34.6699981689 -4.67999267578 rrcurveto
          5 callsubr
          25.1600036621 vlineto
          20.0899963379 10.5899963379 -11.1999969482 -21.4700012207 hvcurveto
          -281.270004272 vlineto
          -20 -16.7200012207 -16.1100006104 -20.1000061035 vhcurveto
          -13.9400024414 5 callsubr
          146.369995117 6.66999816895 hlineto
          463.899993896 -184.820007324 -35 callsubr
        </CharString>
        <CharString name="onesuperior">
          -396 44.9900054932 308 -27 callsubr
          endchar
        </CharString>
        <CharString name="ordfeminine">
          -239 186.479995728 714 rmoveto
          -5.19000244141 hlineto
          -1.14999389648 -15.0599975586 -20.1699981689 -44.25 0 vvcurveto
          -111.850006104 -236.309997559 rlineto
          -24.6699981689 -12.0099945068 -16.8099975586 -10.2599945068 -14.9400024414 hhcurveto
          -4.36000061035 -5.75999450684 114.460006714 5.71000671387 -4.36000061035 hlineto
          -12.7200012207 -15.1499938965 12.9199981689 22.7400054932 8.97999572754 hvcurveto
          28.5200042725 66.9100036621 rlineto
          123.240005493 hlineto
          25.6900024414 -66.4100036621 rlineto
          -23.0500030518 8.82000732422 -14.9499969482 -13.1000061035 -12.8200073242 hhcurveto
          -4.36000061035 -5.71000671387 122.960006714 5.75999450684 -4.14999389648 hlineto
          -15.2200012207 -15.4900054932 10.6300048828 25.6600036621 -12.9100036621 hvcurveto
          -190.509994507 90.3600006104 rmoveto
          54.3099975586 127.419998169 49.3000030518 -127.419998169 rlineto
          endchar
        </CharString>
        <CharString name="ordmasculine">
          -195 206.380004883 714 rmoveto
          -97.0899963379 -79.2899932861 -75.7700042725 -96.4299926758 -96.4299926758 79.2899932861 -75.7599945068 97.0899963379 97.0899963379 79.2899932861 75.7599945068 96.4299926758 96.4299926758 -79.2899932861 75.7700042725 -97.0899963379 hvcurveto
          -323.419998169 vmoveto
          -70.8699951172 -50.6799926758 65.4199981689 85.8099975586 85.8099975586 50.6799926758 65.4199981689 70.8699951172 70.8699951172 50.6799926758 -65.4199981689 -85.8099975586 -85.8099975586 -50.6799926758 -65.4199981689 -70.8699951172 hvcurveto
          endchar
        </CharString>
        <CharString name="oslash">
          167 638.649993896 608.270004272 rmoveto
          -25.3099975586 22.7599945068 -49.9600067139 -60.0800018311 rlineto
          27.7299957275 -51.2100067139 -60.2299957275 15.3200073242 -64.5 hhcurveto
          -186.570007324 -150.880004883 -128.160003662 4 callsubr
          -93.1699981689 37.9199981689 -78.6699981689 61.3300018311 -55.2899932861 hvcurveto
          -61.4100036621 -73.8600006104 25.0099945068 -22 62.3500061035 74.8600006104 rlineto
          -42.0200042725 57.9499969482 73.8300018311 -23.8399963379 80.4600067139 hhcurveto
          186.539993286 150.880004883 128.160003662 185.839996338 108.880004883 -51.7899932861 89.0800018311 -80.4100036621 55.1100006104 hvcurveto
          -409 -438.809997559 rmoveto
          -37.3399963379 48.1600036621 -22.25 63.6100006104 73.9600067139 vvcurveto
          169.089996338 116.25 115 147.11000061 55.5 51.1100006104 -16.3699951172 -29.4700012207 42.1300048828 vhcurveto
          26.4100036621 -21.2700042725 rmoveto
          54.3300018311 -50.1699981689 33.8899993896 -75.5200042725 -91.2799987793 vvcurveto
          -169.080001831 -116.279998779 -114.990005493 -147.080001831 -70.75 -63.6199951172 26.6000061035 46.4199981689 -46.9799957275 vhcurveto
          endchar
        </CharString>
        <CharString name="otilde">
          167 523.070007324 742.520004272 -80 callsubr
          -125.630004883 -128.520004272 rmoveto
          -91 callsubr
        </CharString>
        <CharString name="p">
          -54 54.6600036621 600 rmoveto
          0.179992675781 -10 rlineto
          13.8000030518 hlineto
          32.7799987793 24.6300048828 -22.8000030518 -30.0299987793 0.589996337891 hvcurveto
          -473.960006714 vlineto
          -29.5800018311 -1.10000610352 -24.4499969482 -23.6699981689 -32.4400024414 hhcurveto
          -13.8000030518 hlineto
          -0.179992675781 -10 rlineto
          207.789993286 hlineto
          -0.179992675781 10 rlineto
          -13.8000030518 hlineto
          -32.7100067139 -24.3800048828 23.8699951172 29.7599945068 -0.899993896484 hvcurveto
          506.399993896 96.7799987793 vlineto
          97.9799957275 59.8899993896 -49.7299957275 -81.2700042725 -0.149993896484 hvcurveto
          -0.0299987792969 -17.1799926758 -2.05999755859 -22.7700042725 -4.91000366211 -14.0599975586 rrcurveto
          -143.25 -49.9900054932 -158.949996948 42.1199951172 -0.0500030517578 hhcurveto
          -9.44999694824 vlineto
          135.899993896 -66.1300048828 151.600006104 68.3000030518 0.410003662109 152.419998169 rrcurveto
          106.100006104 0.279998779297 -89.1999969482 64.8999938965 -139.460006714 hhcurveto
          endchar
        </CharString>
        <CharString name="paragraph">
          -87 503.369995117 742.619995117 rmoveto
          -47.1499938965 -40.9299926758 -32.9900054932 4.7200012207 -21.9499969482 hhcurveto
          -161.179992676 hlineto
          -108.080001831 -0.520004272461 -87 -69.5500030518 -1.22999572754 -112.960006714 rrcurveto
          -114.100006104 -1.24000549316 87 -69.9299926758 110.550003052 hhcurveto
          -333.13999939 vlineto
          2.91999816895 -97 -7.38999938965 -35 -56.2400054932 -58 7 -9 rcurveline
          82.4900054932 43 3.47999572754 79 77 vvcurveto
          670.190002441 83.4600067139 -525.559997559 vlineto
          -65.8699951172 1.75999450684 -34.3000030518 -28.7599945068 -49.4600067139 vhcurveto
          9 -8 rlineto
          39.1199951172 47.6100006104 8.88000488281 35.4499969482 77.0200042725 vvcurveto
          523.11000061 12.5299987793 vlineto
          59.6799926758 1.05000305176 29.5 28.9900054932 16.6100006104 36.3999938965 rrcurveto
          endchar
        </CharString>
        <CharString name="parenleft">
          -269 302.539993286 732 rmoveto
          -115.320007324 -40.4799957275 -99.0099945068 -165.240005493 1.80999755859 -192.559997559 1.83000183105 -194.789993286 98.4199981689 -180.919998169 110.470001221 -58 6 9 rcurveline
          -74.3200073242 52 -69.75 177.619995117 -2.66000366211 196.88999939 -2.53999328613 188.429992676 70.25 161.490005493 80.8099975586 38.5700073242 rrcurveto
          endchar
        </CharString>
        <CharString name="parenright">
          -269 37.7899932861 -100 rmoveto
          110.470001221 58 98.4199981689 180.919998169 1.83000183105 194.789993286 1.80999755859 192.559997559 -99.0099945068 165.240005493 -115.320007324 40.4799957275 -6 -8 rcurveline
          80.8099975586 -38.5700073242 70.25 -161.490005493 -2.53999328613 -188.429992676 -2.66000366211 -196.88999939 -69.75 -177.619995117 -74.3200073242 -52 rrcurveto
          endchar
        </CharString>
        <CharString name="partialdiff">
          -41 78.6900024414 577.38999939 rmoveto
          70.2400054932 97.5 81.3399963379 -2.02000427246 58.7899932861 -13.8699951172 101.720001221 -24 46.1000061035 -128.990005493 -1.64999389648 -137.929992676 -169.729995728 145.869995117 -159.080001831 -129.529998779 -34.5599975586 -122.25 -37.1000061035 -131.220001221 46.0200042725 -154.949996948 182.259994507 10 144.089996338 8 85.6600036621 123.88999939 13 215.199996948 11.9499969482 197.800003052 -85.8600006104 166.529998779 -138.850006104 16.5800018311 -105.910003662 12.6399993896 -66.8500061035 -44.1499938965 -50.6199951172 -98.1100006104 rrcurveto
          364.13999939 -251.300003052 rmoveto
          -13 -187.210006714 -74.5899963379 -121.830001831 -83.1600036621 -8.05000305176 -103.279998779 -10 -51.4700012207 107.279998779 29.3099975586 117.88999939 31.3699951172 126.210006714 87.8999938965 94.8300018311 178.029998779 -97.8899993896 rrcurveto
          endchar
        </CharString>
        <CharString name="percent">
          77 -65 callsubr
          52.1999969482 -176.779998779 rmoveto
          -53 callsubr
          endchar
        </CharString>
        <CharString name="period">
          -428 90 -4 rmoveto
          -9 callsubr
        </CharString>
        <CharString name="periodcentered">
          -437 85 305 rmoveto
          -9 callsubr
        </CharString>
        <CharString name="perthousand">
          408 -65 callsubr
          330 hmoveto
          -80.2799987793 -68.0500030518 -67.1799926758 -109.600006104 -19.3300018311 hvcurveto
          -109.600006104 -19.3300018311 44.3600006104 -66.8600006104 80.2799987793 hhcurveto
          80.2799987793 68.0500030518 66.8600006104 109.600006104 19.3300018311 hvcurveto
          109.600006104 19.3300018311 -44.3600006104 67.1799926758 -80.2799987793 hhcurveto
          -277.800003052 -176.779998779 rmoveto
          -53 callsubr
          330 hmoveto
          -53 callsubr
          endchar
        </CharString>
        <CharString name="pi">
          96 648.800003052 10 rmoveto
          -40 callsubr
          473.979995728 vlineto
          29.2799987793 1.39999389648 24.1399993896 23.3200073242 29.6300048828 hhcurveto
          22 callsubr
          0.139999389648 10 rlineto
          -593.910003662 hlineto
          46 callsubr
          22 callsubr
          30.1699981689 24.4799957275 -24.1799926758 -30.0299987793 0.559997558594 hvcurveto
          -471.699996948 vlineto
          -29.9900054932 -0.580001831055 -24.4600067139 -24.1399993896 -30.1399993896 hhcurveto
          -10.9100036621 -16 callsubr
          196.550003052 -2 callsubr
          10 rlineto
          -40 callsubr
          453.979995728 34 callsubr
          225.949996948 33 callsubr
          -451.699996948 vlineto
          -29.9900054932 -0.580001831055 -24.4600067139 -24.1399993896 -30.1399993896 hhcurveto
          -10.8999938965 -16 callsubr
          6 callsubr
          endchar
        </CharString>
        <CharString name="plus">
          441.720001221 332.25 rmoveto
          -178.36000061 13 callsubr
          hlineto
          endchar
        </CharString>
        <CharString name="plusminus">
          263.36000061 402.25 rmoveto
          13 callsubr
          45 vlineto
          -401.720001221 -342.25 rmoveto
          -1 callsubr
          endchar
        </CharString>
        <CharString name="product">
          156 708.800003052 -190 rmoveto
          -8 callsubr
          -29.9199981689 -24.3300018311 24 29 -0.949996948242 hvcurveto
          774.419998169 vlineto
          29.2799987793 1.39999389648 24.1399993896 23.3200073242 29.6300048828 hhcurveto
          22 callsubr
          0.139999389648 10 rlineto
          -653.910003662 hlineto
          46 callsubr
          22 callsubr
          30.1699981689 24.4799957275 -24.1799926758 -30.0299987793 0.559997558594 hvcurveto
          -771.809997559 12 callsubr
          -0.139999389648 10 rlineto
          -8 callsubr
          -29.9199981689 -24.3300018311 24 29 -0.949996948242 hvcurveto
          754.429992676 34 callsubr
          285.949996948 33 callsubr
          -751.809997559 12 callsubr
          endchar
        </CharString>
        <CharString name="q">
          170 1190.77999878 -74 rmoveto
          -109.619995117 -100 -190.25 7 -132.910003662 53 -121.470001221 48 -104.839996338 40 -70.2899932861 21 rrcurveto
          143.899993896 31.3200073242 106.11000061 116.100006104 157.570007324 vvcurveto
          185.839996338 -147.600006104 128.160003662 -183.11000061 -183.130004883 -147.600006104 -128.160003662 4 callsubr
          4 callsubr
          147.600006104 -128.160003662 187.190002441 vhcurveto
          118.289993286 -23 142.649993896 -93 106.289993286 -44 252.570007324 -107 168.5 149 21.0500030518 54 rrcurveto
          -1070.25999451 377.990005493 rmoveto
          169.089996338 113.229995728 115 143.619995117 143.600006104 113.229995728 -115 -169.089996338 -169.080001831 -113.229995728 -114.990005493 -143.600006104 -143.619995117 -113.229995728 114.990005493 169.080001831 vhcurveto
          endchar
        </CharString>
        <CharString name="question">
          -194 30 530.229995728 rmoveto
          10 hlineto
          96.0700073242 -2 50.4900054932 57.6999969482 79.1199951172 hhcurveto
          74.8399963379 45.8699951172 -52.3600006104 -87.3399963379 hvcurveto
          -125.440002441 -142.740005493 -58.4700012207 -94.8300018311 vvcurveto
          -31.8500061035 9.72999572754 -31.8500061035 34.8699951172 -31.8500061035 vhcurveto
          6.0299987793 4.96000671387 -24.5800018311 32.4199981689 5.80999755859 27.4700012207 9 32.4199981689 rlinecurve
          25.7299957275 92.6699981689 151.160003662 48.6799926758 135.699996948 vvcurveto
          105.940002441 -74.3699951172 63.7599945068 -121.339996338 -64.1699981689 -53.0899963379 -33.1100006104 -55.9400024414 -30.3500061035 vhcurveto
          160.350006104 -628.949996948 rmoveto
          -9 callsubr
        </CharString>
        <CharString name="questiondown">
          -174 232.979995728 704 rmoveto
          -34 callsubr
          -20.1499938965 -20.1499938965 -18 callsubr
          20.1499938965 -20.1499938965 -17 callsubr
          20.1499938965 20.1499938965 -17 callsubr
          -20.1499938965 20.1499938965 -34 callsubr
          hvcurveto
          150.350006104 -534.229995728 rmoveto
          -10 hlineto
          -96.0700073242 2 -50.4900054932 -57.6999969482 -79.1199951172 hhcurveto
          -74.8500061035 -45.8699951172 52.3600006104 87.3399963379 hvcurveto
          125.440002441 142.740005493 58.4700012207 94.8300018311 vvcurveto
          31.8500061035 -9.72999572754 31.8500061035 -34.8699951172 31.8500061035 vhcurveto
          -6.0299987793 -4.96000671387 24.5800018311 -32.4199981689 -5.80999755859 -27.4700012207 -9 -32.4199981689 rlinecurve
          -25.7299957275 -92.6699981689 -151.160003662 -48.6799926758 -135.699996948 vvcurveto
          -105.940002441 74.3699951172 -63.7599945068 121.350006104 64.1699981689 53.0899963379 33.1100006104 55.9400024414 30.3399963379 vhcurveto
          endchar
        </CharString>
        <CharString name="quotedbl">
          -292 59.0200042725 500 -23 callsubr
          139.020004272 -5.25 -23 callsubr
          endchar
        </CharString>
        <CharString name="quotedblbase">
          -267 47.7200012207 -102 -19 callsubr
          134.820007324 -9 -19 callsubr
          endchar
        </CharString>
        <CharString name="quotedblleft">
          -267 149.86000061 783.539993286 -44 callsubr
          137.410003662 8.75999450684 -44 callsubr
          endchar
        </CharString>
        <CharString name="quotedblright">
          -267 52.5800018311 597.720001221 -28 callsubr
          13.1600036621 -5 callsubr
          142.460006714 -8.35000610352 -28 callsubr
          13.1499938965 -5 callsubr
          endchar
        </CharString>
        <CharString name="quoteleft">
          -407 149.86000061 783.539993286 -44 callsubr
          endchar
        </CharString>
        <CharString name="quoteright">
          -407 52.5800018311 597.720001221 -28 callsubr
          13.1600036621 -5 callsubr
          endchar
        </CharString>
        <CharString name="quotesinglbase">
          -407 50.2100067139 -97 rmoveto
          69.2799987793 2 57.0700073242 73 -34.4499969482 82.8800048828 -17.9299926758 42.8699951172 -51.6199951172 -2.17999267578 -13.5099945068 -30.6900024414 -11.8800048828 -26.9799957275 22.4100036621 -18.5599975586 13.8099975586 -16.5299987793 18.1300048828 -21.8099975586 10.5500030518 -55 -64.4600067139 -21 rrcurveto
          endchar
        </CharString>
        <CharString name="quotesingle">
          -437 44.0200042725 500 -23 callsubr
          endchar
        </CharString>
        <CharString name="r">
          20 55 600 -98 callsubr
          endchar
        </CharString>
        <CharString name="racute">
          20 302.279998779 663.970001221 -105 callsubr
          -240.279998779 -70.9700012207 -98 callsubr
          endchar
        </CharString>
        <CharString name="radical">
          -13 25 400.460006714 rmoveto
          82.3099975586 11.8899993896 159.309997559 -559.339996338 307.600006104 988.179992676 -30 2 -261.800003052 -834.029998779 -123.13999939 441.309997559 -139.279998779 -20 rlineto
          endchar
        </CharString>
        <CharString name="rcaron">
          20 307.300003052 664.149993896 -63 callsubr
          -358.429992676 -182.910003662 -98 callsubr
          endchar
        </CharString>
        <CharString name="rcommaaccent">
          20 55 600 -98 callsubr
          27.8000030518 -808 -84 callsubr
        </CharString>
        <CharString name="registered">
          -362 122.86000061 700.86000061 rmoveto
          -62.3300018311 -50.5299987793 -50.5299987793 -62.3300018311 -62.3300018311 50.5299987793 -50.5299987793 62.3300018311 62.3300018311 50.5299987793 50.5299987793 62.3300018311 62.3300018311 -50.5299987793 50.5299987793 -62.3300018311 hvcurveto
          -205.720001221 vmoveto
          -51.2799987793 -41.5700073242 44 callsubr
          44 callsubr
          -41.5700073242 -51.2799987793 -51.2799987793 -41.5700073242 -41.5700073242 -51.2799987793 hvcurveto
          -18.2599945068 156.559997559 rmoveto
          -37.0500030518 -2 2.5299987793 hlineto
          5.99000549316 4.52000427246 -4.49000549316 -5.94000244141 0.179992675781 hvcurveto
          -94.9299926758 vlineto
          -5.88000488281 -0.240005493164 -4.49000549316 -4.69000244141 -5.94000244141 hhcurveto
          -2.5299987793 -2 50.2899932861 2 -2.5299987793 hlineto
          -6.0299987793 -4.53999328613 4.83000183105 6 -0.110000610352 hvcurveto
          97.9299926758 vlineto
          12.0200042725 -0.220001220703 16.9700012207 0.179992675781 7.41999816895 -8.88000488281 0.410003662109 -12.9700012207 rlinecurve
          0.139999389648 -4.38000488281 -0.529998779297 -4.19000244141 -0.880004882812 -2.80000305176 -5.27000427246 -16.8000030518 -11.5599975586 -0.0700073242188 -1.30000305176 -0.279998779297 rrcurveto
          -10.5599975586 -1.85000610352 hlineto
          4.30000305176 2.89999389648 -6.7200012207 -6.75999450684 4.02000427246 hvcurveto
          48 callsubr
          11.5800018311 7.46000671387 -25.4799957275 33.8399963379 hhcurveto
          12.6900024414 2 hlineto
          -12.5 3.92999267578 -5.36999511719 10.9400024414 -2.89999389648 4.2200012207 -7.74000549316 11.25 -11.5700073242 20.3200073242 -8.82000732422 1.97999572754 rrcurveto
          17.0200042725 1.80000305176 11.5099945068 14.1600036621 16.9499969482 vvcurveto
          20.1900024414 -17.8600006104 12.1799926758 -23.6000061035 vhcurveto
          endchar
        </CharString>
        <CharString name="ring">
          -7 301.330001831 849.169998169 -64 callsubr
          endchar
        </CharString>
        <CharString name="s">
          -145 -59 callsubr
          endchar
        </CharString>
        <CharString name="sacute">
          -145 232.199996948 663.970001221 -105 callsubr
          -65.1199951172 -260.720001221 -102 callsubr
          endchar
        </CharString>
        <CharString name="scaron">
          -145 237.220001221 664.149993896 -63 callsubr
          -183.270004272 -372.660003662 -102 callsubr
          endchar
        </CharString>
        <CharString name="scedilla">
          -195 149.309997559 410.25 rmoveto
          -31.3600006104 25.1900024414 -7.75999450684 27.8500061035 -0.190002441406 25.7100067139 rrcurveto
          53.1600036621 -0.380004882812 53.7799987793 42.2200012207 66.7899932861 hhcurveto
          78.4700012207 37.0800018311 -33.0099945068 -55.4100036621 hvcurveto
          11.4499969482 hlineto
          -1.5 108.779998779 rlineto
          -33.4299926758 hlineto
          5.17999267578 -22.3600006104 -30.7599945068 4.08000183105 -45.8000030518 hhcurveto
          -92.5700073242 -73.9600067139 -64.75 -81.25 1.19999694824 hvcurveto
          0.509994506836 -34.7100067139 10.0399932861 -41.5599975586 37.2299957275 -31.8000030518 200.039993286 -154.36000061 rcurveline
          25.7700042725 -22.5599975586 10.6600036621 -25.4499969482 -31.1399993896 vvcurveto
          -64.9900054932 -50.5800018311 -43.0899963379 -82.6699981689 -2.35000610352 vhcurveto
          -88.2299957275 -2.50999450684 -60.6600036621 53.6999969482 8.83999633789 90.0899963379 rrcurveto
          -11.5200042725 hlineto
          -13.6600036621 -38.6499938965 -2.57000732422 -58.9100036621 6.30000305176 -26.6100006104 32.8200073242 -29.4199981689 65.5899963379 -14.6799926758 56.0099945068 -3 -47.4900054932 -61 rcurveline
          -62 callsubr
          40.9799957275 47 rcurveline
          94.2899932861 5 74.1399993896 69.6100006104 -0.770004272461 86.3899993896 -0.339996337891 38.8800048828 -14.1100006104 42.6600036621 -30.8200073242 25.8899993896 rrcurveto
          endchar
        </CharString>
        <CharString name="scommaaccent">
          -145 -59 callsubr
          -167.330001831 -462.440002441 -84 callsubr
        </CharString>
        <CharString name="section">
          -96 278 708 rmoveto
          -156.550003052 -25.9199981689 -176.449996948 -259.869995117 234 -225.210006714 168.38999939 -161.820007324 29.0899963379 -85.1799926758 -69.4799957275 -48 -92.8500061035 -65 -61.6100006104 137 -37.5299987793 -28 -43.2599945068 -33 49.1000061035 -84 122.169998169 20 162.679992676 27 152.740005493 266.259994507 -222.419998169 224.740005493 -175.990005493 177.830001831 -14.5200042725 62.8500061035 66.5099945068 48.3200073242 92.0099945068 66.8500061035 63.0800018311 -139.270004272 37.9100036621 28.4299926758 rrcurveto
          40.8399963379 30.6199951172 -45.6100006104 85.6100006104 -122.229995728 -20.2400054932 rrcurveto
          -138.75 -125.080001831 rmoveto
          -7.83999633789 -77.8000030518 29.0399932861 -64.6699981689 128.550003052 -123.440002441 148.699996948 -142.789993286 -16.3399963379 -110.600006104 -49.9900054932 -78.6100006104 19.0399932861 65.1000061035 -39.5299987793 82.1399993896 -126.88999939 115.75 -160.330001831 146.259994507 32.5200042725 107.990005493 43.0599975586 80.6699981689 rrcurveto
          endchar
        </CharString>
        <CharString name="semicolon">
          -7 90 407.229995728 rmoveto
          -83 callsubr
          -42.6399993896 -496.229995728 -20 callsubr
        </CharString>
</ttFont>
